SplineFontDB: 3.0
FontName: AutourOne-Regular
FullName: AutourOne
FamilyName: Autour One
Weight: Book
Copyright: Copyright (c) 2011-2012, Sorkin Type Co (www.sorkintype.com) with Reserved Font Name 'Autour'
Version: 1.006; ttfautohint (v0.92) -l 24 -r 24 -G 200 -x 7 -w "GD"
ItalicAngle: 0
UnderlinePosition: -65
UnderlineWidth: 189
Ascent: 1638
Descent: 410
sfntRevision: 0x00010083
LayerCount: 2
Layer: 0 1 "Back"  1
Layer: 1 1 "Fore"  0
XUID: [1021 631 1661839179 6875448]
FSType: 0
OS2Version: 3
OS2_WeightWidthSlopeOnly: 0
OS2_UseTypoMetrics: 1
CreationTime: 1347626340
ModificationTime: 1347609040
PfmFamily: 17
TTFWeight: 400
TTFWidth: 5
LineGap: 0
VLineGap: 0
Panose: 2 0 5 3 0 0 0 2 0 4
OS2TypoAscent: 2010
OS2TypoAOffset: 0
OS2TypoDescent: -550
OS2TypoDOffset: 0
OS2TypoLinegap: 0
OS2WinAscent: 2010
OS2WinAOffset: 0
OS2WinDescent: 550
OS2WinDOffset: 0
HheadAscent: 2010
HheadAOffset: 0
HheadDescent: -550
HheadDOffset: 0
OS2SubXSize: 1434
OS2SubYSize: 1331
OS2SubXOff: 0
OS2SubYOff: 287
OS2SupXSize: 1434
OS2SupYSize: 1331
OS2SupXOff: 0
OS2SupYOff: 977
OS2StrikeYSize: 233
OS2StrikeYPos: 724
OS2Vendor: 'STC '
OS2CodePages: 20000093.00000000
OS2UnicodeRanges: a00000af.5000204a.00000000.00000000
DEI: 91125
TtTable: prep
MPPEM
PUSHW_1
 200
GT
IF
PUSHB_2
 1
 1
INSTCTRL
EIF
PUSHW_2
 2048
 2048
MUL
DUP
PUSHB_1
 1
SWAP
WCVTP
DUP
PUSHB_1
 3
SWAP
WCVTF
PUSHB_1
 20
RCVT
DUP
DUP
MPPEM
PUSHB_1
 7
LTEQ
MPPEM
PUSHB_1
 6
GTEQ
AND
IF
PUSHB_1
 52
ELSE
PUSHB_1
 40
EIF
ADD
FLOOR
DUP
ROLL
NEQ
IF
PUSHB_1
 2
CINDEX
SUB
PUSHB_1
 1
RCVT
MUL
SWAP
DIV
PUSHB_1
 2
SWAP
WCVTP
PUSHB_4
 10
 10
 5
 4
CALL
PUSHB_4
 11
 16
 5
 4
CALL
PUSHB_4
 17
 22
 5
 4
CALL
EIF
PUSHB_3
 4
 40
 8
RCVT
GT
WCVTP
PUSHB_4
 11
 16
 6
 4
CALL
PUSHB_2
 6
 1
WCVTP
PUSHB_2
 36
 1
GETINFO
LTEQ
IF
PUSHB_1
 64
GETINFO
IF
PUSHB_2
 6
 3
WCVTP
PUSHB_2
 38
 1
GETINFO
LTEQ
IF
PUSHW_1
 1024
GETINFO
IF
PUSHB_2
 6
 3
WCVTP
EIF
EIF
EIF
EIF
PUSHW_1
 511
SCANCTRL
PUSHB_1
 4
SCANTYPE
PUSHB_2
 5
 0
WCVTP
EndTTInstrs
TtTable: fpgm
PUSHB_1
 0

StartChar: I
Encoding: 73 73 4
Width: 794
Flags: W
LayerCount: 2
Fore
SplineSet
273 80 m 0,0,1
 273 131 273 131 280.5 180.5 c 128,-1,2
 288 230 288 230 288 286 c 0,3,4
 288 541 288 541 283.5 799 c 128,-1,5
 279 1057 279 1057 279 1329 c 0,6,7
 279 1357 279 1357 273 1385.5 c 128,-1,8
 267 1414 267 1414 267 1447 c 0,9,10
 267 1473 267 1473 274 1496 c 128,-1,11
 281 1519 281 1519 298 1536.5 c 128,-1,12
 315 1554 315 1554 345 1564 c 128,-1,13
 375 1574 375 1574 420 1574 c 256,14,15
 465 1574 465 1574 491 1540 c 128,-1,16
 517 1506 517 1506 517 1449 c 0,17,18
 517 1432 517 1432 514 1415.5 c 128,-1,19
 511 1399 511 1399 508 1381 c 1,20,21
 506 1295 506 1295 505 1196 c 128,-1,22
 504 1097 504 1097 504 969 c 0,23,24
 504 855 504 855 505 736 c 128,-1,25
 506 617 506 617 508 507 c 128,-1,26
 510 397 510 397 513.5 301.5 c 128,-1,27
 517 206 517 206 522 137 c 1,28,-1
 522 138 l 1,29,30
 524 123 524 123 525.5 109.5 c 128,-1,31
 527 96 527 96 527 82 c 0,32,33
 527 58 527 58 521.5 37.5 c 128,-1,34
 516 17 516 17 503 2 c 128,-1,35
 490 -13 490 -13 467 -21 c 128,-1,36
 444 -29 444 -29 410 -29 c 0,37,38
 370 -29 370 -29 343.5 -22 c 128,-1,39
 317 -15 317 -15 301.5 -1 c 128,-1,40
 286 13 286 13 279.5 33.5 c 128,-1,41
 273 54 273 54 273 80 c 0,0,1
EndSplineSet
EndChar

StartChar: H
Encoding: 72 72 5
Width: 1576
Flags: W
LayerCount: 2
Fore
SplineSet
219 74 m 0,0,1
 219 125 219 125 222.5 175 c 128,-1,2
 226 225 226 225 226 282 c 0,3,4
 226 298 226 298 226 318.5 c 128,-1,5
 226 339 226 339 225.5 379.5 c 128,-1,6
 225 420 225 420 224 488.5 c 128,-1,7
 223 557 223 557 221.5 670 c 128,-1,8
 220 783 220 783 218 948.5 c 128,-1,9
 216 1114 216 1114 213 1348 c 0,10,11
 213 1376 213 1376 205.5 1404.5 c 128,-1,12
 198 1433 198 1433 198 1465 c 0,13,14
 198 1491 198 1491 204.5 1511 c 128,-1,15
 211 1531 211 1531 228.5 1545 c 128,-1,16
 246 1559 246 1559 275 1566.5 c 128,-1,17
 304 1574 304 1574 349 1574 c 0,18,19
 372 1574 372 1574 389 1564.5 c 128,-1,20
 406 1555 406 1555 417.5 1539.5 c 128,-1,21
 429 1524 429 1524 434.5 1505 c 128,-1,22
 440 1486 440 1486 440 1467 c 0,23,24
 440 1422 440 1422 437 1375.5 c 128,-1,25
 434 1329 434 1329 434 1270 c 2,26,-1
 434 1049 l 1,27,28
 538 1046 538 1046 634 1043 c 128,-1,29
 730 1040 730 1040 834 1040 c 0,30,31
 906 1040 906 1040 978 1045.5 c 128,-1,32
 1050 1051 1050 1051 1129 1053 c 1,33,34
 1129 1072 1129 1072 1129.5 1095.5 c 128,-1,35
 1130 1119 1130 1119 1130 1153 c 128,-1,36
 1130 1187 1130 1187 1130 1234 c 128,-1,37
 1130 1281 1130 1281 1130 1348 c 0,38,39
 1130 1377 1130 1377 1124 1406 c 128,-1,40
 1118 1435 1118 1435 1118 1465 c 0,41,42
 1118 1491 1118 1491 1124.5 1511 c 128,-1,43
 1131 1531 1131 1531 1148.5 1545 c 128,-1,44
 1166 1559 1166 1559 1195.5 1566.5 c 128,-1,45
 1225 1574 1225 1574 1270 1574 c 0,46,47
 1294 1574 1294 1574 1311 1563 c 128,-1,48
 1328 1552 1328 1552 1338.5 1535.5 c 128,-1,49
 1349 1519 1349 1519 1353.5 1500.5 c 128,-1,50
 1358 1482 1358 1482 1358 1467 c 0,51,52
 1358 1391 1358 1391 1353.5 1314.5 c 128,-1,53
 1349 1238 1349 1238 1347 1153 c 1,54,55
 1347 1084 1347 1084 1347 1015 c 128,-1,56
 1347 946 1347 946 1347.5 873 c 128,-1,57
 1348 800 1348 800 1348 721 c 128,-1,58
 1348 642 1348 642 1348 555 c 0,59,60
 1348 454 1348 454 1350.5 384.5 c 128,-1,61
 1353 315 1353 315 1356.5 267.5 c 128,-1,62
 1360 220 1360 220 1364 191 c 128,-1,63
 1368 162 1368 162 1371 142 c 0,64,65
 1374 125 1374 125 1376 109 c 128,-1,66
 1378 93 1378 93 1378 75 c 0,67,68
 1378 52 1378 52 1372.5 33 c 128,-1,69
 1367 14 1367 14 1353.5 0.5 c 128,-1,70
 1340 -13 1340 -13 1317 -21 c 128,-1,71
 1294 -29 1294 -29 1259 -29 c 0,72,73
 1219 -29 1219 -29 1193 -22.5 c 128,-1,74
 1167 -16 1167 -16 1151.5 -2.5 c 128,-1,75
 1136 11 1136 11 1129.5 30 c 128,-1,76
 1123 49 1123 49 1123 75 c 0,77,78
 1123 127 1123 127 1130.5 178 c 128,-1,79
 1138 229 1138 229 1138 283 c 0,80,81
 1138 414 1138 414 1133.5 548 c 128,-1,82
 1129 682 1129 682 1128 836 c 1,83,84
 1057 837 1057 837 965 836.5 c 128,-1,85
 873 836 873 836 777.5 834.5 c 128,-1,86
 682 833 682 833 592.5 830.5 c 128,-1,87
 503 828 503 828 436 827 c 1,88,89
 438 666 438 666 441 556.5 c 128,-1,90
 444 447 444 447 447 374.5 c 128,-1,91
 450 302 450 302 453.5 258.5 c 128,-1,92
 457 215 457 215 460 187 c 0,93,94
 463 160 463 160 464.5 135 c 128,-1,95
 466 110 466 110 466 74 c 0,96,97
 466 51 466 51 461 32.5 c 128,-1,98
 456 14 456 14 442.5 0 c 128,-1,99
 429 -14 429 -14 406.5 -21.5 c 128,-1,100
 384 -29 384 -29 348 -29 c 0,101,102
 308 -29 308 -29 283 -22.5 c 128,-1,103
 258 -16 258 -16 243.5 -3 c 128,-1,104
 229 10 229 10 224 29 c 128,-1,105
 219 48 219 48 219 74 c 0,0,1
EndSplineSet
EndChar

StartChar: E
Encoding: 69 69 6
Width: 1321
Flags: W
LayerCount: 2
Fore
SplineSet
198 113 m 0,0,1
 198 130 198 130 202.5 149 c 128,-1,2
 207 168 207 168 212 184 c 2,3,-1
 221 216 l 1,4,-1
 198 1412 l 2,5,6
 198 1461 198 1461 209.5 1488 c 128,-1,7
 221 1515 221 1515 239 1528 c 128,-1,8
 257 1541 257 1541 280.5 1543 c 128,-1,9
 304 1545 304 1545 328 1545 c 2,10,-1
 855 1545 l 1,11,12
 873 1547 873 1547 895.5 1550.5 c 128,-1,13
 918 1554 918 1554 927 1554 c 0,14,15
 965 1554 965 1554 988.5 1547 c 128,-1,16
 1012 1540 1012 1540 1025.5 1526.5 c 128,-1,17
 1039 1513 1039 1513 1043.5 1493 c 128,-1,18
 1048 1473 1048 1473 1048 1446 c 0,19,20
 1048 1408 1048 1408 1038.5 1385 c 128,-1,21
 1029 1362 1029 1362 1012.5 1349.5 c 128,-1,22
 996 1337 996 1337 974 1333 c 128,-1,23
 952 1329 952 1329 927 1329 c 0,24,25
 916 1329 916 1329 898 1329.5 c 128,-1,26
 880 1330 880 1330 860 1332 c 1,27,28
 763 1332 763 1332 703.5 1332 c 128,-1,29
 644 1332 644 1332 608.5 1331.5 c 128,-1,30
 573 1331 573 1331 554.5 1331 c 128,-1,31
 536 1331 536 1331 522 1331 c 2,32,-1
 429 1331 l 1,33,-1
 429 1014 l 1,34,35
 435 1014 435 1014 443.5 1013.5 c 128,-1,36
 452 1013 452 1013 470 1013 c 128,-1,37
 488 1013 488 1013 519.5 1013 c 128,-1,38
 551 1013 551 1013 604 1013 c 128,-1,39
 657 1013 657 1013 735 1013 c 128,-1,40
 813 1013 813 1013 924 1013 c 0,41,42
 935 1013 935 1013 949 1014 c 128,-1,43
 963 1015 963 1015 977 1017 c 0,44,45
 995 1019 995 1019 1019 1021 c 128,-1,46
 1043 1023 1043 1023 1071 1023 c 0,47,48
 1098 1023 1098 1023 1119 1012 c 128,-1,49
 1140 1001 1140 1001 1154.5 984.5 c 128,-1,50
 1169 968 1169 968 1176.5 949 c 128,-1,51
 1184 930 1184 930 1184 913 c 0,52,53
 1184 859 1184 859 1148.5 834 c 128,-1,54
 1113 809 1113 809 1057 809 c 2,55,-1
 429 808 l 1,56,-1
 429 209 l 1,57,58
 528 209 528 209 628 206 c 128,-1,59
 728 203 728 203 837 203 c 0,60,61
 867 203 867 203 892 206 c 128,-1,62
 917 209 917 209 940 213 c 0,63,64
 961 216 961 216 982.5 218.5 c 128,-1,65
 1004 221 1004 221 1030 221 c 0,66,67
 1060 221 1060 221 1085.5 216.5 c 128,-1,68
 1111 212 1111 212 1130 200.5 c 128,-1,69
 1149 189 1149 189 1160 169.5 c 128,-1,70
 1171 150 1171 150 1171 120 c 0,71,72
 1171 76 1171 76 1156 52 c 128,-1,73
 1141 28 1141 28 1115.5 16.5 c 128,-1,74
 1090 5 1090 5 1057.5 2.5 c 128,-1,75
 1025 0 1025 0 990 0 c 2,76,-1
 317 0 l 2,77,78
 291 0 291 0 269.5 6 c 128,-1,79
 248 12 248 12 232 25.5 c 128,-1,80
 216 39 216 39 207 60.5 c 128,-1,81
 198 82 198 82 198 113 c 0,0,1
EndSplineSet
EndChar

StartChar: Q
Encoding: 81 81 7
Width: 1742
Flags: W
LayerCount: 2
Fore
SplineSet
144 773 m 0,0,1
 144 951 144 951 194.5 1098 c 128,-1,2
 245 1245 245 1245 337.5 1351 c 128,-1,3
 430 1457 430 1457 560.5 1515.5 c 128,-1,4
 691 1574 691 1574 850 1574 c 0,5,6
 1018 1574 1018 1574 1146.5 1515.5 c 128,-1,7
 1275 1457 1275 1457 1362.5 1351 c 128,-1,8
 1450 1245 1450 1245 1495 1098 c 128,-1,9
 1540 951 1540 951 1540 773 c 0,10,11
 1540 621 1540 621 1501 488.5 c 128,-1,12
 1462 356 1462 356 1387 250 c 1,13,14
 1413 224 1413 224 1439.5 206.5 c 128,-1,15
 1466 189 1466 189 1491 190 c 0,16,17
 1503 190 1503 190 1515 194.5 c 128,-1,18
 1527 199 1527 199 1540 204.5 c 128,-1,19
 1553 210 1553 210 1567 214.5 c 128,-1,20
 1581 219 1581 219 1598 219 c 0,21,22
 1616 219 1616 219 1634 212.5 c 128,-1,23
 1652 206 1652 206 1666 192.5 c 128,-1,24
 1680 179 1680 179 1689 159.5 c 128,-1,25
 1698 140 1698 140 1698 113 c 0,26,27
 1698 77 1698 77 1682.5 50.5 c 128,-1,28
 1667 24 1667 24 1641 6 c 128,-1,29
 1615 -12 1615 -12 1579.5 -20.5 c 128,-1,30
 1544 -29 1544 -29 1505 -29 c 0,31,32
 1468 -29 1468 -29 1434 -18.5 c 128,-1,33
 1400 -8 1400 -8 1368.5 10.5 c 128,-1,34
 1337 29 1337 29 1308 54 c 128,-1,35
 1279 79 1279 79 1252 107 c 1,36,37
 1168 42 1168 42 1065.5 6.5 c 128,-1,38
 963 -29 963 -29 842 -29 c 0,39,40
 736 -29 736 -29 643 -1 c 128,-1,41
 550 27 550 27 472.5 79 c 128,-1,42
 395 131 395 131 334 203.5 c 128,-1,43
 273 276 273 276 230.5 365 c 128,-1,44
 188 454 188 454 166 557 c 128,-1,45
 144 660 144 660 144 773 c 0,0,1
372 773 m 0,46,47
 372 698 372 698 386 624.5 c 128,-1,48
 400 551 400 551 427.5 484.5 c 128,-1,49
 455 418 455 418 495.5 361.5 c 128,-1,50
 536 305 536 305 588.5 263.5 c 128,-1,51
 641 222 641 222 705.5 198.5 c 128,-1,52
 770 175 770 175 845 175 c 0,53,54
 926 175 926 175 993 199.5 c 128,-1,55
 1060 224 1060 224 1113 269 c 1,56,57
 1090 296 1090 296 1067 319 c 128,-1,58
 1044 342 1044 342 1021.5 359 c 128,-1,59
 999 376 999 376 976 386 c 128,-1,60
 953 396 953 396 929 396 c 0,61,62
 921 396 921 396 909 394.5 c 128,-1,63
 897 393 897 393 883 393 c 256,64,65
 869 393 869 393 845 396.5 c 128,-1,66
 821 400 821 400 797.5 411.5 c 128,-1,67
 774 423 774 423 757 444 c 128,-1,68
 740 465 740 465 740 501 c 0,69,70
 740 535 740 535 752.5 556.5 c 128,-1,71
 765 578 765 578 785.5 590.5 c 128,-1,72
 806 603 806 603 831 608 c 128,-1,73
 856 613 856 613 881 613 c 0,74,75
 938 613 938 613 984 601 c 128,-1,76
 1030 589 1030 589 1071 565.5 c 128,-1,77
 1112 542 1112 542 1151.5 507.5 c 128,-1,78
 1191 473 1191 473 1235 429 c 1,79,80
 1273 505 1273 505 1292 593 c 128,-1,81
 1311 681 1311 681 1311 773 c 0,82,83
 1311 893 1311 893 1283 1000.5 c 128,-1,84
 1255 1108 1255 1108 1197.5 1190 c 128,-1,85
 1140 1272 1140 1272 1052.5 1320 c 128,-1,86
 965 1368 965 1368 845 1368 c 0,87,88
 732 1368 732 1368 644 1325 c 128,-1,89
 556 1282 556 1282 495.5 1204 c 128,-1,90
 435 1126 435 1126 403.5 1016.5 c 128,-1,91
 372 907 372 907 372 773 c 0,46,47
EndSplineSet
EndChar

StartChar: O
Encoding: 79 79 8
Width: 1684
Flags: W
LayerCount: 2
Fore
SplineSet
144 773 m 0,0,1
 144 951 144 951 194.5 1098 c 128,-1,2
 245 1245 245 1245 337.5 1351 c 128,-1,3
 430 1457 430 1457 560.5 1515.5 c 128,-1,4
 691 1574 691 1574 850 1574 c 0,5,6
 1018 1574 1018 1574 1146.5 1515.5 c 128,-1,7
 1275 1457 1275 1457 1362.5 1351 c 128,-1,8
 1450 1245 1450 1245 1495 1098 c 128,-1,9
 1540 951 1540 951 1540 773 c 0,10,11
 1540 604 1540 604 1491 457.5 c 128,-1,12
 1442 311 1442 311 1351 203 c 128,-1,13
 1260 95 1260 95 1131 33 c 128,-1,14
 1002 -29 1002 -29 842 -29 c 0,15,16
 736 -29 736 -29 643 -1 c 128,-1,17
 550 27 550 27 472.5 79 c 128,-1,18
 395 131 395 131 334 203.5 c 128,-1,19
 273 276 273 276 230.5 365 c 128,-1,20
 188 454 188 454 166 557 c 128,-1,21
 144 660 144 660 144 773 c 0,0,1
372 773 m 0,22,23
 372 698 372 698 386 624.5 c 128,-1,24
 400 551 400 551 427.5 484.5 c 128,-1,25
 455 418 455 418 495.5 361.5 c 128,-1,26
 536 305 536 305 588.5 263.5 c 128,-1,27
 641 222 641 222 705.5 198.5 c 128,-1,28
 770 175 770 175 845 175 c 0,29,30
 924 175 924 175 989 198.5 c 128,-1,31
 1054 222 1054 222 1106 263.5 c 128,-1,32
 1158 305 1158 305 1196.5 361.5 c 128,-1,33
 1235 418 1235 418 1260.5 484.5 c 128,-1,34
 1286 551 1286 551 1298.5 624.5 c 128,-1,35
 1311 698 1311 698 1311 773 c 0,36,37
 1311 893 1311 893 1283 1000.5 c 128,-1,38
 1255 1108 1255 1108 1197.5 1190 c 128,-1,39
 1140 1272 1140 1272 1052.5 1320 c 128,-1,40
 965 1368 965 1368 845 1368 c 0,41,42
 732 1368 732 1368 644 1325 c 128,-1,43
 556 1282 556 1282 495.5 1204 c 128,-1,44
 435 1126 435 1126 403.5 1016.5 c 128,-1,45
 372 907 372 907 372 773 c 0,22,23
EndSplineSet
EndChar

StartChar: N
Encoding: 78 78 9
Width: 1724
Flags: W
LayerCount: 2
Fore
SplineSet
203 64 m 0,0,1
 203 106 203 106 209 135 c 128,-1,2
 215 164 215 164 216 162 c 1,3,4
 218 271 218 271 219.5 383 c 128,-1,5
 221 495 221 495 221 620 c 0,6,7
 221 699 221 699 221 791.5 c 128,-1,8
 221 884 221 884 219.5 978.5 c 128,-1,9
 218 1073 218 1073 215 1164.5 c 128,-1,10
 212 1256 212 1256 207 1334 c 1,11,12
 203 1357 203 1357 201 1375.5 c 128,-1,13
 199 1394 199 1394 199 1415 c 0,14,15
 199 1464 199 1464 220 1492.5 c 128,-1,16
 241 1521 241 1521 288 1532 c 1,17,18
 308 1549 308 1549 332.5 1555.5 c 128,-1,19
 357 1562 357 1562 380 1562 c 0,20,21
 404 1562 404 1562 423.5 1548 c 128,-1,22
 443 1534 443 1534 458 1515 c 128,-1,23
 473 1496 473 1496 483 1475.5 c 128,-1,24
 493 1455 493 1455 497 1442 c 1,25,26
 528 1396 528 1396 571.5 1337 c 128,-1,27
 615 1278 615 1278 666.5 1210.5 c 128,-1,28
 718 1143 718 1143 776 1069.5 c 128,-1,29
 834 996 834 996 893.5 921 c 128,-1,30
 953 846 953 846 1012 771.5 c 128,-1,31
 1071 697 1071 697 1124 628 c 128,-1,32
 1177 559 1177 559 1223 497.5 c 128,-1,33
 1269 436 1269 436 1302 387 c 1,34,35
 1302 601 1302 601 1300.5 755.5 c 128,-1,36
 1299 910 1299 910 1297 1018.5 c 128,-1,37
 1295 1127 1295 1127 1292 1197 c 128,-1,38
 1289 1267 1289 1267 1287 1313 c 128,-1,39
 1285 1359 1285 1359 1283.5 1388.5 c 128,-1,40
 1282 1418 1282 1418 1282 1445 c 0,41,42
 1282 1485 1282 1485 1290.5 1510.5 c 128,-1,43
 1299 1536 1299 1536 1314.5 1550 c 128,-1,44
 1330 1564 1330 1564 1353 1569 c 128,-1,45
 1376 1574 1376 1574 1406 1574 c 0,46,47
 1445 1574 1445 1574 1467 1558 c 128,-1,48
 1489 1542 1489 1542 1500.5 1517.5 c 128,-1,49
 1512 1493 1512 1493 1514.5 1462.5 c 128,-1,50
 1517 1432 1517 1432 1517 1403 c 2,51,-1
 1517 256 l 2,52,53
 1517 220 1517 220 1521 183.5 c 128,-1,54
 1525 147 1525 147 1525 106 c 0,55,56
 1525 67 1525 67 1519 41.5 c 128,-1,57
 1513 16 1513 16 1499.5 0 c 128,-1,58
 1486 -16 1486 -16 1464.5 -22.5 c 128,-1,59
 1443 -29 1443 -29 1413 -29 c 0,60,61
 1357 -29 1357 -29 1323.5 -1 c 128,-1,62
 1290 27 1290 27 1276 67 c 1,63,64
 1181 197 1181 197 1083.5 323.5 c 128,-1,65
 986 450 986 450 887 576.5 c 128,-1,66
 788 703 788 703 688 831.5 c 128,-1,67
 588 960 588 960 489 1093 c 1,68,-1
 429 1187 l 1,69,70
 430 1034 430 1034 431 914.5 c 128,-1,71
 432 795 432 795 433 701.5 c 128,-1,72
 434 608 434 608 435 536.5 c 128,-1,73
 436 465 436 465 436.5 408.5 c 128,-1,74
 437 352 437 352 437.5 305.5 c 128,-1,75
 438 259 438 259 438 215 c 1,76,77
 439 189 439 189 441.5 159.5 c 128,-1,78
 444 130 444 130 444 102 c 0,79,80
 444 76 444 76 439.5 52 c 128,-1,81
 435 28 435 28 422 10 c 128,-1,82
 409 -8 409 -8 385.5 -18.5 c 128,-1,83
 362 -29 362 -29 324 -29 c 0,84,85
 273 -29 273 -29 238 -4 c 128,-1,86
 203 21 203 21 203 64 c 0,0,1
EndSplineSet
EndChar

StartChar: S
Encoding: 83 83 10
Width: 1354
Flags: W
LayerCount: 2
Fore
SplineSet
154 359 m 1,0,1
 159 440 159 440 187.5 482.5 c 128,-1,2
 216 525 216 525 288 525 c 0,3,4
 333 525 333 525 365 499.5 c 128,-1,5
 397 474 397 474 397 429 c 0,6,7
 397 403 397 403 392 377 c 128,-1,8
 387 351 387 351 389 323 c 1,9,10
 393 289 393 289 419 261 c 128,-1,11
 445 233 445 233 485 212.5 c 128,-1,12
 525 192 525 192 576 180.5 c 128,-1,13
 627 169 627 169 680 169 c 0,14,15
 734 169 734 169 787.5 178.5 c 128,-1,16
 841 188 841 188 884.5 214 c 128,-1,17
 928 240 928 240 955 285 c 128,-1,18
 982 330 982 330 982 402 c 0,19,20
 982 449 982 449 959 490.5 c 128,-1,21
 936 532 936 532 900 566.5 c 128,-1,22
 864 601 864 601 820.5 629 c 128,-1,23
 777 657 777 657 737 678 c 0,24,25
 680 707 680 707 620.5 734.5 c 128,-1,26
 561 762 561 762 504.5 792.5 c 128,-1,27
 448 823 448 823 397.5 859.5 c 128,-1,28
 347 896 347 896 309 945 c 128,-1,29
 271 994 271 994 249 1058.5 c 128,-1,30
 227 1123 227 1123 227 1208 c 0,31,32
 227 1303 227 1303 267.5 1372 c 128,-1,33
 308 1441 308 1441 374 1486 c 128,-1,34
 440 1531 440 1531 525.5 1552.5 c 128,-1,35
 611 1574 611 1574 701 1574 c 0,36,37
 781 1574 781 1574 856 1560 c 128,-1,38
 931 1546 931 1546 990 1514.5 c 128,-1,39
 1049 1483 1049 1483 1088 1430.5 c 128,-1,40
 1127 1378 1127 1378 1135 1302 c 0,41,42
 1137 1274 1137 1274 1128 1252.5 c 128,-1,43
 1119 1231 1119 1231 1103 1216.5 c 128,-1,44
 1087 1202 1087 1202 1066.5 1194.5 c 128,-1,45
 1046 1187 1046 1187 1025 1187 c 0,46,47
 993 1187 993 1187 971 1197 c 128,-1,48
 949 1207 949 1207 935 1222 c 128,-1,49
 921 1237 921 1237 914 1256 c 128,-1,50
 907 1275 907 1275 905 1293 c 1,51,52
 890 1317 890 1317 866 1332.5 c 128,-1,53
 842 1348 842 1348 812.5 1357.5 c 128,-1,54
 783 1367 783 1367 751 1370.5 c 128,-1,55
 719 1374 719 1374 689 1374 c 0,56,57
 647 1374 647 1374 605.5 1365 c 128,-1,58
 564 1356 564 1356 530 1336 c 128,-1,59
 496 1316 496 1316 475 1285 c 128,-1,60
 454 1254 454 1254 454 1209 c 0,61,62
 454 1156 454 1156 479 1115 c 128,-1,63
 504 1074 504 1074 542 1042 c 128,-1,64
 580 1010 580 1010 626.5 984 c 128,-1,65
 673 958 673 958 717 936 c 0,66,67
 770 909 770 909 827 878.5 c 128,-1,68
 884 848 884 848 938.5 812.5 c 128,-1,69
 993 777 993 777 1042 735 c 128,-1,70
 1091 693 1091 693 1128 641.5 c 128,-1,71
 1165 590 1165 590 1186.5 529 c 128,-1,72
 1208 468 1208 468 1208 394 c 0,73,74
 1208 315 1208 315 1186 253 c 128,-1,75
 1164 191 1164 191 1126 144 c 128,-1,76
 1088 97 1088 97 1037 64 c 128,-1,77
 986 31 986 31 927 10 c 128,-1,78
 868 -11 868 -11 804.5 -20.5 c 128,-1,79
 741 -30 741 -30 678 -30 c 0,80,81
 625 -30 625 -30 564.5 -21 c 128,-1,82
 504 -12 504 -12 445 7.5 c 128,-1,83
 386 27 386 27 332.5 57.5 c 128,-1,84
 279 88 279 88 238.5 131.5 c 128,-1,85
 198 175 198 175 175 231.5 c 128,-1,86
 152 288 152 288 154 359 c 1,0,1
EndSplineSet
EndChar

StartChar: P
Encoding: 80 80 11
Width: 1412
Flags: W
LayerCount: 2
Fore
SplineSet
207 83 m 0,0,1
 207 115 207 115 211.5 147.5 c 128,-1,2
 216 180 216 180 217 215 c 1,3,-1
 213 1365 l 1,4,5
 207 1379 207 1379 202.5 1404 c 128,-1,6
 198 1429 198 1429 198 1451 c 0,7,8
 198 1471 198 1471 205 1491 c 128,-1,9
 212 1511 212 1511 225.5 1526.5 c 128,-1,10
 239 1542 239 1542 259 1551.5 c 128,-1,11
 279 1561 279 1561 305 1561 c 0,12,13
 349 1561 349 1561 393 1556.5 c 128,-1,14
 437 1552 437 1552 485 1552 c 0,15,16
 523 1552 523 1552 561.5 1556.5 c 128,-1,17
 600 1561 600 1561 643 1561 c 0,18,19
 784 1561 784 1561 906 1522 c 128,-1,20
 1028 1483 1028 1483 1117 1407.5 c 128,-1,21
 1206 1332 1206 1332 1257 1222 c 128,-1,22
 1308 1112 1308 1112 1308 971 c 0,23,24
 1308 837 1308 837 1274 737.5 c 128,-1,25
 1240 638 1240 638 1181.5 567 c 128,-1,26
 1123 496 1123 496 1044.5 450.5 c 128,-1,27
 966 405 966 405 875.5 379 c 128,-1,28
 785 353 785 353 688 343 c 128,-1,29
 591 333 591 333 496 333 c 0,30,31
 486 333 486 333 479 332.5 c 128,-1,32
 472 332 472 332 466 332 c 128,-1,33
 460 332 460 332 453.5 332.5 c 128,-1,34
 447 333 447 333 438 333 c 1,35,36
 438 298 438 298 438 277.5 c 128,-1,37
 438 257 438 257 438.5 244 c 128,-1,38
 439 231 439 231 439 222 c 128,-1,39
 439 213 439 213 439 201 c 0,40,41
 439 169 439 169 445.5 137 c 128,-1,42
 452 105 452 105 452 69 c 0,43,44
 452 42 452 42 440 23.5 c 128,-1,45
 428 5 428 5 410 -6.5 c 128,-1,46
 392 -18 392 -18 371 -23.5 c 128,-1,47
 350 -29 350 -29 332 -29 c 0,48,49
 308 -29 308 -29 285 -21.5 c 128,-1,50
 262 -14 262 -14 245 0.5 c 128,-1,51
 228 15 228 15 217.5 35.5 c 128,-1,52
 207 56 207 56 207 83 c 0,0,1
439 550 m 1,53,54
 459 549 459 549 480.5 548 c 128,-1,55
 502 547 502 547 521 546 c 128,-1,56
 540 545 540 545 555 544.5 c 128,-1,57
 570 544 570 544 578 544 c 0,58,59
 689 544 689 544 769.5 562 c 128,-1,60
 850 580 850 580 905 611 c 128,-1,61
 960 642 960 642 994 683.5 c 128,-1,62
 1028 725 1028 725 1046 773.5 c 128,-1,63
 1064 822 1064 822 1070 874.5 c 128,-1,64
 1076 927 1076 927 1076 979 c 0,65,66
 1076 1062 1076 1062 1052.5 1122.5 c 128,-1,67
 1029 1183 1029 1183 991 1224 c 128,-1,68
 953 1265 953 1265 904.5 1290 c 128,-1,69
 856 1315 856 1315 805.5 1328.5 c 128,-1,70
 755 1342 755 1342 707 1346.5 c 128,-1,71
 659 1351 659 1351 623 1351 c 0,72,73
 577 1351 577 1351 530.5 1349.5 c 128,-1,74
 484 1348 484 1348 431 1347 c 1,75,76
 433 1216 433 1216 434 1116.5 c 128,-1,77
 435 1017 435 1017 435.5 940.5 c 128,-1,78
 436 864 436 864 436.5 807 c 128,-1,79
 437 750 437 750 437.5 705 c 128,-1,80
 438 660 438 660 438.5 623 c 128,-1,81
 439 586 439 586 439 550 c 1,53,54
EndSplineSet
EndChar

StartChar: T
Encoding: 84 84 12
Width: 1138
Flags: W
LayerCount: 2
Fore
SplineSet
445 1320 m 1,0,1
 375 1320 375 1320 300 1319 c 128,-1,2
 225 1318 225 1318 136 1318 c 0,3,4
 112 1318 112 1318 94 1329 c 128,-1,5
 76 1340 76 1340 64 1357.5 c 128,-1,6
 52 1375 52 1375 46 1397 c 128,-1,7
 40 1419 40 1419 40 1441 c 0,8,9
 40 1500 40 1500 73 1522.5 c 128,-1,10
 106 1545 106 1545 180 1545 c 2,11,-1
 978 1545 l 2,12,13
 998 1545 998 1545 1019.5 1540 c 128,-1,14
 1041 1535 1041 1535 1058.5 1522 c 128,-1,15
 1076 1509 1076 1509 1087.5 1488 c 128,-1,16
 1099 1467 1099 1467 1099 1434 c 0,17,18
 1099 1410 1099 1410 1091 1388 c 128,-1,19
 1083 1366 1083 1366 1069.5 1350 c 128,-1,20
 1056 1334 1056 1334 1037.5 1324 c 128,-1,21
 1019 1314 1019 1314 998 1314 c 0,22,23
 982 1314 982 1314 967 1317 c 128,-1,24
 952 1320 952 1320 935 1320 c 2,25,-1
 677 1320 l 1,26,-1
 674 192 l 2,27,28
 674 168 674 168 677.5 145 c 128,-1,29
 681 122 681 122 681 95 c 0,30,31
 681 73 681 73 677 51 c 128,-1,32
 673 29 673 29 660 11 c 128,-1,33
 647 -7 647 -7 623 -18.5 c 128,-1,34
 599 -30 599 -30 560 -30 c 0,35,36
 514 -30 514 -30 490 -14.5 c 128,-1,37
 466 1 466 1 455.5 25 c 128,-1,38
 445 49 445 49 444 78 c 128,-1,39
 443 107 443 107 443 134 c 2,40,-1
 445 1320 l 1,0,1
EndSplineSet
EndChar

StartChar: U
Encoding: 85 85 13
Width: 1527
Flags: W
LayerCount: 2
Fore
SplineSet
189 735 m 0,0,1
 188 894 188 894 189.5 1054.5 c 128,-1,2
 191 1215 191 1215 191 1391 c 0,3,4
 191 1433 191 1433 195.5 1467 c 128,-1,5
 200 1501 200 1501 212 1525 c 128,-1,6
 224 1549 224 1549 244.5 1561.5 c 128,-1,7
 265 1574 265 1574 297 1574 c 0,8,9
 370 1574 370 1574 400 1531.5 c 128,-1,10
 430 1489 430 1489 430 1416 c 0,11,12
 430 1395 430 1395 429 1371 c 128,-1,13
 428 1347 428 1347 427 1314 c 128,-1,14
 426 1281 426 1281 424.5 1234 c 128,-1,15
 423 1187 423 1187 422 1121 c 128,-1,16
 421 1055 421 1055 420 965 c 128,-1,17
 419 875 419 875 419 755 c 0,18,19
 419 683 419 683 423.5 612.5 c 128,-1,20
 428 542 428 542 441.5 478.5 c 128,-1,21
 455 415 455 415 480 361 c 128,-1,22
 505 307 505 307 544.5 267.5 c 128,-1,23
 584 228 584 228 641.5 206 c 128,-1,24
 699 184 699 184 778 184 c 0,25,26
 869 184 869 184 932 221 c 128,-1,27
 995 258 995 258 1034.5 329 c 128,-1,28
 1074 400 1074 400 1091.5 504.5 c 128,-1,29
 1109 609 1109 609 1109 744 c 0,30,31
 1109 987 1109 987 1105 1155 c 128,-1,32
 1101 1323 1101 1323 1099 1398 c 0,33,34
 1098 1413 1098 1413 1098 1429 c 128,-1,35
 1098 1445 1098 1445 1098 1448 c 0,36,37
 1098 1519 1098 1519 1129.5 1546.5 c 128,-1,38
 1161 1574 1161 1574 1214 1574 c 0,39,40
 1248 1574 1248 1574 1271.5 1564 c 128,-1,41
 1295 1554 1295 1554 1309 1538 c 128,-1,42
 1323 1522 1323 1522 1329 1502 c 128,-1,43
 1335 1482 1335 1482 1335 1463 c 0,44,45
 1335 1430 1335 1430 1332.5 1395.5 c 128,-1,46
 1330 1361 1330 1361 1330 1324 c 0,47,48
 1330 1244 1330 1244 1331 1176 c 128,-1,49
 1332 1108 1332 1108 1334 1046 c 1,50,51
 1334 974 1334 974 1336 900.5 c 128,-1,52
 1338 827 1338 827 1338 742 c 0,53,54
 1338 559 1338 559 1303.5 415.5 c 128,-1,55
 1269 272 1269 272 1198 173 c 128,-1,56
 1127 74 1127 74 1019.5 22 c 128,-1,57
 912 -30 912 -30 767 -30 c 0,58,59
 694 -30 694 -30 623 -16.5 c 128,-1,60
 552 -3 552 -3 488 30 c 128,-1,61
 424 63 424 63 369.5 119 c 128,-1,62
 315 175 315 175 275 260 c 128,-1,63
 235 345 235 345 212 462 c 128,-1,64
 189 579 189 579 189 735 c 0,0,1
EndSplineSet
EndChar

StartChar: L
Encoding: 76 76 14
Width: 1099
Flags: W
LayerCount: 2
Fore
SplineSet
198 111 m 0,0,1
 198 140 198 140 206.5 168.5 c 128,-1,2
 215 197 215 197 215 229 c 2,3,-1
 200 1423 l 1,4,5
 201 1499 201 1499 226.5 1535.5 c 128,-1,6
 252 1572 252 1572 314 1572 c 0,7,8
 348 1572 348 1572 371 1566 c 128,-1,9
 394 1560 394 1560 408 1545 c 128,-1,10
 422 1530 422 1530 427.5 1506 c 128,-1,11
 433 1482 433 1482 433 1446 c 2,12,-1
 433 1296 l 2,13,14
 433 1234 433 1234 432.5 1148.5 c 128,-1,15
 432 1063 432 1063 432 966 c 128,-1,16
 432 869 432 869 432 765.5 c 128,-1,17
 432 662 432 662 432 563.5 c 128,-1,18
 432 465 432 465 432 377 c 128,-1,19
 432 289 432 289 433 223 c 1,20,21
 550 223 550 223 630.5 223.5 c 128,-1,22
 711 224 711 224 763 226 c 0,23,24
 791 228 791 228 819 232.5 c 128,-1,25
 847 237 847 237 879 237 c 0,26,27
 945 237 945 237 979.5 207 c 128,-1,28
 1014 177 1014 177 1014 119 c 0,29,30
 1014 80 1014 80 999 56.5 c 128,-1,31
 984 33 984 33 959.5 20.5 c 128,-1,32
 935 8 935 8 904.5 4 c 128,-1,33
 874 0 874 0 843 0 c 2,34,-1
 312 0 l 2,35,36
 287 0 287 0 266 4.5 c 128,-1,37
 245 9 245 9 230 21 c 128,-1,38
 215 33 215 33 206.5 54.5 c 128,-1,39
 198 76 198 76 198 111 c 0,0,1
EndSplineSet
EndChar

StartChar: F
Encoding: 70 70 15
Width: 1317
Flags: W
LayerCount: 2
Fore
SplineSet
216 98 m 1,0,1
 214 138 214 138 217 179 c 128,-1,2
 220 220 220 220 221 265 c 1,3,-1
 198 1416 l 1,4,5
 198 1483 198 1483 221.5 1518.5 c 128,-1,6
 245 1554 245 1554 288 1554 c 0,7,8
 327 1554 327 1554 349 1552 c 128,-1,9
 371 1550 371 1550 388 1548 c 0,10,11
 398 1546 398 1546 408 1546 c 128,-1,12
 418 1546 418 1546 429 1546 c 2,13,-1
 981 1546 l 2,14,15
 1065 1546 1065 1546 1099.5 1523 c 128,-1,16
 1134 1500 1134 1500 1134 1449 c 0,17,18
 1134 1414 1134 1414 1124.5 1392 c 128,-1,19
 1115 1370 1115 1370 1096 1357 c 128,-1,20
 1077 1344 1077 1344 1048.5 1339.5 c 128,-1,21
 1020 1335 1020 1335 982 1335 c 2,22,-1
 431 1336 l 1,23,-1
 437 956 l 1,24,25
 548 956 548 956 635.5 956.5 c 128,-1,26
 723 957 723 957 791.5 958 c 128,-1,27
 860 959 860 959 911.5 960.5 c 128,-1,28
 963 962 963 962 1002 963 c 0,29,30
 1012 963 1012 963 1021 963.5 c 128,-1,31
 1030 964 1030 964 1038 964 c 0,32,33
 1055 965 1055 965 1072.5 965 c 128,-1,34
 1090 965 1090 965 1101 965 c 0,35,36
 1128 965 1128 965 1149 954.5 c 128,-1,37
 1170 944 1170 944 1184.5 927.5 c 128,-1,38
 1199 911 1199 911 1206.5 891.5 c 128,-1,39
 1214 872 1214 872 1214 855 c 0,40,41
 1214 802 1214 802 1178 776.5 c 128,-1,42
 1142 751 1142 751 1087 751 c 2,43,-1
 437 750 l 1,44,-1
 437 247 l 2,45,46
 437 227 437 227 440.5 207.5 c 128,-1,47
 444 188 444 188 448.5 168.5 c 128,-1,48
 453 149 453 149 457 129 c 128,-1,49
 461 109 461 109 461 88 c 0,50,51
 461 62 461 62 455 40.5 c 128,-1,52
 449 19 449 19 433.5 3.5 c 128,-1,53
 418 -12 418 -12 392 -20.5 c 128,-1,54
 366 -29 366 -29 326 -29 c 0,55,56
 272 -29 272 -29 244 1.5 c 128,-1,57
 216 32 216 32 216 98 c 1,0,1
EndSplineSet
EndChar

StartChar: B
Encoding: 66 66 16
Width: 1476
Flags: W
LayerCount: 2
Fore
SplineSet
200 75 m 0,0,1
 196 102 196 102 201.5 132.5 c 128,-1,2
 207 163 207 163 212 187 c 1,3,4
 214 292 214 292 214.5 400.5 c 128,-1,5
 215 509 215 509 214 637 c 128,-1,6
 213 765 213 765 212 920 c 128,-1,7
 211 1075 211 1075 211 1273 c 1,8,-1
 199 1408 l 1,9,10
 199 1450 199 1450 203 1477 c 128,-1,11
 207 1504 207 1504 219.5 1520 c 128,-1,12
 232 1536 232 1536 254.5 1542 c 128,-1,13
 277 1548 277 1548 313 1548 c 0,14,15
 363 1548 363 1548 412 1549.5 c 128,-1,16
 461 1551 461 1551 511 1553 c 0,17,18
 562 1555 562 1555 611.5 1558.5 c 128,-1,19
 661 1562 661 1562 714 1562 c 0,20,21
 749 1562 749 1562 801.5 1560 c 128,-1,22
 854 1558 854 1558 911.5 1545.5 c 128,-1,23
 969 1533 969 1533 1026.5 1507 c 128,-1,24
 1084 1481 1084 1481 1129.5 1433 c 128,-1,25
 1175 1385 1175 1385 1203.5 1311.5 c 128,-1,26
 1232 1238 1232 1238 1232 1131 c 0,27,28
 1232 1039 1232 1039 1194 962 c 128,-1,29
 1156 885 1156 885 1097 828 c 1,30,31
 1122 818 1122 818 1145 805 c 128,-1,32
 1168 792 1168 792 1186.5 778.5 c 128,-1,33
 1205 765 1205 765 1218.5 752.5 c 128,-1,34
 1232 740 1232 740 1239 732 c 0,35,36
 1282 679 1282 679 1309.5 612.5 c 128,-1,37
 1337 546 1337 546 1337 481 c 0,38,39
 1337 369 1337 369 1313.5 288.5 c 128,-1,40
 1290 208 1290 208 1247 152.5 c 128,-1,41
 1204 97 1204 97 1143 63 c 128,-1,42
 1082 29 1082 29 1006.5 10.5 c 128,-1,43
 931 -8 931 -8 842.5 -14 c 128,-1,44
 754 -20 754 -20 657 -20 c 0,45,46
 640 -20 640 -20 609 -18 c 128,-1,47
 578 -16 578 -16 541 -12.5 c 128,-1,48
 504 -9 504 -9 465 -4 c 128,-1,49
 426 1 426 1 393 7 c 1,50,51
 368 -4 368 -4 325 -4 c 0,52,53
 271 -4 271 -4 238.5 14.5 c 128,-1,54
 206 33 206 33 200 75 c 0,0,1
435 892 m 1,55,56
 472 887 472 887 510 883.5 c 128,-1,57
 548 880 548 880 578 880 c 0,58,59
 697 880 697 880 779 889 c 128,-1,60
 861 898 861 898 912 924.5 c 128,-1,61
 963 951 963 951 985.5 998 c 128,-1,62
 1008 1045 1008 1045 1008 1121 c 0,63,64
 1008 1184 1008 1184 991 1228 c 128,-1,65
 974 1272 974 1272 937.5 1299.5 c 128,-1,66
 901 1327 901 1327 844.5 1339.5 c 128,-1,67
 788 1352 788 1352 710 1352 c 0,68,69
 681 1352 681 1352 615.5 1351.5 c 128,-1,70
 550 1351 550 1351 435 1346 c 1,71,-1
 435 1344 l 2,72,73
 435 1342 435 1342 435.5 1340.5 c 128,-1,74
 436 1339 436 1339 436 1337 c 0,75,76
 438 1234 438 1234 437.5 1128 c 128,-1,77
 437 1022 437 1022 435 905 c 1,78,-1
 435 892 l 1,55,56
435 209 m 1,79,80
 459 205 459 205 484 201 c 128,-1,81
 509 197 509 197 541.5 194 c 128,-1,82
 574 191 574 191 617 189 c 128,-1,83
 660 187 660 187 719 187 c 0,84,85
 787 187 787 187 857.5 195 c 128,-1,86
 928 203 928 203 985.5 230 c 128,-1,87
 1043 257 1043 257 1079.5 308.5 c 128,-1,88
 1116 360 1116 360 1116 446 c 0,89,90
 1116 517 1116 517 1088.5 565 c 128,-1,91
 1061 613 1061 613 1020.5 642.5 c 128,-1,92
 980 672 980 672 933 684.5 c 128,-1,93
 886 697 886 697 847 697 c 0,94,95
 812 697 812 697 775.5 696 c 128,-1,96
 739 695 739 695 692 693.5 c 128,-1,97
 645 692 645 692 582.5 690.5 c 128,-1,98
 520 689 520 689 434 688 c 1,99,100
 434 568 434 568 434 490 c 128,-1,101
 434 412 434 412 434.5 359.5 c 128,-1,102
 435 307 435 307 435 273 c 128,-1,103
 435 239 435 239 435 209 c 1,79,80
EndSplineSet
EndChar

StartChar: J
Encoding: 74 74 17
Width: 1471
Flags: W
LayerCount: 2
Fore
SplineSet
126 447 m 0,0,1
 126 472 126 472 127 503.5 c 128,-1,2
 128 535 128 535 133 567 c 128,-1,3
 138 599 138 599 147.5 630 c 128,-1,4
 157 661 157 661 173.5 685 c 128,-1,5
 190 709 190 709 214.5 723.5 c 128,-1,6
 239 738 239 738 275 738 c 0,7,8
 322 738 322 738 354.5 711.5 c 128,-1,9
 387 685 387 685 387 625 c 0,10,11
 387 601 387 601 381.5 578.5 c 128,-1,12
 376 556 376 556 370 533 c 128,-1,13
 364 510 364 510 358.5 486.5 c 128,-1,14
 353 463 353 463 353 438 c 0,15,16
 353 374 353 374 380.5 327 c 128,-1,17
 408 280 408 280 453.5 248.5 c 128,-1,18
 499 217 499 217 559.5 201.5 c 128,-1,19
 620 186 620 186 686 186 c 0,20,21
 758 186 758 186 813.5 208.5 c 128,-1,22
 869 231 869 231 907 282 c 128,-1,23
 945 333 945 333 965 415.5 c 128,-1,24
 985 498 985 498 985 619 c 2,25,-1
 985 1082 l 2,26,27
 985 1162 985 1162 982.5 1213 c 128,-1,28
 980 1264 980 1264 976.5 1304 c 128,-1,29
 973 1344 973 1344 970.5 1380.5 c 128,-1,30
 968 1417 968 1417 968 1467 c 0,31,32
 968 1496 968 1496 977.5 1516.5 c 128,-1,33
 987 1537 987 1537 1004 1549.5 c 128,-1,34
 1021 1562 1021 1562 1043.5 1568 c 128,-1,35
 1066 1574 1066 1574 1092 1574 c 0,36,37
 1158 1574 1158 1574 1181 1537.5 c 128,-1,38
 1204 1501 1204 1501 1204 1433 c 0,39,40
 1204 1395 1204 1395 1203.5 1365.5 c 128,-1,41
 1203 1336 1203 1336 1202.5 1300 c 128,-1,42
 1202 1264 1202 1264 1201.5 1214.5 c 128,-1,43
 1201 1165 1201 1165 1201 1087 c 1,44,-1
 1210 575 l 1,45,46
 1210 462 1210 462 1185.5 354 c 128,-1,47
 1161 246 1161 246 1101.5 160.5 c 128,-1,48
 1042 75 1042 75 941.5 23 c 128,-1,49
 841 -29 841 -29 689 -29 c 0,50,51
 634 -29 634 -29 570.5 -20 c 128,-1,52
 507 -11 507 -11 444.5 10.5 c 128,-1,53
 382 32 382 32 324.5 67.5 c 128,-1,54
 267 103 267 103 223 156 c 128,-1,55
 179 209 179 209 152.5 281 c 128,-1,56
 126 353 126 353 126 447 c 0,0,1
EndSplineSet
EndChar

StartChar: X
Encoding: 88 88 18
Width: 1241
Flags: W
LayerCount: 2
Fore
SplineSet
49 108 m 0,0,1
 49 133 49 133 63 155 c 128,-1,2
 77 177 77 177 100 205 c 1,3,4
 240 413 240 413 336.5 563 c 128,-1,5
 433 713 433 713 498 822 c 1,6,7
 438 915 438 915 364.5 1024.5 c 128,-1,8
 291 1134 291 1134 195 1272 c 0,9,10
 173 1303 173 1303 153.5 1332 c 128,-1,11
 134 1361 134 1361 119 1385.5 c 128,-1,12
 104 1410 104 1410 95 1429.5 c 128,-1,13
 86 1449 86 1449 86 1463 c 0,14,15
 86 1486 86 1486 95 1506 c 128,-1,16
 104 1526 104 1526 119.5 1540.5 c 128,-1,17
 135 1555 135 1555 155 1563.5 c 128,-1,18
 175 1572 175 1572 198 1572 c 0,19,20
 224 1572 224 1572 244.5 1560.5 c 128,-1,21
 265 1549 265 1549 281 1529 c 1,22,23
 294 1511 294 1511 316 1478 c 128,-1,24
 338 1445 338 1445 365 1402.5 c 128,-1,25
 392 1360 392 1360 422 1312 c 128,-1,26
 452 1264 452 1264 482 1216 c 0,27,28
 524 1147 524 1147 557 1093.5 c 128,-1,29
 590 1040 590 1040 620 992 c 1,30,31
 650 1041 650 1041 682 1093.5 c 128,-1,32
 714 1146 714 1146 748.5 1203.5 c 128,-1,33
 783 1261 783 1261 820 1325 c 128,-1,34
 857 1389 857 1389 899 1462 c 1,35,36
 910 1486 910 1486 920.5 1505 c 128,-1,37
 931 1524 931 1524 944 1537.5 c 128,-1,38
 957 1551 957 1551 974.5 1558.5 c 128,-1,39
 992 1566 992 1566 1017 1566 c 256,40,41
 1042 1566 1042 1566 1064 1558 c 128,-1,42
 1086 1550 1086 1550 1102.5 1535 c 128,-1,43
 1119 1520 1119 1520 1128.5 1499 c 128,-1,44
 1138 1478 1138 1478 1138 1452 c 0,45,46
 1138 1427 1138 1427 1119 1392 c 128,-1,47
 1100 1357 1100 1357 1070 1323 c 1,48,49
 1013 1236 1013 1236 966 1165 c 128,-1,50
 919 1094 919 1094 879 1032.5 c 128,-1,51
 839 971 839 971 804 917 c 128,-1,52
 769 863 769 863 735 811 c 1,53,54
 763 766 763 766 796.5 712 c 128,-1,55
 830 658 830 658 866 601.5 c 128,-1,56
 902 545 902 545 938 489 c 128,-1,57
 974 433 974 433 1006.5 383 c 128,-1,58
 1039 333 1039 333 1066 292.5 c 128,-1,59
 1093 252 1093 252 1111 227 c 0,60,61
 1124 209 1124 209 1140 192 c 0,62,63
 1160 171 1160 171 1176 149.5 c 128,-1,64
 1192 128 1192 128 1192 97 c 0,65,66
 1192 71 1192 71 1186 48 c 128,-1,67
 1180 25 1180 25 1164 7.5 c 128,-1,68
 1148 -10 1148 -10 1120.5 -20 c 128,-1,69
 1093 -30 1093 -30 1051 -30 c 0,70,71
 1042 -30 1042 -30 1029 -23 c 128,-1,72
 1016 -16 1016 -16 1002 -2.5 c 128,-1,73
 988 11 988 11 973.5 32 c 128,-1,74
 959 53 959 53 947 80 c 1,75,-1
 947 81 l 1,76,77
 945 88 945 88 920.5 130.5 c 128,-1,78
 896 173 896 173 853 245 c 128,-1,79
 810 317 810 317 749.5 415.5 c 128,-1,80
 689 514 689 514 614 635 c 1,81,82
 591 596 591 596 563.5 548.5 c 128,-1,83
 536 501 536 501 506.5 450 c 128,-1,84
 477 399 477 399 446.5 346.5 c 128,-1,85
 416 294 416 294 388 245.5 c 128,-1,86
 360 197 360 197 335 154 c 128,-1,87
 310 111 310 111 291 80 c 1,88,89
 265 33 265 33 243 1.5 c 128,-1,90
 221 -30 221 -30 196 -30 c 256,91,92
 171 -30 171 -30 145 -22 c 128,-1,93
 119 -14 119 -14 97.5 3 c 128,-1,94
 76 20 76 20 62.5 46 c 128,-1,95
 49 72 49 72 49 108 c 0,0,1
EndSplineSet
EndChar

StartChar: Z
Encoding: 90 90 19
Width: 1354
Flags: W
LayerCount: 2
Fore
SplineSet
132 122 m 0,0,1
 132 136 132 136 139 153.5 c 128,-1,2
 146 171 146 171 157 189.5 c 128,-1,3
 168 208 168 208 181.5 225.5 c 128,-1,4
 195 243 195 243 209 257 c 1,5,6
 308 412 308 412 382 528.5 c 128,-1,7
 456 645 456 645 513 737.5 c 128,-1,8
 570 830 570 830 615 904 c 128,-1,9
 660 978 660 978 702 1047 c 128,-1,10
 744 1116 744 1116 787 1186.5 c 128,-1,11
 830 1257 830 1257 883 1342 c 1,12,-1
 287 1330 l 1,13,14
 212 1330 212 1330 177.5 1358 c 128,-1,15
 143 1386 143 1386 143 1443 c 256,16,17
 143 1500 143 1500 177 1522.5 c 128,-1,18
 211 1545 211 1545 277 1545 c 0,19,20
 406 1545 406 1545 503.5 1545 c 128,-1,21
 601 1545 601 1545 674 1545 c 128,-1,22
 747 1545 747 1545 799.5 1545 c 128,-1,23
 852 1545 852 1545 891.5 1545.5 c 128,-1,24
 931 1546 931 1546 961.5 1546 c 128,-1,25
 992 1546 992 1546 1021 1547 c 1,26,27
 1043 1565 1043 1565 1105 1565 c 0,28,29
 1136 1565 1136 1565 1157 1554.5 c 128,-1,30
 1178 1544 1178 1544 1190.5 1527.5 c 128,-1,31
 1203 1511 1203 1511 1208 1490 c 128,-1,32
 1213 1469 1213 1469 1213 1449 c 0,33,34
 1213 1435 1213 1435 1203.5 1415.5 c 128,-1,35
 1194 1396 1194 1396 1181 1376 c 128,-1,36
 1168 1356 1168 1356 1154.5 1337.5 c 128,-1,37
 1141 1319 1141 1319 1134 1309 c 0,38,39
 956 1032 956 1032 787 757 c 128,-1,40
 618 482 618 482 441 205 c 1,41,-1
 998 211 l 1,42,43
 1021 217 1021 217 1055.5 220 c 128,-1,44
 1090 223 1090 223 1113 223 c 0,45,46
 1171 223 1171 223 1204 197.5 c 128,-1,47
 1237 172 1237 172 1237 109 c 0,48,49
 1237 82 1237 82 1228 61.5 c 128,-1,50
 1219 41 1219 41 1196.5 27.5 c 128,-1,51
 1174 14 1174 14 1135.5 7 c 128,-1,52
 1097 0 1097 0 1039 0 c 2,53,-1
 277 0 l 2,54,55
 235 0 235 0 207.5 8.5 c 128,-1,56
 180 17 180 17 163 33 c 128,-1,57
 146 49 146 49 139 71.5 c 128,-1,58
 132 94 132 94 132 122 c 0,0,1
EndSplineSet
EndChar

StartChar: one
Encoding: 49 49 20
Width: 1021
Flags: W
LayerCount: 2
Fore
SplineSet
443 88 m 0,0,1
 443 136 443 136 449.5 185 c 128,-1,2
 456 234 456 234 456 294 c 0,3,4
 456 359 456 359 456 424 c 128,-1,5
 456 489 456 489 456 560 c 128,-1,6
 456 631 456 631 455.5 710.5 c 128,-1,7
 455 790 455 790 454.5 885 c 128,-1,8
 454 980 454 980 453.5 1093 c 128,-1,9
 453 1206 453 1206 452 1343 c 1,10,11
 428 1331 428 1331 402 1313.5 c 128,-1,12
 376 1296 376 1296 348.5 1279.5 c 128,-1,13
 321 1263 321 1263 292.5 1251.5 c 128,-1,14
 264 1240 264 1240 236 1240 c 0,15,16
 185 1240 185 1240 154 1271 c 128,-1,17
 123 1302 123 1302 123 1351 c 0,18,19
 123 1420 123 1420 203 1460 c 0,20,21
 252 1485 252 1485 299 1512 c 128,-1,22
 346 1539 346 1539 384 1562 c 0,23,24
 444 1599 444 1599 490.5 1621 c 128,-1,25
 537 1643 537 1643 573 1643 c 0,26,27
 602 1643 602 1643 623.5 1631 c 128,-1,28
 645 1619 645 1619 659.5 1600 c 128,-1,29
 674 1581 674 1581 681 1558.5 c 128,-1,30
 688 1536 688 1536 688 1514 c 0,31,32
 688 1500 688 1500 683.5 1487.5 c 128,-1,33
 679 1475 679 1475 679 1461 c 0,34,35
 677 1376 677 1376 676.5 1262 c 128,-1,36
 676 1148 676 1148 676 1026 c 0,37,38
 676 959 676 959 675 878 c 128,-1,39
 674 797 674 797 673.5 711 c 128,-1,40
 673 625 673 625 673 539 c 128,-1,41
 673 453 673 453 674.5 377 c 128,-1,42
 676 301 676 301 679.5 239.5 c 128,-1,43
 683 178 683 178 690 141 c 0,44,45
 692 127 692 127 694 114.5 c 128,-1,46
 696 102 696 102 696 88 c 0,47,48
 696 66 696 66 691 46.5 c 128,-1,49
 686 27 686 27 672.5 12 c 128,-1,50
 659 -3 659 -3 636 -11.5 c 128,-1,51
 613 -20 613 -20 578 -20 c 0,52,53
 539 -20 539 -20 513 -13 c 128,-1,54
 487 -6 487 -6 471.5 8 c 128,-1,55
 456 22 456 22 449.5 42 c 128,-1,56
 443 62 443 62 443 88 c 0,0,1
EndSplineSet
EndChar

StartChar: dollar
Encoding: 36 36 21
Width: 1398
Flags: W
LayerCount: 2
Fore
SplineSet
225 325 m 0,0,1
 225 370 225 370 227 416 c 128,-1,2
 229 462 229 462 242 499.5 c 128,-1,3
 255 537 255 537 282.5 560.5 c 128,-1,4
 310 584 310 584 360 584 c 0,5,6
 406 584 406 584 437 556 c 128,-1,7
 468 528 468 528 468 481 c 0,8,9
 468 457 468 457 465 436.5 c 128,-1,10
 462 416 462 416 458 396 c 0,11,12
 454 377 454 377 451 360 c 128,-1,13
 448 343 448 343 448 326 c 0,14,15
 448 282 448 282 473 252.5 c 128,-1,16
 498 223 498 223 537 204.5 c 128,-1,17
 576 186 576 186 624 178 c 128,-1,18
 672 170 672 170 719 170 c 0,19,20
 772 170 772 170 823.5 181 c 128,-1,21
 875 192 875 192 915.5 217.5 c 128,-1,22
 956 243 956 243 981 286 c 128,-1,23
 1006 329 1006 329 1006 392 c 0,24,25
 1006 457 1006 457 976.5 504.5 c 128,-1,26
 947 552 947 552 901 587.5 c 128,-1,27
 855 623 855 623 798.5 649 c 128,-1,28
 742 675 742 675 689 696 c 0,29,30
 643 715 643 715 595.5 736 c 128,-1,31
 548 757 548 757 503.5 784 c 128,-1,32
 459 811 459 811 420.5 846 c 128,-1,33
 382 881 382 881 353 926 c 128,-1,34
 324 971 324 971 307.5 1029 c 128,-1,35
 291 1087 291 1087 291 1161 c 0,36,37
 291 1234 291 1234 319.5 1295 c 128,-1,38
 348 1356 348 1356 395.5 1403 c 128,-1,39
 443 1450 443 1450 505 1482 c 128,-1,40
 567 1514 567 1514 634 1530 c 1,41,-1
 634 1618 l 2,42,43
 634 1650 634 1650 638 1676.5 c 128,-1,44
 642 1703 642 1703 653.5 1722 c 128,-1,45
 665 1741 665 1741 686 1751.5 c 128,-1,46
 707 1762 707 1762 742 1762 c 0,47,48
 765 1762 765 1762 784.5 1758 c 128,-1,49
 804 1754 804 1754 817.5 1744.5 c 128,-1,50
 831 1735 831 1735 838.5 1718 c 128,-1,51
 846 1701 846 1701 846 1675 c 0,52,53
 846 1648 846 1648 846 1610.5 c 128,-1,54
 846 1573 846 1573 845 1538 c 1,55,56
 903 1529 903 1529 965 1507.5 c 128,-1,57
 1027 1486 1027 1486 1078.5 1450.5 c 128,-1,58
 1130 1415 1130 1415 1163 1364.5 c 128,-1,59
 1196 1314 1196 1314 1196 1246 c 0,60,61
 1196 1219 1196 1219 1187 1197.5 c 128,-1,62
 1178 1176 1178 1176 1163 1162 c 128,-1,63
 1148 1148 1148 1148 1128.5 1140.5 c 128,-1,64
 1109 1133 1109 1133 1088 1133 c 0,65,66
 1068 1133 1068 1133 1047.5 1141 c 128,-1,67
 1027 1149 1027 1149 1010 1162.5 c 128,-1,68
 993 1176 993 1176 981.5 1195 c 128,-1,69
 970 1214 970 1214 968 1237 c 1,70,71
 953 1267 953 1267 928.5 1285 c 128,-1,72
 904 1303 904 1303 874 1312.5 c 128,-1,73
 844 1322 844 1322 811 1325 c 128,-1,74
 778 1328 778 1328 747 1328 c 0,75,76
 714 1328 714 1328 673.5 1317.5 c 128,-1,77
 633 1307 633 1307 597.5 1285.5 c 128,-1,78
 562 1264 562 1264 538.5 1231 c 128,-1,79
 515 1198 515 1198 515 1154 c 0,80,81
 515 1100 515 1100 540.5 1058.5 c 128,-1,82
 566 1017 566 1017 607.5 984 c 128,-1,83
 649 951 649 951 703 923.5 c 128,-1,84
 757 896 757 896 814 870 c 0,85,86
 861 849 861 849 910.5 824.5 c 128,-1,87
 960 800 960 800 1006.5 770.5 c 128,-1,88
 1053 741 1053 741 1093.5 704.5 c 128,-1,89
 1134 668 1134 668 1164.5 622 c 128,-1,90
 1195 576 1195 576 1212.5 519.5 c 128,-1,91
 1230 463 1230 463 1230 393 c 0,92,93
 1230 298 1230 298 1196.5 224 c 128,-1,94
 1163 150 1163 150 1107 96.5 c 128,-1,95
 1051 43 1051 43 978.5 9.5 c 128,-1,96
 906 -24 906 -24 827 -37 c 1,97,-1
 827 -161 l 2,98,99
 827 -193 827 -193 823 -220 c 128,-1,100
 819 -247 819 -247 807.5 -266.5 c 128,-1,101
 796 -286 796 -286 774.5 -296.5 c 128,-1,102
 753 -307 753 -307 719 -307 c 0,103,104
 671 -307 671 -307 642 -289 c 128,-1,105
 613 -271 613 -271 613 -219 c 0,106,107
 613 -204 613 -204 613 -182.5 c 128,-1,108
 613 -161 613 -161 613 -137 c 128,-1,109
 613 -113 613 -113 613.5 -87.5 c 128,-1,110
 614 -62 614 -62 615 -39 c 1,111,112
 539 -28 539 -28 468.5 -0.5 c 128,-1,113
 398 27 398 27 344 72 c 128,-1,114
 290 117 290 117 257.5 180 c 128,-1,115
 225 243 225 243 225 325 c 0,0,1
EndSplineSet
EndChar

StartChar: Y
Encoding: 89 89 22
Width: 1226
Flags: W
LayerCount: 2
Fore
SplineSet
500 69 m 0,0,1
 500 105 500 105 501 133.5 c 128,-1,2
 502 162 502 162 503.5 192.5 c 128,-1,3
 505 223 505 223 506.5 260 c 128,-1,4
 508 297 508 297 508.5 351 c 128,-1,5
 509 405 509 405 508.5 481 c 128,-1,6
 508 557 508 557 506 665 c 1,7,8
 433 788 433 788 373 885.5 c 128,-1,9
 313 983 313 983 262 1063 c 128,-1,10
 211 1143 211 1143 166.5 1209.5 c 128,-1,11
 122 1276 122 1276 80 1336 c 0,12,13
 54 1374 54 1374 37 1404 c 128,-1,14
 20 1434 20 1434 20 1458 c 0,15,16
 20 1515 20 1515 54.5 1544 c 128,-1,17
 89 1573 89 1573 145 1573 c 0,18,19
 167 1573 167 1573 185.5 1560 c 128,-1,20
 204 1547 204 1547 219.5 1526.5 c 128,-1,21
 235 1506 235 1506 248 1480.5 c 128,-1,22
 261 1455 261 1455 271 1430 c 1,23,24
 304 1364 304 1364 342 1302 c 128,-1,25
 380 1240 380 1240 420.5 1179.5 c 128,-1,26
 461 1119 461 1119 503 1057.5 c 128,-1,27
 545 996 545 996 585 932 c 1,28,-1
 617 879 l 1,29,-1
 648 932 l 1,30,31
 760 1105 760 1105 841.5 1236 c 128,-1,32
 923 1367 923 1367 963 1444 c 1,33,-1
 962 1444 l 1,34,35
 972 1470 972 1470 983 1493.5 c 128,-1,36
 994 1517 994 1517 1008 1534.5 c 128,-1,37
 1022 1552 1022 1552 1040 1562.5 c 128,-1,38
 1058 1573 1058 1573 1083 1573 c 0,39,40
 1105 1573 1105 1573 1127 1568.5 c 128,-1,41
 1149 1564 1149 1564 1166.5 1551 c 128,-1,42
 1184 1538 1184 1538 1195 1515.5 c 128,-1,43
 1206 1493 1206 1493 1206 1457 c 0,44,45
 1206 1439 1206 1439 1196 1407.5 c 128,-1,46
 1186 1376 1186 1376 1150 1342 c 1,47,48
 1089 1247 1089 1247 1028 1152.5 c 128,-1,49
 967 1058 967 1058 911.5 970.5 c 128,-1,50
 856 883 856 883 808 804.5 c 128,-1,51
 760 726 760 726 726 663 c 1,52,53
 720 605 720 605 720.5 534 c 128,-1,54
 721 463 721 463 724.5 385.5 c 128,-1,55
 728 308 728 308 732 228 c 128,-1,56
 736 148 736 148 736 73 c 0,57,58
 736 53 736 53 730.5 34 c 128,-1,59
 725 15 725 15 712 1 c 128,-1,60
 699 -13 699 -13 676 -21.5 c 128,-1,61
 653 -30 653 -30 619 -30 c 0,62,63
 592 -30 592 -30 570.5 -22 c 128,-1,64
 549 -14 549 -14 533 -0.5 c 128,-1,65
 517 13 517 13 508.5 31 c 128,-1,66
 500 49 500 49 500 69 c 0,0,1
EndSplineSet
EndChar

StartChar: V
Encoding: 86 86 23
Width: 1344
Flags: W
LayerCount: 2
Fore
SplineSet
557 72 m 0,0,1
 520 175 520 175 477 290 c 128,-1,2
 434 405 434 405 389 521 c 128,-1,3
 344 637 344 637 300.5 747.5 c 128,-1,4
 257 858 257 858 220 951 c 0,5,6
 185 1038 185 1038 153.5 1117.5 c 128,-1,7
 122 1197 122 1197 97.5 1262 c 128,-1,8
 73 1327 73 1327 56 1374 c 128,-1,9
 39 1421 39 1421 34 1444 c 0,10,11
 27 1471 27 1471 33.5 1494 c 128,-1,12
 40 1517 40 1517 55.5 1534.5 c 128,-1,13
 71 1552 71 1552 93.5 1561.5 c 128,-1,14
 116 1571 116 1571 143 1571 c 0,15,16
 215 1571 215 1571 243 1507 c 1,17,18
 257 1472 257 1472 284.5 1403 c 128,-1,19
 312 1334 312 1334 347.5 1242 c 128,-1,20
 383 1150 383 1150 425 1041.5 c 128,-1,21
 467 933 467 933 510.5 820 c 128,-1,22
 554 707 554 707 596 594.5 c 128,-1,23
 638 482 638 482 675 383 c 1,24,25
 714 485 714 485 753.5 589.5 c 128,-1,26
 793 694 793 694 831 795 c 128,-1,27
 869 896 869 896 904 990 c 128,-1,28
 939 1084 939 1084 968.5 1165.5 c 128,-1,29
 998 1247 998 1247 1022 1313 c 128,-1,30
 1046 1379 1046 1379 1061 1424 c 1,31,32
 1062 1446 1062 1446 1071 1472 c 128,-1,33
 1080 1498 1080 1498 1096.5 1520.5 c 128,-1,34
 1113 1543 1113 1543 1137 1558.5 c 128,-1,35
 1161 1574 1161 1574 1193 1574 c 0,36,37
 1216 1574 1216 1574 1238 1565 c 128,-1,38
 1260 1556 1260 1556 1277 1540.5 c 128,-1,39
 1294 1525 1294 1525 1304.5 1503 c 128,-1,40
 1315 1481 1315 1481 1315 1456 c 0,41,42
 1315 1435 1315 1435 1309 1414 c 128,-1,43
 1303 1393 1303 1393 1294.5 1373.5 c 128,-1,44
 1286 1354 1286 1354 1276.5 1337.5 c 128,-1,45
 1267 1321 1267 1321 1260 1310 c 1,46,-1
 1259 1308 l 1,47,48
 1212 1200 1212 1200 1173 1105 c 128,-1,49
 1134 1010 1134 1010 1099 921 c 128,-1,50
 1064 832 1064 832 1032.5 747.5 c 128,-1,51
 1001 663 1001 663 969 576 c 0,52,53
 932 475 932 475 886.5 355.5 c 128,-1,54
 841 236 841 236 789 103 c 1,55,56
 791 95 791 95 792 86 c 128,-1,57
 793 77 793 77 793 69 c 0,58,59
 793 38 793 38 782.5 19 c 128,-1,60
 772 0 772 0 754.5 -11 c 128,-1,61
 737 -22 737 -22 714 -26 c 128,-1,62
 691 -30 691 -30 667 -30 c 0,63,64
 638 -30 638 -30 619.5 -21 c 128,-1,65
 601 -12 601 -12 589 3 c 128,-1,66
 577 18 577 18 570 36 c 128,-1,67
 563 54 563 54 557 72 c 0,0,1
EndSplineSet
EndChar

StartChar: C
Encoding: 67 67 24
Width: 1495
Flags: W
LayerCount: 2
Fore
SplineSet
109 756 m 0,0,1
 109 900 109 900 140.5 1016.5 c 128,-1,2
 172 1133 172 1133 227 1224 c 128,-1,3
 282 1315 282 1315 356 1381 c 128,-1,4
 430 1447 430 1447 516 1490 c 128,-1,5
 602 1533 602 1533 695.5 1553.5 c 128,-1,6
 789 1574 789 1574 882 1574 c 0,7,8
 967 1574 967 1574 1049 1558.5 c 128,-1,9
 1131 1543 1131 1543 1211 1515 c 0,10,11
 1235 1506 1235 1506 1259.5 1497.5 c 128,-1,12
 1284 1489 1284 1489 1303.5 1476 c 128,-1,13
 1323 1463 1323 1463 1335 1443 c 128,-1,14
 1347 1423 1347 1423 1347 1392 c 0,15,16
 1347 1356 1347 1356 1335.5 1332.5 c 128,-1,17
 1324 1309 1324 1309 1306 1295 c 128,-1,18
 1288 1281 1288 1281 1266.5 1275 c 128,-1,19
 1245 1269 1245 1269 1225 1269 c 0,20,21
 1211 1269 1211 1269 1195 1273.5 c 128,-1,22
 1179 1278 1179 1278 1162 1285 c 128,-1,23
 1145 1292 1145 1292 1129 1301.5 c 128,-1,24
 1113 1311 1113 1311 1100 1320 c 1,25,26
 1064 1335 1064 1335 1032.5 1342.5 c 128,-1,27
 1001 1350 1001 1350 972 1353.5 c 128,-1,28
 943 1357 943 1357 915 1357.5 c 128,-1,29
 887 1358 887 1358 859 1358 c 0,30,31
 796 1358 796 1358 733 1343.5 c 128,-1,32
 670 1329 670 1329 611.5 1298.5 c 128,-1,33
 553 1268 553 1268 502 1222 c 128,-1,34
 451 1176 451 1176 413.5 1112.5 c 128,-1,35
 376 1049 376 1049 354.5 968 c 128,-1,36
 333 887 333 887 333 787 c 0,37,38
 333 621 333 621 380.5 506.5 c 128,-1,39
 428 392 428 392 504.5 321 c 128,-1,40
 581 250 581 250 677 218.5 c 128,-1,41
 773 187 773 187 871 187 c 0,42,43
 916 187 916 187 959.5 192.5 c 128,-1,44
 1003 198 1003 198 1040.5 206.5 c 128,-1,45
 1078 215 1078 215 1107 225.5 c 128,-1,46
 1136 236 1136 236 1151 247 c 1,47,48
 1181 273 1181 273 1204 286.5 c 128,-1,49
 1227 300 1227 300 1257 300 c 0,50,51
 1280 300 1280 300 1300.5 295 c 128,-1,52
 1321 290 1321 290 1336 277.5 c 128,-1,53
 1351 265 1351 265 1360 245 c 128,-1,54
 1369 225 1369 225 1369 195 c 0,55,56
 1369 153 1369 153 1340.5 118.5 c 128,-1,57
 1312 84 1312 84 1249 54 c 1,58,-1
 1249 55 l 1,59,60
 1228 43 1228 43 1187.5 28 c 128,-1,61
 1147 13 1147 13 1096.5 0.5 c 128,-1,62
 1046 -12 1046 -12 990 -20.5 c 128,-1,63
 934 -29 934 -29 880 -29 c 0,64,65
 757 -29 757 -29 652.5 0.5 c 128,-1,66
 548 30 548 30 462.5 82.5 c 128,-1,67
 377 135 377 135 311 208 c 128,-1,68
 245 281 245 281 200 368 c 128,-1,69
 155 455 155 455 132 553.5 c 128,-1,70
 109 652 109 652 109 756 c 0,0,1
EndSplineSet
EndChar

StartChar: G
Encoding: 71 71 25
Width: 1681
Flags: W
LayerCount: 2
Fore
SplineSet
148 756 m 0,0,1
 148 961 148 961 207 1114 c 128,-1,2
 266 1267 266 1267 370 1369 c 128,-1,3
 474 1471 474 1471 616 1522 c 128,-1,4
 758 1573 758 1573 925 1573 c 0,5,6
 968 1573 968 1573 1022 1571.5 c 128,-1,7
 1076 1570 1076 1570 1132.5 1564 c 128,-1,8
 1189 1558 1189 1558 1244 1547 c 128,-1,9
 1299 1536 1299 1536 1346 1518 c 0,10,11
 1383 1504 1383 1504 1408 1478 c 128,-1,12
 1433 1452 1433 1452 1433 1403 c 0,13,14
 1433 1346 1433 1346 1404.5 1311.5 c 128,-1,15
 1376 1277 1376 1277 1338 1277 c 0,16,17
 1330 1277 1330 1277 1317 1279 c 128,-1,18
 1304 1281 1304 1281 1295 1286 c 0,19,20
 1256 1307 1256 1307 1200.5 1320 c 128,-1,21
 1145 1333 1145 1333 1086 1341 c 128,-1,22
 1027 1349 1027 1349 971 1352 c 128,-1,23
 915 1355 915 1355 875 1355 c 0,24,25
 820 1355 820 1355 762 1341.5 c 128,-1,26
 704 1328 704 1328 648.5 1299 c 128,-1,27
 593 1270 593 1270 543.5 1225 c 128,-1,28
 494 1180 494 1180 457 1118 c 128,-1,29
 420 1056 420 1056 398 975.5 c 128,-1,30
 376 895 376 895 376 795 c 0,31,32
 376 678 376 678 403.5 588 c 128,-1,33
 431 498 431 498 479 431.5 c 128,-1,34
 527 365 527 365 592 319.5 c 128,-1,35
 657 274 657 274 732.5 246 c 128,-1,36
 808 218 808 218 890 206 c 128,-1,37
 972 194 972 194 1054 194 c 0,38,39
 1090 194 1090 194 1135.5 195.5 c 128,-1,40
 1181 197 1181 197 1226 205 c 1,41,42
 1226 303 1226 303 1225.5 372 c 128,-1,43
 1225 441 1225 441 1224 495 c 128,-1,44
 1223 549 1223 549 1221.5 594 c 128,-1,45
 1220 639 1220 639 1218 690 c 1,46,47
 1218 726 1218 726 1213 762.5 c 128,-1,48
 1208 799 1208 799 1208 841 c 0,49,50
 1208 856 1208 856 1214.5 873.5 c 128,-1,51
 1221 891 1221 891 1235.5 906.5 c 128,-1,52
 1250 922 1250 922 1274 932.5 c 128,-1,53
 1298 943 1298 943 1334 943 c 0,54,55
 1393 943 1393 943 1425.5 915.5 c 128,-1,56
 1458 888 1458 888 1458 841 c 0,57,58
 1458 821 1458 821 1457 802.5 c 128,-1,59
 1456 784 1456 784 1456 763 c 0,60,61
 1455 731 1455 731 1453.5 685.5 c 128,-1,62
 1452 640 1452 640 1451 569.5 c 128,-1,63
 1450 499 1450 499 1449 398.5 c 128,-1,64
 1448 298 1448 298 1448 158 c 1,65,66
 1447 101 1447 101 1433 69 c 128,-1,67
 1419 37 1419 37 1395 21.5 c 128,-1,68
 1371 6 1371 6 1339.5 3 c 128,-1,69
 1308 0 1308 0 1274 0 c 0,70,71
 1245 0 1245 0 1213 -3 c 128,-1,72
 1181 -6 1181 -6 1148 -10 c 128,-1,73
 1115 -14 1115 -14 1083.5 -17 c 128,-1,74
 1052 -20 1052 -20 1024 -20 c 0,75,76
 811 -20 811 -20 647.5 43 c 128,-1,77
 484 106 484 106 373 212.5 c 128,-1,78
 262 319 262 319 205 459.5 c 128,-1,79
 148 600 148 600 148 756 c 0,0,1
EndSplineSet
EndChar

StartChar: K
Encoding: 75 75 26
Width: 1415
Flags: W
LayerCount: 2
Fore
SplineSet
203 93 m 0,0,1
 203 433 203 433 201.5 769 c 128,-1,2
 200 1105 200 1105 198 1446 c 0,3,4
 198 1515 198 1515 227.5 1544.5 c 128,-1,5
 257 1574 257 1574 319 1574 c 0,6,7
 342 1574 342 1574 363 1567 c 128,-1,8
 384 1560 384 1560 400 1546.5 c 128,-1,9
 416 1533 416 1533 425.5 1514 c 128,-1,10
 435 1495 435 1495 435 1471 c 0,11,12
 435 1328 435 1328 434.5 1199 c 128,-1,13
 434 1070 434 1070 433 939 c 1,14,-1
 966 1443 l 1,15,16
 977 1459 977 1459 1000.5 1481.5 c 128,-1,17
 1024 1504 1024 1504 1051.5 1524.5 c 128,-1,18
 1079 1545 1079 1545 1106.5 1559.5 c 128,-1,19
 1134 1574 1134 1574 1155 1574 c 0,20,21
 1178 1574 1178 1574 1199 1568 c 128,-1,22
 1220 1562 1220 1562 1235.5 1549 c 128,-1,23
 1251 1536 1251 1536 1260.5 1515 c 128,-1,24
 1270 1494 1270 1494 1270 1465 c 0,25,26
 1270 1434 1270 1434 1260.5 1411.5 c 128,-1,27
 1251 1389 1251 1389 1235 1371.5 c 128,-1,28
 1219 1354 1219 1354 1199.5 1340.5 c 128,-1,29
 1180 1327 1180 1327 1159 1315 c 1,30,31
 1016 1188 1016 1188 870 1066.5 c 128,-1,32
 724 945 724 945 574 818 c 1,33,34
 640 800 640 800 703.5 757.5 c 128,-1,35
 767 715 767 715 825 659.5 c 128,-1,36
 883 604 883 604 932.5 541 c 128,-1,37
 982 478 982 478 1020 419 c 0,38,39
 1049 374 1049 374 1077.5 332 c 128,-1,40
 1106 290 1106 290 1133.5 258.5 c 128,-1,41
 1161 227 1161 227 1187.5 208 c 128,-1,42
 1214 189 1214 189 1240 189 c 0,43,44
 1261 189 1261 189 1287 187.5 c 128,-1,45
 1313 186 1313 186 1336 176.5 c 128,-1,46
 1359 167 1359 167 1374.5 147 c 128,-1,47
 1390 127 1390 127 1390 90 c 0,48,49
 1390 49 1390 49 1373 25 c 128,-1,50
 1356 1 1356 1 1330 -11 c 128,-1,51
 1304 -23 1304 -23 1271.5 -26 c 128,-1,52
 1239 -29 1239 -29 1208 -29 c 0,53,54
 1151 -29 1151 -29 1099.5 0.5 c 128,-1,55
 1048 30 1048 30 1001.5 78.5 c 128,-1,56
 955 127 955 127 912 188 c 128,-1,57
 869 249 869 249 827 312 c 0,58,59
 789 369 789 369 744.5 427.5 c 128,-1,60
 700 486 700 486 649.5 535.5 c 128,-1,61
 599 585 599 585 544 622 c 128,-1,62
 489 659 489 659 432 674 c 1,63,-1
 432 562 l 2,64,65
 432 450 432 450 432.5 347 c 128,-1,66
 433 244 433 244 434 163 c 1,67,68
 437 135 437 135 438 113.5 c 128,-1,69
 439 92 439 92 440 72 c 1,70,71
 440 20 440 20 406.5 -4.5 c 128,-1,72
 373 -29 373 -29 314 -29 c 0,73,74
 301 -29 301 -29 282 -24.5 c 128,-1,75
 263 -20 263 -20 245.5 -6.5 c 128,-1,76
 228 7 228 7 215.5 31 c 128,-1,77
 203 55 203 55 203 93 c 0,0,1
EndSplineSet
EndChar

StartChar: a
Encoding: 97 97 27
Width: 1594
Flags: W
LayerCount: 2
Fore
SplineSet
114 600 m 0,0,1
 114 736 114 736 160 853 c 128,-1,2
 206 970 206 970 286.5 1056 c 128,-1,3
 367 1142 367 1142 475.5 1191 c 128,-1,4
 584 1240 584 1240 710 1240 c 0,5,6
 774 1240 774 1240 832.5 1225 c 128,-1,7
 891 1210 891 1210 941.5 1185.5 c 128,-1,8
 992 1161 992 1161 1032.5 1130 c 128,-1,9
 1073 1099 1073 1099 1102 1066 c 1,10,11
 1101 1080 1101 1080 1101 1096 c 128,-1,12
 1101 1112 1101 1112 1101 1124 c 0,13,14
 1101 1149 1101 1149 1108 1170.5 c 128,-1,15
 1115 1192 1115 1192 1130 1208 c 128,-1,16
 1145 1224 1145 1224 1168 1233.5 c 128,-1,17
 1191 1243 1191 1243 1224 1243 c 0,18,19
 1252 1243 1252 1243 1274.5 1232.5 c 128,-1,20
 1297 1222 1297 1222 1313 1206.5 c 128,-1,21
 1329 1191 1329 1191 1338 1173.5 c 128,-1,22
 1347 1156 1347 1156 1347 1142 c 0,23,24
 1347 1108 1347 1108 1343.5 1073.5 c 128,-1,25
 1340 1039 1340 1039 1338 1004 c 1,26,27
 1338 894 1338 894 1336.5 809.5 c 128,-1,28
 1335 725 1335 725 1333 654 c 0,29,30
 1331 606 1331 606 1330 554.5 c 128,-1,31
 1329 503 1329 503 1329 460 c 0,32,33
 1329 363 1329 363 1329 306 c 128,-1,34
 1329 249 1329 249 1334 223 c 1,35,36
 1343 225 1343 225 1360.5 232 c 128,-1,37
 1378 239 1378 239 1393 247 c 1,38,39
 1407 252 1407 252 1421 257 c 128,-1,40
 1435 262 1435 262 1456 262 c 0,41,42
 1480 262 1480 262 1498 251.5 c 128,-1,43
 1516 241 1516 241 1528.5 224.5 c 128,-1,44
 1541 208 1541 208 1547 187.5 c 128,-1,45
 1553 167 1553 167 1553 148 c 0,46,47
 1553 121 1553 121 1540 93.5 c 128,-1,48
 1527 66 1527 66 1492 54 c 0,49,50
 1462 43 1462 43 1431 31 c 128,-1,51
 1400 19 1400 19 1368.5 9 c 128,-1,52
 1337 -1 1337 -1 1305.5 -8 c 128,-1,53
 1274 -15 1274 -15 1241 -15 c 0,54,55
 1202 -15 1202 -15 1177 1 c 128,-1,56
 1152 17 1152 17 1138 42.5 c 128,-1,57
 1124 68 1124 68 1118 99 c 128,-1,58
 1112 130 1112 130 1111 160 c 1,59,60
 1080 121 1080 121 1036 87 c 128,-1,61
 992 53 992 53 939 27 c 128,-1,62
 886 1 886 1 825.5 -14 c 128,-1,63
 765 -29 765 -29 701 -29 c 0,64,65
 571 -29 571 -29 463 18.5 c 128,-1,66
 355 66 355 66 277.5 150.5 c 128,-1,67
 200 235 200 235 157 350 c 128,-1,68
 114 465 114 465 114 600 c 0,0,1
344 600 m 0,69,70
 344 519 344 519 368.5 444 c 128,-1,71
 393 369 393 369 439.5 311.5 c 128,-1,72
 486 254 486 254 554 220 c 128,-1,73
 622 186 622 186 708 186 c 0,74,75
 793 186 793 186 862 219 c 128,-1,76
 931 252 931 252 982.5 305 c 128,-1,77
 1034 358 1034 358 1067 423.5 c 128,-1,78
 1100 489 1100 489 1112 555 c 1,79,-1
 1112 643 l 1,80,81
 1101 704 1101 704 1070.5 772 c 128,-1,82
 1040 840 1040 840 990.5 897.5 c 128,-1,83
 941 955 941 955 872 992.5 c 128,-1,84
 803 1030 803 1030 716 1030 c 0,85,86
 634 1030 634 1030 566 996.5 c 128,-1,87
 498 963 498 963 448.5 904.5 c 128,-1,88
 399 846 399 846 371.5 768 c 128,-1,89
 344 690 344 690 344 600 c 0,69,70
EndSplineSet
EndChar

StartChar: d
Encoding: 100 100 28
Width: 1578
Flags: W
LayerCount: 2
Fore
SplineSet
119 600 m 0,0,1
 119 736 119 736 164.5 851.5 c 128,-1,2
 210 967 210 967 290.5 1051.5 c 128,-1,3
 371 1136 371 1136 481 1184 c 128,-1,4
 591 1232 591 1232 720 1232 c 0,5,6
 778 1232 778 1232 835 1220.5 c 128,-1,7
 892 1209 892 1209 943.5 1186.5 c 128,-1,8
 995 1164 995 1164 1039 1131 c 128,-1,9
 1083 1098 1083 1098 1116 1055 c 1,10,11
 1116 1081 1116 1081 1116 1129 c 128,-1,12
 1116 1177 1116 1177 1115.5 1243 c 128,-1,13
 1115 1309 1115 1309 1114 1390 c 128,-1,14
 1113 1471 1113 1471 1112 1562 c 1,15,-1
 1027 1562 l 2,16,17
 1004 1562 1004 1562 982 1557 c 128,-1,18
 960 1552 960 1552 935 1552 c 0,19,20
 917 1552 917 1552 898.5 1560.5 c 128,-1,21
 880 1569 880 1569 865.5 1584.5 c 128,-1,22
 851 1600 851 1600 841.5 1622.5 c 128,-1,23
 832 1645 832 1645 832 1674 c 0,24,25
 832 1726 832 1726 859 1754 c 128,-1,26
 886 1782 886 1782 927 1782 c 0,27,28
 937 1782 937 1782 951 1781.5 c 128,-1,29
 965 1781 965 1781 983 1776 c 1,30,31
 1049 1775 1049 1775 1116 1777.5 c 128,-1,32
 1183 1780 1183 1780 1260 1781 c 0,33,34
 1302 1781 1302 1781 1326 1752 c 128,-1,35
 1350 1723 1350 1723 1350 1675 c 0,36,37
 1350 1641 1350 1641 1341 1622 c 1,38,39
 1339 1557 1339 1557 1338 1461.5 c 128,-1,40
 1337 1366 1337 1366 1336 1258 c 128,-1,41
 1335 1150 1335 1150 1334.5 1038 c 128,-1,42
 1334 926 1334 926 1333.5 828.5 c 128,-1,43
 1333 731 1333 731 1333 656 c 128,-1,44
 1333 581 1333 581 1333 547 c 0,45,46
 1333 449 1333 449 1334.5 370.5 c 128,-1,47
 1336 292 1336 292 1340 247 c 1,48,-1
 1358 258 l 2,49,50
 1379 270 1379 270 1398.5 279 c 128,-1,51
 1418 288 1418 288 1441 290 c 0,52,53
 1458 292 1458 292 1476 286.5 c 128,-1,54
 1494 281 1494 281 1509 268.5 c 128,-1,55
 1524 256 1524 256 1534 235 c 128,-1,56
 1544 214 1544 214 1544 184 c 0,57,58
 1544 142 1544 142 1521.5 116.5 c 128,-1,59
 1499 91 1499 91 1475 81 c 0,60,61
 1451 70 1451 70 1429 58.5 c 128,-1,62
 1407 47 1407 47 1384 35 c 0,63,64
 1350 17 1350 17 1318.5 1 c 128,-1,65
 1287 -15 1287 -15 1263 -15 c 0,66,67
 1215 -15 1215 -15 1185.5 30.5 c 128,-1,68
 1156 76 1156 76 1141 152 c 1,69,70
 1101 111 1101 111 1050 78 c 128,-1,71
 999 45 999 45 941 21 c 128,-1,72
 883 -3 883 -3 819.5 -16 c 128,-1,73
 756 -29 756 -29 692 -29 c 0,74,75
 562 -29 562 -29 456.5 20 c 128,-1,76
 351 69 351 69 276 154 c 128,-1,77
 201 239 201 239 160 353.5 c 128,-1,78
 119 468 119 468 119 600 c 0,0,1
342 600 m 0,79,80
 342 521 342 521 367 446.5 c 128,-1,81
 392 372 392 372 439.5 314 c 128,-1,82
 487 256 487 256 555 221 c 128,-1,83
 623 186 623 186 709 186 c 0,84,85
 775 186 775 186 841 207.5 c 128,-1,86
 907 229 907 229 962.5 268.5 c 128,-1,87
 1018 308 1018 308 1059 364.5 c 128,-1,88
 1100 421 1100 421 1115 492 c 1,89,90
 1115 533 1115 533 1115 559 c 128,-1,91
 1115 585 1115 585 1114.5 603.5 c 128,-1,92
 1114 622 1114 622 1114 637.5 c 128,-1,93
 1114 653 1114 653 1114 673 c 1,94,95
 1098 745 1098 745 1062.5 807.5 c 128,-1,96
 1027 870 1027 870 976 916 c 128,-1,97
 925 962 925 962 861.5 988.5 c 128,-1,98
 798 1015 798 1015 727 1015 c 0,99,100
 644 1015 644 1015 573.5 985 c 128,-1,101
 503 955 503 955 451.5 900.5 c 128,-1,102
 400 846 400 846 371 769.5 c 128,-1,103
 342 693 342 693 342 600 c 0,79,80
EndSplineSet
EndChar

StartChar: o
Encoding: 111 111 29
Width: 1460
Flags: W
LayerCount: 2
Fore
SplineSet
109 603 m 0,0,1
 109 733 109 733 157.5 847.5 c 128,-1,2
 206 962 206 962 290.5 1047.5 c 128,-1,3
 375 1133 375 1133 488 1182.5 c 128,-1,4
 601 1232 601 1232 730 1232 c 0,5,6
 871 1232 871 1232 985.5 1182.5 c 128,-1,7
 1100 1133 1100 1133 1181.5 1047.5 c 128,-1,8
 1263 962 1263 962 1307 847.5 c 128,-1,9
 1351 733 1351 733 1351 603 c 0,10,11
 1351 508 1351 508 1328.5 424 c 128,-1,12
 1306 340 1306 340 1265 270 c 128,-1,13
 1224 200 1224 200 1166.5 144.5 c 128,-1,14
 1109 89 1109 89 1040 50.5 c 128,-1,15
 971 12 971 12 892.5 -8.5 c 128,-1,16
 814 -29 814 -29 730 -29 c 0,17,18
 604 -29 604 -29 491 16.5 c 128,-1,19
 378 62 378 62 293 144.5 c 128,-1,20
 208 227 208 227 158.5 343.5 c 128,-1,21
 109 460 109 460 109 603 c 0,0,1
340 603 m 0,22,23
 340 508 340 508 367 431 c 128,-1,24
 394 354 394 354 444.5 299.5 c 128,-1,25
 495 245 495 245 567 215.5 c 128,-1,26
 639 186 639 186 729 186 c 0,27,28
 809 186 809 186 880 213 c 128,-1,29
 951 240 951 240 1004.5 292.5 c 128,-1,30
 1058 345 1058 345 1089.5 423 c 128,-1,31
 1121 501 1121 501 1121 603 c 0,32,33
 1121 687 1121 687 1094.5 762.5 c 128,-1,34
 1068 838 1068 838 1018 894 c 128,-1,35
 968 950 968 950 895 983 c 128,-1,36
 822 1016 822 1016 729 1016 c 256,37,38
 636 1016 636 1016 564 983 c 128,-1,39
 492 950 492 950 442 894 c 128,-1,40
 392 838 392 838 366 762.5 c 128,-1,41
 340 687 340 687 340 603 c 0,22,23
EndSplineSet
EndChar

StartChar: e
Encoding: 101 101 30
Width: 1402
Flags: W
LayerCount: 2
Fore
SplineSet
357 451 m 1,0,1
 376 376 376 376 413.5 325.5 c 128,-1,2
 451 275 451 275 498 244 c 128,-1,3
 545 213 545 213 597.5 199.5 c 128,-1,4
 650 186 650 186 700 186 c 0,5,6
 778 186 778 186 839 199.5 c 128,-1,7
 900 213 900 213 943.5 232.5 c 128,-1,8
 987 252 987 252 1014 273 c 128,-1,9
 1041 294 1041 294 1052 310 c 0,10,11
 1062 325 1062 325 1074.5 338.5 c 128,-1,12
 1087 352 1087 352 1101.5 362.5 c 128,-1,13
 1116 373 1116 373 1130.5 379 c 128,-1,14
 1145 385 1145 385 1158 385 c 0,15,16
 1208 385 1208 385 1235.5 355.5 c 128,-1,17
 1263 326 1263 326 1263 276 c 0,18,19
 1263 257 1263 257 1249 228 c 128,-1,20
 1235 199 1235 199 1197 164 c 0,21,22
 1155 125 1155 125 1103.5 90 c 128,-1,23
 1052 55 1052 55 990 28.5 c 128,-1,24
 928 2 928 2 855.5 -13.5 c 128,-1,25
 783 -29 783 -29 699 -29 c 0,26,27
 600 -29 600 -29 518 -2.5 c 128,-1,28
 436 24 436 24 371 69.5 c 128,-1,29
 306 115 306 115 258 175 c 128,-1,30
 210 235 210 235 178 303 c 128,-1,31
 146 371 146 371 130 443 c 128,-1,32
 114 515 114 515 114 583 c 0,33,34
 114 731 114 731 162 850.5 c 128,-1,35
 210 970 210 970 294 1055 c 128,-1,36
 378 1140 378 1140 493 1186 c 128,-1,37
 608 1232 608 1232 742 1232 c 0,38,39
 838 1232 838 1232 922 1203.5 c 128,-1,40
 1006 1175 1006 1175 1071.5 1123.5 c 128,-1,41
 1137 1072 1137 1072 1181.5 1000.5 c 128,-1,42
 1226 929 1226 929 1244 843 c 1,43,44
 1264 826 1264 826 1273.5 798.5 c 128,-1,45
 1283 771 1283 771 1283 744 c 0,46,47
 1283 699 1283 699 1252.5 670.5 c 128,-1,48
 1222 642 1222 642 1176 631 c 0,49,50
 1075 605 1075 605 974 583 c 128,-1,51
 873 561 873 561 771 540 c 128,-1,52
 669 519 669 519 565.5 497 c 128,-1,53
 462 475 462 475 357 451 c 1,0,1
340 636 m 1,54,55
 510 676 510 676 684 711 c 128,-1,56
 858 746 858 746 1038 789 c 1,57,58
 1021 835 1021 835 992 876.5 c 128,-1,59
 963 918 963 918 924 949 c 128,-1,60
 885 980 885 980 837.5 998 c 128,-1,61
 790 1016 790 1016 735 1016 c 0,62,63
 650 1016 650 1016 580.5 988.5 c 128,-1,64
 511 961 511 961 460 911.5 c 128,-1,65
 409 862 409 862 378 791.5 c 128,-1,66
 347 721 347 721 340 636 c 1,54,55
EndSplineSet
EndChar

StartChar: q
Encoding: 113 113 31
Width: 1536
Flags: W
LayerCount: 2
Fore
SplineSet
114 603 m 0,0,1
 114 731 114 731 160.5 845.5 c 128,-1,2
 207 960 207 960 289 1046 c 128,-1,3
 371 1132 371 1132 483.5 1182 c 128,-1,4
 596 1232 596 1232 729 1232 c 0,5,6
 871 1232 871 1232 970 1186.5 c 128,-1,7
 1069 1141 1069 1141 1142 1056 c 1,8,9
 1156 1105 1156 1105 1181.5 1133.5 c 128,-1,10
 1207 1162 1207 1162 1245 1162 c 0,11,12
 1305 1162 1305 1162 1335 1128.5 c 128,-1,13
 1365 1095 1365 1095 1365 1042 c 0,14,15
 1365 994 1365 994 1353 945 c 1,16,17
 1353 920 1353 920 1352.5 889 c 128,-1,18
 1352 858 1352 858 1351 826 c 0,19,20
 1350 808 1350 808 1349.5 789 c 128,-1,21
 1349 770 1349 770 1348.5 743 c 128,-1,22
 1348 716 1348 716 1348 678.5 c 128,-1,23
 1348 641 1348 641 1348 586.5 c 128,-1,24
 1348 532 1348 532 1348 457.5 c 128,-1,25
 1348 383 1348 383 1347.5 282 c 128,-1,26
 1347 181 1347 181 1347 51 c 128,-1,27
 1347 -79 1347 -79 1347 -244 c 1,28,29
 1381 -222 1381 -222 1412.5 -206.5 c 128,-1,30
 1444 -191 1444 -191 1472 -191 c 0,31,32
 1520 -191 1520 -191 1551.5 -216.5 c 128,-1,33
 1583 -242 1583 -242 1583 -290 c 0,34,35
 1583 -319 1583 -319 1577 -338 c 128,-1,36
 1571 -357 1571 -357 1559.5 -372 c 128,-1,37
 1548 -387 1548 -387 1531 -399 c 128,-1,38
 1514 -411 1514 -411 1491 -424 c 1,39,-1
 1380 -476 l 1,40,41
 1364 -489 1364 -489 1350 -496 c 128,-1,42
 1336 -503 1336 -503 1322 -506.5 c 128,-1,43
 1308 -510 1308 -510 1293 -510.5 c 128,-1,44
 1278 -511 1278 -511 1260 -511 c 0,45,46
 1234 -511 1234 -511 1210.5 -502 c 128,-1,47
 1187 -493 1187 -493 1169 -473 c 128,-1,48
 1151 -453 1151 -453 1140.5 -422.5 c 128,-1,49
 1130 -392 1130 -392 1130 -348 c 2,50,-1
 1130 138 l 1,51,52
 1093 100 1093 100 1046.5 69.5 c 128,-1,53
 1000 39 1000 39 946.5 17 c 128,-1,54
 893 -5 893 -5 833 -17 c 128,-1,55
 773 -29 773 -29 710 -29 c 0,56,57
 581 -29 581 -29 471.5 16.5 c 128,-1,58
 362 62 362 62 282.5 144.5 c 128,-1,59
 203 227 203 227 158.5 343.5 c 128,-1,60
 114 460 114 460 114 603 c 0,0,1
335 603 m 0,61,62
 335 510 335 510 365 433 c 128,-1,63
 395 356 395 356 446.5 301.5 c 128,-1,64
 498 247 498 247 567.5 216.5 c 128,-1,65
 637 186 637 186 717 186 c 0,66,67
 791 186 791 186 858 211 c 128,-1,68
 925 236 925 236 979 280.5 c 128,-1,69
 1033 325 1033 325 1071.5 386.5 c 128,-1,70
 1110 448 1110 448 1127 521 c 1,71,-1
 1123 695 l 1,72,73
 1107 758 1107 758 1073 816 c 128,-1,74
 1039 874 1039 874 988.5 918.5 c 128,-1,75
 938 963 938 963 872 989.5 c 128,-1,76
 806 1016 806 1016 726 1016 c 0,77,78
 633 1016 633 1016 560.5 981 c 128,-1,79
 488 946 488 946 437.5 888 c 128,-1,80
 387 830 387 830 361 756 c 128,-1,81
 335 682 335 682 335 603 c 0,61,62
EndSplineSet
EndChar

StartChar: n
Encoding: 110 110 32
Width: 1622
Flags: W
LayerCount: 2
Fore
SplineSet
283 74 m 0,0,1
 283 92 283 92 284.5 111 c 128,-1,2
 286 130 286 130 288 148 c 0,3,4
 291 175 291 175 294 207 c 128,-1,5
 297 239 297 239 297 279 c 0,6,7
 297 357 297 357 296.5 426.5 c 128,-1,8
 296 496 296 496 294 570 c 0,9,10
 294 572 294 572 294 576.5 c 128,-1,11
 294 581 294 581 293.5 595 c 128,-1,12
 293 609 293 609 292.5 636 c 128,-1,13
 292 663 292 663 291 712 c 128,-1,14
 290 761 290 761 288.5 834.5 c 128,-1,15
 287 908 287 908 285 1014 c 1,16,17
 272 1012 272 1012 254.5 1010.5 c 128,-1,18
 237 1009 237 1009 213 1009 c 0,19,20
 195 1009 195 1009 176.5 1015 c 128,-1,21
 158 1021 158 1021 142.5 1033.5 c 128,-1,22
 127 1046 127 1046 117.5 1066.5 c 128,-1,23
 108 1087 108 1087 108 1117 c 0,24,25
 108 1171 108 1171 135.5 1198.5 c 128,-1,26
 163 1226 163 1226 203 1226 c 0,27,28
 219 1226 219 1226 234 1222 c 128,-1,29
 249 1218 249 1218 266 1218 c 0,30,31
 286 1218 286 1218 307 1219 c 128,-1,32
 328 1220 328 1220 348 1222 c 0,33,34
 370 1224 370 1224 391.5 1225 c 128,-1,35
 413 1226 413 1226 430 1226 c 0,36,37
 471 1226 471 1226 498 1199 c 128,-1,38
 525 1172 525 1172 525 1123 c 0,39,40
 525 1111 525 1111 524.5 1095 c 128,-1,41
 524 1079 524 1079 522 1064 c 1,42,43
 556 1097 556 1097 599 1127 c 128,-1,44
 642 1157 642 1157 692.5 1180.5 c 128,-1,45
 743 1204 743 1204 801 1218 c 128,-1,46
 859 1232 859 1232 924 1232 c 0,47,48
 1051 1232 1051 1232 1146.5 1190.5 c 128,-1,49
 1242 1149 1242 1149 1306.5 1070.5 c 128,-1,50
 1371 992 1371 992 1403.5 878 c 128,-1,51
 1436 764 1436 764 1436 619 c 0,52,53
 1436 575 1436 575 1430 527 c 128,-1,54
 1424 479 1424 479 1413.5 431 c 128,-1,55
 1403 383 1403 383 1388.5 335.5 c 128,-1,56
 1374 288 1374 288 1356 246 c 1,57,58
 1379 253 1379 253 1400 258 c 128,-1,59
 1421 263 1421 263 1435 265 c 0,60,61
 1547 276 1547 276 1547 163 c 0,62,63
 1547 149 1547 149 1544 132.5 c 128,-1,64
 1541 116 1541 116 1532 100.5 c 128,-1,65
 1523 85 1523 85 1507 71.5 c 128,-1,66
 1491 58 1491 58 1466 49 c 1,67,-1
 1358 24 l 1,68,69
 1308 9 1308 9 1277.5 -1.5 c 128,-1,70
 1247 -12 1247 -12 1226.5 -18.5 c 128,-1,71
 1206 -25 1206 -25 1192 -27.5 c 128,-1,72
 1178 -30 1178 -30 1161 -29 c 1,73,74
 1137 -29 1137 -29 1119 -17.5 c 128,-1,75
 1101 -6 1101 -6 1089 11.5 c 128,-1,76
 1077 29 1077 29 1071 50 c 128,-1,77
 1065 71 1065 71 1065 91 c 0,78,79
 1065 123 1065 123 1074 156 c 128,-1,80
 1083 189 1083 189 1106 216 c 1,81,82
 1134 252 1134 252 1153.5 297 c 128,-1,83
 1173 342 1173 342 1185 394 c 128,-1,84
 1197 446 1197 446 1202.5 503 c 128,-1,85
 1208 560 1208 560 1208 619 c 0,86,87
 1208 687 1208 687 1193.5 757.5 c 128,-1,88
 1179 828 1179 828 1144.5 885.5 c 128,-1,89
 1110 943 1110 943 1053.5 979.5 c 128,-1,90
 997 1016 997 1016 912 1016 c 0,91,92
 853 1016 853 1016 796.5 997.5 c 128,-1,93
 740 979 740 979 688.5 948.5 c 128,-1,94
 637 918 637 918 592 879 c 128,-1,95
 547 840 547 840 513 799 c 1,96,97
 512 754 512 754 511.5 708.5 c 128,-1,98
 511 663 511 663 511 617 c 1,99,100
 509 539 509 539 508 462 c 128,-1,101
 507 385 507 385 507 306 c 0,102,103
 507 283 507 283 507 259.5 c 128,-1,104
 507 236 507 236 509 210 c 1,105,-1
 536 218 l 2,106,107
 547 221 547 221 557.5 223.5 c 128,-1,108
 568 226 568 226 576 226 c 0,109,110
 630 226 630 226 658 199.5 c 128,-1,111
 686 173 686 173 686 122 c 0,112,113
 686 84 686 84 671 61.5 c 128,-1,114
 656 39 656 39 633 26.5 c 128,-1,115
 610 14 610 14 582.5 9 c 128,-1,116
 555 4 555 4 529 1 c 0,117,118
 515 -1 515 -1 502 -2.5 c 128,-1,119
 489 -4 489 -4 480 -7 c 0,120,121
 448 -16 448 -16 425 -22.5 c 128,-1,122
 402 -29 402 -29 385 -29 c 0,123,124
 326 -29 326 -29 304.5 -2 c 128,-1,125
 283 25 283 25 283 74 c 0,0,1
EndSplineSet
EndChar

StartChar: i
Encoding: 105 105 33
Width: 833
Flags: W
LayerCount: 2
Fore
SplineSet
482 1378 m 0,0,1
 458 1367 458 1367 432 1367.5 c 128,-1,2
 406 1368 406 1368 384.5 1378.5 c 128,-1,3
 363 1389 363 1389 347 1409 c 128,-1,4
 331 1429 331 1429 327 1457 c 0,5,6
 324 1476 324 1476 328.5 1500.5 c 128,-1,7
 333 1525 333 1525 340.5 1550.5 c 128,-1,8
 348 1576 348 1576 354.5 1600.5 c 128,-1,9
 361 1625 361 1625 363 1645 c 0,10,11
 366 1690 366 1690 390 1720 c 128,-1,12
 414 1750 414 1750 462 1757 c 0,13,14
 497 1763 497 1763 528 1753 c 128,-1,15
 559 1743 559 1743 574 1709 c 0,16,17
 579 1698 579 1698 582.5 1683.5 c 128,-1,18
 586 1669 586 1669 588 1658 c 0,19,20
 589 1648 589 1648 587.5 1633 c 128,-1,21
 586 1618 586 1618 582 1601.5 c 128,-1,22
 578 1585 578 1585 572.5 1568.5 c 128,-1,23
 567 1552 567 1552 562 1540 c 0,24,25
 554 1523 554 1523 551.5 1503.5 c 128,-1,26
 549 1484 549 1484 546 1468 c 256,27,28
 543 1452 543 1452 540 1439 c 128,-1,29
 537 1426 537 1426 530.5 1415 c 128,-1,30
 524 1404 524 1404 512.5 1395 c 128,-1,31
 501 1386 501 1386 482 1378 c 0,0,1
311 75 m 0,32,33
 311 100 311 100 313.5 117 c 128,-1,34
 316 134 316 134 318.5 154.5 c 128,-1,35
 321 175 321 175 323.5 203 c 128,-1,36
 326 231 326 231 326 279 c 0,37,38
 326 458 326 458 325 634.5 c 128,-1,39
 324 811 324 811 320 1008 c 1,40,41
 305 1007 305 1007 286 1006 c 128,-1,42
 267 1005 267 1005 246.5 1004.5 c 128,-1,43
 226 1004 226 1004 207 1003.5 c 128,-1,44
 188 1003 188 1003 173 1003 c 0,45,46
 155 1003 155 1003 136.5 1008.5 c 128,-1,47
 118 1014 118 1014 103 1027 c 128,-1,48
 88 1040 88 1040 78 1060.5 c 128,-1,49
 68 1081 68 1081 68 1111 c 0,50,51
 68 1164 68 1164 96.5 1191.5 c 128,-1,52
 125 1219 125 1219 164 1219 c 0,53,54
 202 1219 202 1219 239.5 1215.5 c 128,-1,55
 277 1212 277 1212 313 1212 c 0,56,57
 350 1212 350 1212 387 1215.5 c 128,-1,58
 424 1219 424 1219 457 1219 c 0,59,60
 508 1219 508 1219 530 1192 c 128,-1,61
 552 1165 552 1165 552 1117 c 0,62,63
 552 1076 552 1076 545 1036.5 c 128,-1,64
 538 997 538 997 538 952 c 0,65,66
 538 862 538 862 537 771 c 128,-1,67
 536 680 536 680 535.5 586 c 128,-1,68
 535 492 535 492 534.5 394 c 128,-1,69
 534 296 534 296 536 192 c 1,70,71
 552 193 552 193 565 197 c 128,-1,72
 578 201 578 201 590 205.5 c 128,-1,73
 602 210 602 210 615.5 213.5 c 128,-1,74
 629 217 629 217 646 217 c 0,75,76
 672 217 672 217 688.5 211 c 128,-1,77
 705 205 705 205 715 194.5 c 128,-1,78
 725 184 725 184 730 168.5 c 128,-1,79
 735 153 735 153 739 135 c 1,80,81
 746 88 746 88 716 60 c 128,-1,82
 686 32 686 32 634 16 c 1,83,84
 604 8 604 8 572.5 0 c 128,-1,85
 541 -8 541 -8 513 -14.5 c 128,-1,86
 485 -21 485 -21 462 -25 c 128,-1,87
 439 -29 439 -29 426 -29 c 0,88,89
 367 -29 367 -29 339 -1.5 c 128,-1,90
 311 26 311 26 311 75 c 0,32,33
EndSplineSet
EndChar

StartChar: b
Encoding: 98 98 34
Width: 1529
Flags: W
LayerCount: 2
Fore
SplineSet
198 65 m 0,0,1
 198 105 198 105 198 157.5 c 128,-1,2
 198 210 198 210 197 269 c 0,3,4
 196 360 196 360 196 464.5 c 128,-1,5
 196 569 196 569 196.5 680 c 128,-1,6
 197 791 197 791 197.5 906.5 c 128,-1,7
 198 1022 198 1022 198 1136 c 128,-1,8
 198 1250 198 1250 196.5 1359.5 c 128,-1,9
 195 1469 195 1469 192 1569 c 1,10,11
 174 1570 174 1570 155 1566.5 c 128,-1,12
 136 1563 136 1563 111 1563 c 0,13,14
 93 1563 93 1563 75.5 1569 c 128,-1,15
 58 1575 58 1575 44.5 1588.5 c 128,-1,16
 31 1602 31 1602 23 1623 c 128,-1,17
 15 1644 15 1644 15 1674 c 0,18,19
 15 1727 15 1727 42.5 1754.5 c 128,-1,20
 70 1782 70 1782 110 1782 c 0,21,22
 126 1782 126 1782 141 1778 c 128,-1,23
 156 1774 156 1774 173 1774 c 0,24,25
 213 1774 213 1774 252.5 1778 c 128,-1,26
 292 1782 292 1782 337 1782 c 0,27,28
 378 1782 378 1782 405 1754.5 c 128,-1,29
 432 1727 432 1727 432 1679 c 0,30,31
 432 1614 432 1614 431 1537.5 c 128,-1,32
 430 1461 430 1461 428.5 1381 c 128,-1,33
 427 1301 427 1301 426 1222.5 c 128,-1,34
 425 1144 425 1144 424 1076 c 1,35,36
 457 1111 457 1111 500 1139.5 c 128,-1,37
 543 1168 543 1168 594 1188.5 c 128,-1,38
 645 1209 645 1209 701 1220.5 c 128,-1,39
 757 1232 757 1232 816 1232 c 0,40,41
 949 1232 949 1232 1059.5 1188 c 128,-1,42
 1170 1144 1170 1144 1249 1062.5 c 128,-1,43
 1328 981 1328 981 1371.5 865.5 c 128,-1,44
 1415 750 1415 750 1415 608 c 0,45,46
 1415 451 1415 451 1367.5 332 c 128,-1,47
 1320 213 1320 213 1235 132.5 c 128,-1,48
 1150 52 1150 52 1032.5 11.5 c 128,-1,49
 915 -29 915 -29 774 -29 c 0,50,51
 722 -29 722 -29 671 -19 c 128,-1,52
 620 -9 620 -9 573 9.5 c 128,-1,53
 526 28 526 28 485 53 c 128,-1,54
 444 78 444 78 412 108 c 1,55,-1
 412 66 l 2,56,57
 412 40 412 40 400 23 c 128,-1,58
 388 6 388 6 370 -4 c 128,-1,59
 352 -14 352 -14 330.5 -17.5 c 128,-1,60
 309 -21 309 -21 290 -21 c 0,61,62
 247 -21 247 -21 222.5 -4.5 c 128,-1,63
 198 12 198 12 198 65 c 0,0,1
403 594 m 0,64,65
 403 499 403 499 433.5 423.5 c 128,-1,66
 464 348 464 348 515 295.5 c 128,-1,67
 566 243 566 243 631.5 214.5 c 128,-1,68
 697 186 697 186 767 186 c 0,69,70
 854 186 854 186 928.5 210 c 128,-1,71
 1003 234 1003 234 1058 285 c 128,-1,72
 1113 336 1113 336 1144 415.5 c 128,-1,73
 1175 495 1175 495 1175 605 c 0,74,75
 1175 700 1175 700 1148.5 776 c 128,-1,76
 1122 852 1122 852 1072 905.5 c 128,-1,77
 1022 959 1022 959 951 987.5 c 128,-1,78
 880 1016 880 1016 790 1016 c 0,79,80
 714 1016 714 1016 644 984.5 c 128,-1,81
 574 953 574 953 520.5 896.5 c 128,-1,82
 467 840 467 840 435 762.5 c 128,-1,83
 403 685 403 685 403 594 c 0,64,65
EndSplineSet
EndChar

StartChar: h
Encoding: 104 104 35
Width: 1555
Flags: W
LayerCount: 2
Fore
SplineSet
205 72 m 0,0,1
 205 90 205 90 206.5 109 c 128,-1,2
 208 128 208 128 210 147 c 0,3,4
 213 173 213 173 216 205 c 128,-1,5
 219 237 219 237 219 276 c 0,6,7
 219 335 219 335 218.5 428 c 128,-1,8
 218 521 218 521 217 634.5 c 128,-1,9
 216 748 216 748 215 873.5 c 128,-1,10
 214 999 214 999 212.5 1123.5 c 128,-1,11
 211 1248 211 1248 209.5 1363 c 128,-1,12
 208 1478 208 1478 207 1570 c 1,13,14
 192 1572 192 1572 175 1568.5 c 128,-1,15
 158 1565 158 1565 135 1565 c 0,16,17
 117 1565 117 1565 98.5 1571 c 128,-1,18
 80 1577 80 1577 64.5 1589.5 c 128,-1,19
 49 1602 49 1602 39.5 1623 c 128,-1,20
 30 1644 30 1644 30 1674 c 0,21,22
 30 1727 30 1727 58 1754.5 c 128,-1,23
 86 1782 86 1782 125 1782 c 0,24,25
 141 1782 141 1782 156 1778 c 128,-1,26
 171 1774 171 1774 188 1774 c 0,27,28
 208 1774 208 1774 229 1775 c 128,-1,29
 250 1776 250 1776 270 1778 c 0,30,31
 292 1780 292 1780 313.5 1781 c 128,-1,32
 335 1782 335 1782 351 1782 c 0,33,34
 393 1782 393 1782 419.5 1754.5 c 128,-1,35
 446 1727 446 1727 446 1679 c 0,36,37
 446 1550 446 1550 443.5 1416.5 c 128,-1,38
 441 1283 441 1283 439 1129 c 1,39,-1
 437 1078 l 1,40,41
 472 1109 472 1109 514 1137 c 128,-1,42
 556 1165 556 1165 603.5 1186 c 128,-1,43
 651 1207 651 1207 702 1219.5 c 128,-1,44
 753 1232 753 1232 806 1232 c 0,45,46
 932 1232 932 1232 1030.5 1195 c 128,-1,47
 1129 1158 1129 1158 1197 1082 c 128,-1,48
 1265 1006 1265 1006 1300.5 891 c 128,-1,49
 1336 776 1336 776 1336 619 c 0,50,51
 1336 573 1336 573 1329.5 523 c 128,-1,52
 1323 473 1323 473 1311 423 c 128,-1,53
 1299 373 1299 373 1282 324.5 c 128,-1,54
 1265 276 1265 276 1244 234 c 1,55,56
 1266 242 1266 242 1288 248.5 c 128,-1,57
 1310 255 1310 255 1336 255 c 0,58,59
 1369 255 1369 255 1390 242.5 c 128,-1,60
 1411 230 1411 230 1422.5 213 c 128,-1,61
 1434 196 1434 196 1438 178 c 128,-1,62
 1442 160 1442 160 1442 150 c 0,63,64
 1442 112 1442 112 1419.5 85 c 128,-1,65
 1397 58 1397 58 1362 46 c 1,66,67
 1333 35 1333 35 1289 22 c 128,-1,68
 1245 9 1245 9 1200.5 -2 c 128,-1,69
 1156 -13 1156 -13 1117 -21 c 128,-1,70
 1078 -29 1078 -29 1058 -29 c 0,71,72
 993 -29 993 -29 965.5 2.5 c 128,-1,73
 938 34 938 34 938 84 c 0,74,75
 938 111 938 111 953 143 c 128,-1,76
 968 175 968 175 989 202 c 1,77,78
 1015 239 1015 239 1037 287.5 c 128,-1,79
 1059 336 1059 336 1075.5 390.5 c 128,-1,80
 1092 445 1092 445 1101.5 503.5 c 128,-1,81
 1111 562 1111 562 1111 619 c 0,82,83
 1111 713 1111 713 1093.5 787 c 128,-1,84
 1076 861 1076 861 1038 912 c 128,-1,85
 1000 963 1000 963 939.5 989.5 c 128,-1,86
 879 1016 879 1016 793 1016 c 0,87,88
 743 1016 743 1016 693 998 c 128,-1,89
 643 980 643 980 596 950.5 c 128,-1,90
 549 921 549 921 507.5 882.5 c 128,-1,91
 466 844 466 844 434 804 c 1,92,93
 432 655 432 655 431.5 507.5 c 128,-1,94
 431 360 431 360 433 206 c 1,95,96
 435 206 435 206 438.5 207 c 128,-1,97
 442 208 442 208 455 213 c 0,98,99
 464 217 464 217 474.5 220 c 128,-1,100
 485 223 485 223 498 224 c 0,101,102
 552 226 552 226 580.5 198.5 c 128,-1,103
 609 171 609 171 609 120 c 0,104,105
 609 102 609 102 602.5 84.5 c 128,-1,106
 596 67 596 67 585 53 c 128,-1,107
 574 39 574 39 559 29 c 128,-1,108
 544 19 544 19 526 15 c 0,109,110
 506 11 506 11 486.5 6.5 c 128,-1,111
 467 2 467 2 447 -2 c 0,112,113
 429 -6 429 -6 408.5 -11 c 128,-1,114
 388 -16 388 -16 368.5 -20 c 128,-1,115
 349 -24 349 -24 333 -26.5 c 128,-1,116
 317 -29 317 -29 307 -29 c 0,117,118
 248 -29 248 -29 226.5 -3 c 128,-1,119
 205 23 205 23 205 72 c 0,0,1
EndSplineSet
EndChar

StartChar: r
Encoding: 114 114 36
Width: 1252
Flags: W
LayerCount: 2
Fore
SplineSet
214 89 m 0,0,1
 214 124 214 124 215 159 c 128,-1,2
 216 194 216 194 217 236 c 1,3,-1
 217 1007 l 2,4,5
 217 1035 217 1035 211 1063.5 c 128,-1,6
 205 1092 205 1092 205 1123 c 0,7,8
 205 1176 205 1176 243 1204 c 128,-1,9
 281 1232 281 1232 346 1232 c 0,10,11
 374 1232 374 1232 395 1222.5 c 128,-1,12
 416 1213 416 1213 430 1198 c 128,-1,13
 444 1183 444 1183 451 1164 c 128,-1,14
 458 1145 458 1145 458 1125 c 0,15,16
 458 1108 458 1108 455.5 1090.5 c 128,-1,17
 453 1073 453 1073 450 1056 c 1,18,19
 603 1094 603 1094 710.5 1125 c 128,-1,20
 818 1156 818 1156 879 1176 c 1,21,22
 892 1199 892 1199 915.5 1215.5 c 128,-1,23
 939 1232 939 1232 977 1232 c 0,24,25
 1032 1232 1032 1232 1064.5 1203.5 c 128,-1,26
 1097 1175 1097 1175 1097 1132 c 0,27,28
 1097 1115 1097 1115 1095 1097 c 128,-1,29
 1093 1079 1093 1079 1093 1061 c 1,30,31
 1087 1000 1087 1000 1090.5 937 c 128,-1,32
 1094 874 1094 874 1099 810 c 0,33,34
 1101 790 1101 790 1101.5 767.5 c 128,-1,35
 1102 745 1102 745 1102 722 c 0,36,37
 1102 698 1102 698 1090 682 c 128,-1,38
 1078 666 1078 666 1059.5 656.5 c 128,-1,39
 1041 647 1041 647 1019 643 c 128,-1,40
 997 639 997 639 976 639 c 0,41,42
 946 639 946 639 926 649.5 c 128,-1,43
 906 660 906 660 893.5 676.5 c 128,-1,44
 881 693 881 693 875.5 713.5 c 128,-1,45
 870 734 870 734 870 754 c 0,46,47
 870 800 870 800 871 847.5 c 128,-1,48
 872 895 872 895 873 952 c 1,49,50
 835 943 835 943 768.5 928 c 128,-1,51
 702 913 702 913 623 896 c 1,52,53
 578 885 578 885 534 875.5 c 128,-1,54
 490 866 490 866 445 856 c 1,55,-1
 445 203 l 1,56,-1
 475 212 l 2,57,58
 495 219 495 219 513 224.5 c 128,-1,59
 531 230 531 230 554 232 c 1,60,61
 573 230 573 230 591.5 223 c 128,-1,62
 610 216 610 216 624.5 203 c 128,-1,63
 639 190 639 190 648 170.5 c 128,-1,64
 657 151 657 151 657 126 c 0,65,66
 657 103 657 103 649.5 82 c 128,-1,67
 642 61 642 61 629 44.5 c 128,-1,68
 616 28 616 28 598.5 17.5 c 128,-1,69
 581 7 581 7 560 6 c 1,70,71
 546 4 546 4 522 -0.5 c 128,-1,72
 498 -5 498 -5 466 -11 c 0,73,74
 415 -21 415 -21 383.5 -25 c 128,-1,75
 352 -29 352 -29 331 -29 c 0,76,77
 308 -29 308 -29 286.5 -21.5 c 128,-1,78
 265 -14 265 -14 249 1 c 128,-1,79
 233 16 233 16 223.5 38 c 128,-1,80
 214 60 214 60 214 89 c 0,0,1
EndSplineSet
EndChar

StartChar: u
Encoding: 117 117 37
Width: 1437
Flags: W
LayerCount: 2
Fore
SplineSet
157 546 m 0,0,1
 157 640 157 640 177.5 749 c 128,-1,2
 198 858 198 858 244 958 c 1,3,4
 224 952 224 952 207 952 c 0,5,6
 169 952 169 952 148 965.5 c 128,-1,7
 127 979 127 979 117.5 997 c 128,-1,8
 108 1015 108 1015 106.5 1034 c 128,-1,9
 105 1053 105 1053 105 1064 c 0,10,11
 105 1094 105 1094 115 1113.5 c 128,-1,12
 125 1133 125 1133 143 1145 c 128,-1,13
 161 1157 161 1157 187.5 1164 c 128,-1,14
 214 1171 214 1171 247 1178 c 1,15,16
 264 1180 264 1180 284 1187.5 c 128,-1,17
 304 1195 304 1195 323 1203 c 0,18,19
 349 1214 349 1214 378 1223 c 128,-1,20
 407 1232 407 1232 438 1232 c 0,21,22
 470 1232 470 1232 492.5 1223 c 128,-1,23
 515 1214 515 1214 529.5 1198.5 c 128,-1,24
 544 1183 544 1183 550.5 1162.5 c 128,-1,25
 557 1142 557 1142 557 1119 c 0,26,27
 557 1090 557 1090 544 1060 c 128,-1,28
 531 1030 531 1030 507 1003 c 0,29,30
 475 967 475 967 451 914 c 128,-1,31
 427 861 427 861 410.5 799.5 c 128,-1,32
 394 738 394 738 385.5 672.5 c 128,-1,33
 377 607 377 607 377 546 c 0,34,35
 377 358 377 358 454.5 269 c 128,-1,36
 532 180 532 180 683 180 c 0,37,38
 732 180 732 180 781.5 194 c 128,-1,39
 831 208 831 208 878.5 232.5 c 128,-1,40
 926 257 926 257 969.5 290.5 c 128,-1,41
 1013 324 1013 324 1051 363 c 1,42,43
 1053 448 1053 448 1054 520.5 c 128,-1,44
 1055 593 1055 593 1055 662 c 0,45,46
 1055 704 1055 704 1055 741.5 c 128,-1,47
 1055 779 1055 779 1054 815.5 c 128,-1,48
 1053 852 1053 852 1052 891.5 c 128,-1,49
 1051 931 1051 931 1049 978 c 1,50,51
 1018 969 1018 969 990 964 c 128,-1,52
 962 959 962 959 948 959 c 0,53,54
 927 959 927 959 908 966 c 128,-1,55
 889 973 889 973 874 987 c 128,-1,56
 859 1001 859 1001 850 1022.5 c 128,-1,57
 841 1044 841 1044 841 1073 c 0,58,59
 841 1104 841 1104 852.5 1123.5 c 128,-1,60
 864 1143 864 1143 885.5 1154.5 c 128,-1,61
 907 1166 907 1166 937 1173 c 128,-1,62
 967 1180 967 1180 1004 1188 c 1,63,64
 1025 1191 1025 1191 1044.5 1198.5 c 128,-1,65
 1064 1206 1064 1206 1084 1213.5 c 128,-1,66
 1104 1221 1104 1221 1125 1226.5 c 128,-1,67
 1146 1232 1146 1232 1169 1232 c 0,68,69
 1205 1232 1205 1232 1224 1219.5 c 128,-1,70
 1243 1207 1243 1207 1252 1185.5 c 128,-1,71
 1261 1164 1261 1164 1262.5 1134.5 c 128,-1,72
 1264 1105 1264 1105 1264 1072 c 0,73,74
 1264 1043 1264 1043 1264 997.5 c 128,-1,75
 1264 952 1264 952 1265 895 c 1,76,77
 1265 731 1265 731 1268 561.5 c 128,-1,78
 1271 392 1271 392 1271 199 c 0,79,80
 1271 172 1271 172 1274.5 144.5 c 128,-1,81
 1278 117 1278 117 1278 85 c 0,82,83
 1278 58 1278 58 1274.5 37.5 c 128,-1,84
 1271 17 1271 17 1257.5 3 c 128,-1,85
 1244 -11 1244 -11 1217.5 -19.5 c 128,-1,86
 1191 -28 1191 -28 1144 -29 c 0,87,88
 1114 -29 1114 -29 1093.5 -17.5 c 128,-1,89
 1073 -6 1073 -6 1060.5 11 c 128,-1,90
 1048 28 1048 28 1042.5 47.5 c 128,-1,91
 1037 67 1037 67 1037 83 c 0,92,93
 1037 94 1037 94 1038.5 100.5 c 128,-1,94
 1040 107 1040 107 1042 117 c 1,95,96
 996 77 996 77 947.5 49.5 c 128,-1,97
 899 22 899 22 852 4.5 c 128,-1,98
 805 -13 805 -13 760.5 -21 c 128,-1,99
 716 -29 716 -29 678 -29 c 0,100,101
 418 -29 418 -29 287.5 118 c 128,-1,102
 157 265 157 265 157 546 c 0,0,1
EndSplineSet
EndChar

StartChar: t
Encoding: 116 116 38
Width: 1000
Flags: W
LayerCount: 2
Fore
SplineSet
285 290 m 1,0,-1
 279 995 l 1,1,-1
 158 994 l 2,2,3
 135 994 135 994 118 1003.5 c 128,-1,4
 101 1013 101 1013 89.5 1029.5 c 128,-1,5
 78 1046 78 1046 72 1067 c 128,-1,6
 66 1088 66 1088 66 1111 c 0,7,8
 66 1150 66 1150 75.5 1170.5 c 128,-1,9
 85 1191 85 1191 103 1200.5 c 128,-1,10
 121 1210 121 1210 147 1211.5 c 128,-1,11
 173 1213 173 1213 207 1213 c 2,12,-1
 278 1213 l 1,13,-1
 278 1250 l 2,14,15
 278 1287 278 1287 277.5 1310 c 128,-1,16
 277 1333 277 1333 277 1341 c 0,17,18
 277 1370 277 1370 271.5 1399 c 128,-1,19
 266 1428 266 1428 266 1458 c 0,20,21
 266 1483 266 1483 272 1502 c 128,-1,22
 278 1521 278 1521 292.5 1534.5 c 128,-1,23
 307 1548 307 1548 331 1555 c 128,-1,24
 355 1562 355 1562 390 1562 c 0,25,26
 414 1562 414 1562 435.5 1558 c 128,-1,27
 457 1554 457 1554 473.5 1542.5 c 128,-1,28
 490 1531 490 1531 500 1511 c 128,-1,29
 510 1491 510 1491 510 1459 c 0,30,31
 510 1416 510 1416 502.5 1374 c 128,-1,32
 495 1332 495 1332 496 1287 c 1,33,-1
 496 1214 l 1,34,35
 574 1216 574 1216 617.5 1217 c 128,-1,36
 661 1218 661 1218 688 1219 c 0,37,38
 692 1219 692 1219 695.5 1219.5 c 128,-1,39
 699 1220 699 1220 702 1220 c 0,40,41
 714 1221 714 1221 729 1221 c 128,-1,42
 744 1221 744 1221 753 1221 c 0,43,44
 772 1221 772 1221 790 1215 c 128,-1,45
 808 1209 808 1209 821.5 1195 c 128,-1,46
 835 1181 835 1181 843 1159 c 128,-1,47
 851 1137 851 1137 851 1106 c 0,48,49
 851 1082 851 1082 847 1061 c 128,-1,50
 843 1040 843 1040 832 1024 c 128,-1,51
 821 1008 821 1008 800 998.5 c 128,-1,52
 779 989 779 989 746 989 c 0,53,54
 715 989 715 989 683.5 992.5 c 128,-1,55
 652 996 652 996 619 997 c 1,56,-1
 498 996 l 1,57,-1
 505 207 l 1,58,59
 546 214 546 214 577 220 c 128,-1,60
 608 226 608 226 635 232 c 128,-1,61
 662 238 662 238 688 246 c 128,-1,62
 714 254 714 254 745 266 c 1,63,64
 762 275 762 275 785 284.5 c 128,-1,65
 808 294 808 294 833 294 c 0,66,67
 882 294 882 294 910 260.5 c 128,-1,68
 938 227 938 227 938 173 c 0,69,70
 938 159 938 159 931.5 142 c 128,-1,71
 925 125 925 125 912 108.5 c 128,-1,72
 899 92 899 92 878.5 78.5 c 128,-1,73
 858 65 858 65 830 59 c 0,74,75
 800 53 800 53 761 44 c 128,-1,76
 722 35 722 35 679 25 c 128,-1,77
 636 15 636 15 593 5 c 128,-1,78
 550 -5 550 -5 512 -12.5 c 128,-1,79
 474 -20 474 -20 445 -25 c 128,-1,80
 416 -30 416 -30 401 -29 c 1,81,82
 383 -29 383 -29 361.5 -24.5 c 128,-1,83
 340 -20 340 -20 322 -8.5 c 128,-1,84
 304 3 304 3 292.5 23.5 c 128,-1,85
 281 44 281 44 281 76 c 2,86,-1
 285 290 l 1,0,-1
EndSplineSet
EndChar

StartChar: m
Encoding: 109 109 39
Width: 2349
Flags: W
LayerCount: 2
Fore
SplineSet
282 73 m 0,0,1
 282 124 282 124 289.5 173 c 128,-1,2
 297 222 297 222 297 277 c 0,3,4
 297 318 297 318 296.5 358 c 128,-1,5
 296 398 296 398 295.5 443 c 128,-1,6
 295 488 295 488 294 541.5 c 128,-1,7
 293 595 293 595 291.5 663 c 128,-1,8
 290 731 290 731 288 817 c 128,-1,9
 286 903 286 903 284 1014 c 1,10,11
 271 1012 271 1012 254.5 1010.5 c 128,-1,12
 238 1009 238 1009 213 1009 c 0,13,14
 195 1009 195 1009 176 1015 c 128,-1,15
 157 1021 157 1021 142 1033.5 c 128,-1,16
 127 1046 127 1046 117 1066.5 c 128,-1,17
 107 1087 107 1087 107 1117 c 0,18,19
 107 1171 107 1171 135 1198.5 c 128,-1,20
 163 1226 163 1226 203 1226 c 0,21,22
 219 1226 219 1226 234 1222 c 128,-1,23
 249 1218 249 1218 266 1218 c 0,24,25
 306 1218 306 1218 345.5 1222 c 128,-1,26
 385 1226 385 1226 429 1226 c 0,27,28
 472 1226 472 1226 488.5 1199 c 128,-1,29
 505 1172 505 1172 505 1123 c 2,30,-1
 505 1103 l 1,31,32
 584 1169 584 1169 672 1200.5 c 128,-1,33
 760 1232 760 1232 836 1232 c 0,34,35
 961 1232 961 1232 1058 1196 c 128,-1,36
 1155 1160 1155 1160 1223 1089 c 1,37,38
 1265 1123 1265 1123 1311 1150 c 128,-1,39
 1357 1177 1357 1177 1403.5 1195 c 128,-1,40
 1450 1213 1450 1213 1495 1222.5 c 128,-1,41
 1540 1232 1540 1232 1581 1232 c 0,42,43
 1707 1232 1707 1232 1810 1194.5 c 128,-1,44
 1913 1157 1913 1157 1986.5 1084 c 128,-1,45
 2060 1011 2060 1011 2100 904.5 c 128,-1,46
 2140 798 2140 798 2140 659 c 0,47,48
 2140 615 2140 615 2134.5 559.5 c 128,-1,49
 2129 504 2129 504 2119 445.5 c 128,-1,50
 2109 387 2109 387 2095 330.5 c 128,-1,51
 2081 274 2081 274 2065 229 c 1,52,53
 2078 233 2078 233 2086 234 c 128,-1,54
 2094 235 2094 235 2100 235 c 0,55,56
 2135 235 2135 235 2156 222 c 128,-1,57
 2177 209 2177 209 2188.5 191 c 128,-1,58
 2200 173 2200 173 2203.5 153.5 c 128,-1,59
 2207 134 2207 134 2207 121 c 0,60,61
 2207 90 2207 90 2196 70.5 c 128,-1,62
 2185 51 2185 51 2157.5 37.5 c 128,-1,63
 2130 24 2130 24 2083.5 13 c 128,-1,64
 2037 2 2037 2 1966 -13 c 1,65,66
 1935 -21 1935 -21 1915.5 -26 c 128,-1,67
 1896 -31 1896 -31 1880 -31 c 0,68,69
 1848 -31 1848 -31 1825 -21.5 c 128,-1,70
 1802 -12 1802 -12 1787.5 3.5 c 128,-1,71
 1773 19 1773 19 1766 40.5 c 128,-1,72
 1759 62 1759 62 1759 86 c 0,73,74
 1759 112 1759 112 1773 144.5 c 128,-1,75
 1787 177 1787 177 1810 203 c 1,76,77
 1833 241 1833 241 1852 295.5 c 128,-1,78
 1871 350 1871 350 1884.5 412 c 128,-1,79
 1898 474 1898 474 1905 538 c 128,-1,80
 1912 602 1912 602 1912 659 c 0,81,82
 1912 739 1912 739 1892.5 805 c 128,-1,83
 1873 871 1873 871 1831.5 918 c 128,-1,84
 1790 965 1790 965 1726.5 991 c 128,-1,85
 1663 1017 1663 1017 1576 1017 c 0,86,87
 1532 1017 1532 1017 1497.5 1010.5 c 128,-1,88
 1463 1004 1463 1004 1433.5 992 c 128,-1,89
 1404 980 1404 980 1378 962 c 128,-1,90
 1352 944 1352 944 1326 920 c 1,91,92
 1367 808 1367 808 1367 659 c 0,93,94
 1367 614 1367 614 1361 557 c 128,-1,95
 1355 500 1355 500 1344 440 c 128,-1,96
 1333 380 1333 380 1316 322 c 128,-1,97
 1299 264 1299 264 1278 216 c 1,98,99
 1294 219 1294 219 1311 225.5 c 128,-1,100
 1328 232 1328 232 1348 232 c 0,101,102
 1381 232 1381 232 1401.5 219 c 128,-1,103
 1422 206 1422 206 1432.5 187.5 c 128,-1,104
 1443 169 1443 169 1446.5 147.5 c 128,-1,105
 1450 126 1450 126 1450 109 c 0,106,107
 1450 77 1450 77 1437.5 58.5 c 128,-1,108
 1425 40 1425 40 1405 29.5 c 128,-1,109
 1385 19 1385 19 1359 14.5 c 128,-1,110
 1333 10 1333 10 1306 7 c 128,-1,111
 1279 4 1279 4 1253.5 -0.5 c 128,-1,112
 1228 -5 1228 -5 1208 -15 c 0,113,114
 1205 -17 1205 -17 1194 -19.5 c 128,-1,115
 1183 -22 1183 -22 1170.5 -24.5 c 128,-1,116
 1158 -27 1158 -27 1145.5 -29 c 128,-1,117
 1133 -31 1133 -31 1126 -31 c 0,118,119
 1093 -31 1093 -31 1070 -19 c 128,-1,120
 1047 -7 1047 -7 1032.5 12 c 128,-1,121
 1018 31 1018 31 1011.5 54 c 128,-1,122
 1005 77 1005 77 1005 99 c 0,123,124
 1005 125 1005 125 1013 151.5 c 128,-1,125
 1021 178 1021 178 1035 201 c 1,126,127
 1057 241 1057 241 1076 296.5 c 128,-1,128
 1095 352 1095 352 1108.5 413.5 c 128,-1,129
 1122 475 1122 475 1130 538.5 c 128,-1,130
 1138 602 1138 602 1138 659 c 0,131,132
 1138 739 1138 739 1122.5 805 c 128,-1,133
 1107 871 1107 871 1071 918 c 128,-1,134
 1035 965 1035 965 976.5 991 c 128,-1,135
 918 1017 918 1017 832 1017 c 0,136,137
 747 1017 747 1017 665.5 980.5 c 128,-1,138
 584 944 584 944 505 864 c 1,139,140
 505 819 505 819 504.5 752.5 c 128,-1,141
 504 686 504 686 504 612 c 128,-1,142
 504 538 504 538 504 465 c 128,-1,143
 504 392 504 392 504.5 334 c 128,-1,144
 505 276 505 276 505.5 240.5 c 128,-1,145
 506 205 506 205 507 208 c 1,146,147
 525 213 525 213 536.5 216.5 c 128,-1,148
 548 220 548 220 555.5 222 c 128,-1,149
 563 224 563 224 567 224.5 c 128,-1,150
 571 225 571 225 576 225 c 0,151,152
 630 225 630 225 658 198.5 c 128,-1,153
 686 172 686 172 686 121 c 0,154,155
 686 83 686 83 671 61 c 128,-1,156
 656 39 656 39 633 26 c 128,-1,157
 610 13 610 13 581 7.5 c 128,-1,158
 552 2 552 2 525 -1 c 0,159,160
 508 -3 508 -3 490 -8 c 128,-1,161
 472 -13 472 -13 454 -18 c 128,-1,162
 436 -23 436 -23 418 -27 c 128,-1,163
 400 -31 400 -31 385 -31 c 0,164,165
 326 -31 326 -31 304 -3.5 c 128,-1,166
 282 24 282 24 282 73 c 0,0,1
EndSplineSet
EndChar

StartChar: p
Encoding: 112 112 40
Width: 1504
Flags: W
LayerCount: 2
Fore
SplineSet
423 -72 m 2,0,1
 424 -117 424 -117 424.5 -167 c 128,-1,2
 425 -217 425 -217 425.5 -265 c 128,-1,3
 426 -313 426 -313 426.5 -354.5 c 128,-1,4
 427 -396 427 -396 427 -424 c 0,5,6
 427 -450 427 -450 416.5 -467 c 128,-1,7
 406 -484 406 -484 389.5 -494 c 128,-1,8
 373 -504 373 -504 353 -507.5 c 128,-1,9
 333 -511 333 -511 314 -511 c 0,10,11
 293 -511 293 -511 274.5 -507.5 c 128,-1,12
 256 -504 256 -504 242.5 -494.5 c 128,-1,13
 229 -485 229 -485 221 -468 c 128,-1,14
 213 -451 213 -451 213 -425 c 2,15,-1
 213 550 l 2,16,17
 213 613 213 613 213 687.5 c 128,-1,18
 213 762 213 762 212.5 831 c 128,-1,19
 212 900 212 900 210.5 953.5 c 128,-1,20
 209 1007 209 1007 207 1027 c 1,21,22
 199 1027 199 1027 180.5 1023.5 c 128,-1,23
 162 1020 162 1020 145 1020 c 0,24,25
 127 1020 127 1020 108.5 1025 c 128,-1,26
 90 1030 90 1030 75 1042 c 128,-1,27
 60 1054 60 1054 50 1074 c 128,-1,28
 40 1094 40 1094 40 1125 c 0,29,30
 40 1157 40 1157 47.5 1177 c 128,-1,31
 55 1197 55 1197 69 1208.5 c 128,-1,32
 83 1220 83 1220 103 1224 c 128,-1,33
 123 1228 123 1228 149 1228 c 0,34,35
 171 1228 171 1228 193 1225 c 128,-1,36
 215 1222 215 1222 239 1222 c 0,37,38
 260 1222 260 1222 282 1225 c 128,-1,39
 304 1228 304 1228 331 1228 c 0,40,41
 375 1228 375 1228 401 1206.5 c 128,-1,42
 427 1185 427 1185 427 1139 c 0,43,44
 427 1119 427 1119 423.5 1098 c 128,-1,45
 420 1077 420 1077 418 1055 c 1,46,47
 449 1094 449 1094 490.5 1126.5 c 128,-1,48
 532 1159 532 1159 582 1182.5 c 128,-1,49
 632 1206 632 1206 689.5 1219 c 128,-1,50
 747 1232 747 1232 809 1232 c 0,51,52
 938 1232 938 1232 1045 1189.5 c 128,-1,53
 1152 1147 1152 1147 1228.5 1067 c 128,-1,54
 1305 987 1305 987 1347.5 872 c 128,-1,55
 1390 757 1390 757 1390 613 c 0,56,57
 1390 478 1390 478 1350.5 360.5 c 128,-1,58
 1311 243 1311 243 1235 156.5 c 128,-1,59
 1159 70 1159 70 1047.5 20.5 c 128,-1,60
 936 -29 936 -29 793 -29 c 0,61,62
 683 -29 683 -29 584.5 10.5 c 128,-1,63
 486 50 486 50 419 121 c 1,64,-1
 423 -72 l 2,0,1
417 525 m 1,65,66
 429 452 429 452 460 390 c 128,-1,67
 491 328 491 328 536 282.5 c 128,-1,68
 581 237 581 237 637.5 211.5 c 128,-1,69
 694 186 694 186 757 186 c 0,70,71
 858 186 858 186 932.5 215 c 128,-1,72
 1007 244 1007 244 1055.5 299 c 128,-1,73
 1104 354 1104 354 1128 432.5 c 128,-1,74
 1152 511 1152 511 1152 610 c 0,75,76
 1152 694 1152 694 1128 768 c 128,-1,77
 1104 842 1104 842 1058 897 c 128,-1,78
 1012 952 1012 952 945 984 c 128,-1,79
 878 1016 878 1016 793 1016 c 0,80,81
 724 1016 724 1016 660 983.5 c 128,-1,82
 596 951 596 951 545.5 896 c 128,-1,83
 495 841 495 841 461 768.5 c 128,-1,84
 427 696 427 696 417 616 c 1,85,-1
 417 525 l 1,65,66
EndSplineSet
EndChar

StartChar: W
Encoding: 87 87 41
Width: 1995
Flags: W
LayerCount: 2
Fore
SplineSet
540 100 m 1,0,1
 502 204 502 204 461 318 c 128,-1,2
 420 432 420 432 377.5 546.5 c 128,-1,3
 335 661 335 661 293.5 773 c 128,-1,4
 252 885 252 885 214.5 986.5 c 128,-1,5
 177 1088 177 1088 144 1175 c 128,-1,6
 111 1262 111 1262 86 1327 c 0,7,8
 73 1360 73 1360 62.5 1395 c 128,-1,9
 52 1430 52 1430 52 1461 c 0,10,11
 52 1570 52 1570 174 1570 c 0,12,13
 188 1570 188 1570 201.5 1567.5 c 128,-1,14
 215 1565 215 1565 228.5 1555 c 128,-1,15
 242 1545 242 1545 254.5 1526.5 c 128,-1,16
 267 1508 267 1508 279 1475 c 0,17,18
 357 1257 357 1257 416 1090 c 128,-1,19
 475 923 475 923 520.5 793 c 128,-1,20
 566 663 566 663 599.5 563 c 128,-1,21
 633 463 633 463 660 380 c 1,22,23
 688 462 688 462 713 535 c 128,-1,24
 738 608 738 608 762 678.5 c 128,-1,25
 786 749 786 749 811 819.5 c 128,-1,26
 836 890 836 890 865 967 c 1,27,28
 857 982 857 982 846.5 1010 c 128,-1,29
 836 1038 836 1038 824 1072 c 128,-1,30
 812 1106 812 1106 799 1143 c 128,-1,31
 786 1180 786 1180 773.5 1214.5 c 128,-1,32
 761 1249 761 1249 750.5 1276.5 c 128,-1,33
 740 1304 740 1304 732 1320 c 0,34,35
 714 1352 714 1352 701 1385 c 128,-1,36
 688 1418 688 1418 688 1444 c 0,37,38
 688 1509 688 1509 715 1536.5 c 128,-1,39
 742 1564 742 1564 808 1564 c 0,40,41
 830 1564 830 1564 847.5 1554 c 128,-1,42
 865 1544 865 1544 882 1515.5 c 128,-1,43
 899 1487 899 1487 919.5 1437 c 128,-1,44
 940 1387 940 1387 970 1307 c 0,45,46
 977 1290 977 1290 983.5 1263 c 128,-1,47
 990 1236 990 1236 997 1218 c 1,48,49
 1007 1239 1007 1239 1017.5 1268 c 128,-1,50
 1028 1297 1028 1297 1038.5 1328.5 c 128,-1,51
 1049 1360 1049 1360 1058.5 1392 c 128,-1,52
 1068 1424 1068 1424 1076 1452 c 1,53,54
 1080 1471 1080 1471 1087.5 1492 c 128,-1,55
 1095 1513 1095 1513 1108.5 1530.5 c 128,-1,56
 1122 1548 1122 1548 1143.5 1559.5 c 128,-1,57
 1165 1571 1165 1571 1199 1571 c 0,58,59
 1250 1571 1250 1571 1280 1538.5 c 128,-1,60
 1310 1506 1310 1506 1310 1452 c 0,61,62
 1310 1424 1310 1424 1298 1393.5 c 128,-1,63
 1286 1363 1286 1363 1270 1332 c 0,64,65
 1227 1244 1227 1244 1191 1162 c 128,-1,66
 1155 1080 1155 1080 1120 990 c 1,67,68
 1143 930 1143 930 1165.5 869 c 128,-1,69
 1188 808 1188 808 1213.5 736 c 128,-1,70
 1239 664 1239 664 1270 576 c 128,-1,71
 1301 488 1301 488 1341 374 c 1,72,73
 1387 505 1387 505 1429 635.5 c 128,-1,74
 1471 766 1471 766 1513.5 896.5 c 128,-1,75
 1556 1027 1556 1027 1600 1156.5 c 128,-1,76
 1644 1286 1644 1286 1694 1415 c 1,77,-1
 1694 1414 l 1,78,79
 1700 1444 1700 1444 1709.5 1472 c 128,-1,80
 1719 1500 1719 1500 1734 1521 c 128,-1,81
 1749 1542 1749 1542 1771.5 1554.5 c 128,-1,82
 1794 1567 1794 1567 1826 1567 c 0,83,84
 1883 1567 1883 1567 1912.5 1538 c 128,-1,85
 1942 1509 1942 1509 1942 1458 c 0,86,87
 1942 1440 1942 1440 1940 1425 c 128,-1,88
 1938 1410 1938 1410 1934.5 1395.5 c 128,-1,89
 1931 1381 1931 1381 1925 1365.5 c 128,-1,90
 1919 1350 1919 1350 1911 1331 c 0,91,92
 1849 1176 1849 1176 1795.5 1031.5 c 128,-1,93
 1742 887 1742 887 1689.5 739.5 c 128,-1,94
 1637 592 1637 592 1583 434 c 128,-1,95
 1529 276 1529 276 1466 94 c 1,96,97
 1468 89 1468 89 1467 86 c 128,-1,98
 1466 83 1466 83 1466 78 c 0,99,100
 1466 56 1466 56 1457.5 36.5 c 128,-1,101
 1449 17 1449 17 1432.5 2 c 128,-1,102
 1416 -13 1416 -13 1390.5 -21.5 c 128,-1,103
 1365 -30 1365 -30 1331 -30 c 0,104,105
 1304 -30 1304 -30 1287 -21.5 c 128,-1,106
 1270 -13 1270 -13 1259.5 0.5 c 128,-1,107
 1249 14 1249 14 1242.5 31 c 128,-1,108
 1236 48 1236 48 1232 65 c 1,109,-1
 1232 64 l 1,110,111
 1210 134 1210 134 1188 191.5 c 128,-1,112
 1166 249 1166 249 1143 311 c 0,113,114
 1107 411 1107 411 1070.5 519.5 c 128,-1,115
 1034 628 1034 628 996 730 c 1,116,117
 975 671 975 671 950 593 c 128,-1,118
 925 515 925 515 897 429.5 c 128,-1,119
 869 344 869 344 839 257 c 128,-1,120
 809 170 809 170 780 92 c 1,121,122
 782 83 782 83 782 74 c 128,-1,123
 782 65 782 65 782 62 c 0,124,125
 782 39 782 39 771.5 22 c 128,-1,126
 761 5 761 5 743.5 -6.5 c 128,-1,127
 726 -18 726 -18 703 -24 c 128,-1,128
 680 -30 680 -30 656 -30 c 0,129,130
 622 -30 622 -30 601 -16.5 c 128,-1,131
 580 -3 580 -3 567.5 17 c 128,-1,132
 555 37 555 37 549 59.5 c 128,-1,133
 543 82 543 82 540 100 c 1,0,1
EndSplineSet
EndChar

StartChar: l
Encoding: 108 108 42
Width: 790
Flags: W
LayerCount: 2
Fore
SplineSet
254 103 m 0,0,1
 254 165 254 165 257 234 c 0,2,3
 259 270 259 270 260 315.5 c 128,-1,4
 261 361 261 361 261 406 c 0,5,6
 261 436 261 436 260.5 501.5 c 128,-1,7
 260 567 260 567 259.5 657 c 128,-1,8
 259 747 259 747 257.5 857 c 128,-1,9
 256 967 256 967 254.5 1086.5 c 128,-1,10
 253 1206 253 1206 251.5 1330 c 128,-1,11
 250 1454 250 1454 248 1573 c 1,12,13
 209 1572 209 1572 169 1568.5 c 128,-1,14
 129 1565 129 1565 87 1565 c 0,15,16
 69 1565 69 1565 50.5 1571 c 128,-1,17
 32 1577 32 1577 17 1589.5 c 128,-1,18
 2 1602 2 1602 -8 1623 c 128,-1,19
 -18 1644 -18 1644 -18 1674 c 0,20,21
 -18 1727 -18 1727 10.5 1754.5 c 128,-1,22
 39 1782 39 1782 77 1782 c 0,23,24
 112 1782 112 1782 146 1778 c 128,-1,25
 180 1774 180 1774 218 1774 c 0,26,27
 246 1774 246 1774 267 1775 c 128,-1,28
 288 1776 288 1776 307.5 1777.5 c 128,-1,29
 327 1779 327 1779 349 1780.5 c 128,-1,30
 371 1782 371 1782 402 1782 c 0,31,32
 444 1782 444 1782 470.5 1755.5 c 128,-1,33
 497 1729 497 1729 497 1674 c 0,34,35
 497 1654 497 1654 493.5 1635 c 128,-1,36
 490 1616 490 1616 485.5 1597 c 128,-1,37
 481 1578 481 1578 477.5 1558.5 c 128,-1,38
 474 1539 474 1539 473 1519 c 1,39,-1
 473 208 l 1,40,41
 514 220 514 220 538.5 226 c 128,-1,42
 563 232 563 232 581 232 c 0,43,44
 686 232 686 232 686 122 c 0,45,46
 686 77 686 77 655.5 52.5 c 128,-1,47
 625 28 625 28 568 14 c 2,48,-1
 468 -12 l 1,49,50
 434 -23 434 -23 415 -26 c 128,-1,51
 396 -29 396 -29 374 -29 c 0,52,53
 342 -29 342 -29 319.5 -17 c 128,-1,54
 297 -5 297 -5 282.5 14.5 c 128,-1,55
 268 34 268 34 261 57 c 128,-1,56
 254 80 254 80 254 103 c 0,0,1
EndSplineSet
EndChar

StartChar: M
Encoding: 77 77 43
Width: 2027
Flags: W
LayerCount: 2
Fore
SplineSet
52 79 m 0,0,1
 52 97 52 97 57 110 c 0,2,3
 65 131 65 131 84.5 195 c 128,-1,4
 104 259 104 259 132.5 353.5 c 128,-1,5
 161 448 161 448 196.5 567 c 128,-1,6
 232 686 232 686 271.5 818.5 c 128,-1,7
 311 951 311 951 352.5 1090 c 128,-1,8
 394 1229 394 1229 434 1364 c 1,9,-1
 434 1363 l 1,10,11
 441 1391 441 1391 449.5 1419.5 c 128,-1,12
 458 1448 458 1448 466.5 1472 c 128,-1,13
 475 1496 475 1496 483.5 1513.5 c 128,-1,14
 492 1531 492 1531 498 1537 c 0,15,16
 514 1554 514 1554 541 1564 c 128,-1,17
 568 1574 568 1574 594 1574 c 0,18,19
 629 1574 629 1574 652 1561.5 c 128,-1,20
 675 1549 675 1549 691.5 1524.5 c 128,-1,21
 708 1500 708 1500 720.5 1464 c 128,-1,22
 733 1428 733 1428 747 1382 c 2,23,-1
 998 585 l 1,24,-1
 1012 543 l 1,25,26
 1066 709 1066 709 1103.5 840 c 128,-1,27
 1141 971 1141 971 1168.5 1073.5 c 128,-1,28
 1196 1176 1196 1176 1216.5 1254 c 128,-1,29
 1237 1332 1237 1332 1257 1394 c 0,30,31
 1267 1425 1267 1425 1277 1457 c 128,-1,32
 1287 1489 1287 1489 1302.5 1515 c 128,-1,33
 1318 1541 1318 1541 1342.5 1557.5 c 128,-1,34
 1367 1574 1367 1574 1408 1574 c 0,35,36
 1443 1574 1443 1574 1469 1563.5 c 128,-1,37
 1495 1553 1495 1553 1510 1516 c 0,38,39
 1517 1499 1517 1499 1524 1481 c 128,-1,40
 1531 1463 1531 1463 1541.5 1435.5 c 128,-1,41
 1552 1408 1552 1408 1567 1366 c 128,-1,42
 1582 1324 1582 1324 1604 1259 c 128,-1,43
 1626 1194 1626 1194 1656 1102 c 128,-1,44
 1686 1010 1686 1010 1727.5 881.5 c 128,-1,45
 1769 753 1769 753 1822.5 583.5 c 128,-1,46
 1876 414 1876 414 1944 196 c 1,47,48
 1956 164 1956 164 1963.5 141 c 128,-1,49
 1971 118 1971 118 1973 98 c 0,50,51
 1975 72 1975 72 1970.5 49 c 128,-1,52
 1966 26 1966 26 1954 8.5 c 128,-1,53
 1942 -9 1942 -9 1921 -19 c 128,-1,54
 1900 -29 1900 -29 1869 -29 c 0,55,56
 1829 -29 1829 -29 1803 -12.5 c 128,-1,57
 1777 4 1777 4 1760.5 28 c 128,-1,58
 1744 52 1744 52 1735 80 c 128,-1,59
 1726 108 1726 108 1721 132 c 1,60,61
 1702 202 1702 202 1678 287.5 c 128,-1,62
 1654 373 1654 373 1627 467 c 128,-1,63
 1600 561 1600 561 1571 658.5 c 128,-1,64
 1542 756 1542 756 1513.5 849.5 c 128,-1,65
 1485 943 1485 943 1457.5 1027 c 128,-1,66
 1430 1111 1430 1111 1406 1179 c 1,67,68
 1368 1073 1368 1073 1337 964.5 c 128,-1,69
 1306 856 1306 856 1275.5 746.5 c 128,-1,70
 1245 637 1245 637 1212.5 527.5 c 128,-1,71
 1180 418 1180 418 1140 310 c 0,72,73
 1132 290 1132 290 1128.5 266 c 128,-1,74
 1125 242 1125 242 1125 226 c 0,75,76
 1125 198 1125 198 1114 180 c 128,-1,77
 1103 162 1103 162 1085.5 151.5 c 128,-1,78
 1068 141 1068 141 1046 136.5 c 128,-1,79
 1024 132 1024 132 1002 132 c 0,80,81
 965 132 965 132 942.5 142.5 c 128,-1,82
 920 153 920 153 906.5 171 c 128,-1,83
 893 189 893 189 886.5 211.5 c 128,-1,84
 880 234 880 234 876 258 c 0,85,86
 874 272 874 272 871.5 285.5 c 128,-1,87
 869 299 869 299 865 313 c 0,88,89
 848 373 848 373 827.5 445.5 c 128,-1,90
 807 518 807 518 784 596.5 c 128,-1,91
 761 675 761 675 736.5 755.5 c 128,-1,92
 712 836 712 836 687.5 912.5 c 128,-1,93
 663 989 663 989 639.5 1058 c 128,-1,94
 616 1127 616 1127 596 1182 c 1,95,96
 571 1114 571 1114 544.5 1022.5 c 128,-1,97
 518 931 518 931 490.5 828.5 c 128,-1,98
 463 726 463 726 435.5 618 c 128,-1,99
 408 510 408 510 381.5 407.5 c 128,-1,100
 355 305 355 305 330 214 c 128,-1,101
 305 123 305 123 283 56 c 1,102,103
 260 17 260 17 237.5 -6 c 128,-1,104
 215 -29 215 -29 171 -29 c 0,105,106
 145 -29 145 -29 123.5 -20.5 c 128,-1,107
 102 -12 102 -12 86 3 c 128,-1,108
 70 18 70 18 61 37.5 c 128,-1,109
 52 57 52 57 52 79 c 0,0,1
EndSplineSet
EndChar

StartChar: j
Encoding: 106 106 44
Width: 762
Flags: W
LayerCount: 2
Fore
SplineSet
445 1378 m 0,0,1
 420 1367 420 1367 394.5 1367.5 c 128,-1,2
 369 1368 369 1368 347 1378.5 c 128,-1,3
 325 1389 325 1389 309 1409 c 128,-1,4
 293 1429 293 1429 289 1457 c 0,5,6
 286 1476 286 1476 291 1500.5 c 128,-1,7
 296 1525 296 1525 303 1550.5 c 128,-1,8
 310 1576 310 1576 317 1600.5 c 128,-1,9
 324 1625 324 1625 326 1645 c 0,10,11
 329 1690 329 1690 353 1720 c 128,-1,12
 377 1750 377 1750 425 1757 c 0,13,14
 460 1763 460 1763 491 1753 c 128,-1,15
 522 1743 522 1743 537 1709 c 0,16,17
 542 1698 542 1698 545 1683.5 c 128,-1,18
 548 1669 548 1669 550 1658 c 0,19,20
 551 1648 551 1648 549.5 1633 c 128,-1,21
 548 1618 548 1618 544 1601.5 c 128,-1,22
 540 1585 540 1585 535 1568.5 c 128,-1,23
 530 1552 530 1552 525 1540 c 0,24,25
 517 1523 517 1523 514.5 1503.5 c 128,-1,26
 512 1484 512 1484 509 1468 c 256,27,28
 506 1452 506 1452 502.5 1439 c 128,-1,29
 499 1426 499 1426 492.5 1415 c 128,-1,30
 486 1404 486 1404 475 1395 c 128,-1,31
 464 1386 464 1386 445 1378 c 0,0,1
47 -304 m 0,32,33
 67 -298 67 -298 136 -272.5 c 128,-1,34
 205 -247 205 -247 332 -182 c 1,35,36
 331 -128 331 -128 330 -70 c 128,-1,37
 329 -12 329 -12 329 53 c 0,38,39
 329 185 329 185 328 321 c 128,-1,40
 327 457 327 457 324.5 583 c 128,-1,41
 322 709 322 709 318.5 819 c 128,-1,42
 315 929 315 929 311 1010 c 1,43,44
 286 1008 286 1008 262 1006.5 c 128,-1,45
 238 1005 238 1005 217.5 1004.5 c 128,-1,46
 197 1004 197 1004 182.5 1003.5 c 128,-1,47
 168 1003 168 1003 163 1003 c 0,48,49
 145 1003 145 1003 126 1008 c 128,-1,50
 107 1013 107 1013 91.5 1025.5 c 128,-1,51
 76 1038 76 1038 66 1059 c 128,-1,52
 56 1080 56 1080 56 1111 c 0,53,54
 56 1162 56 1162 84.5 1190 c 128,-1,55
 113 1218 113 1218 153 1218 c 0,56,57
 168 1218 168 1218 179 1217 c 128,-1,58
 190 1216 190 1216 201.5 1215 c 128,-1,59
 213 1214 213 1214 226 1213 c 128,-1,60
 239 1212 239 1212 258 1213 c 1,61,62
 301 1213 301 1213 345.5 1215 c 128,-1,63
 390 1217 390 1217 445 1217 c 0,64,65
 481 1217 481 1217 501.5 1206 c 128,-1,66
 522 1195 522 1195 532.5 1179.5 c 128,-1,67
 543 1164 543 1164 546 1146 c 128,-1,68
 549 1128 549 1128 549 1114 c 0,69,70
 549 1077 549 1077 544 1041 c 128,-1,71
 539 1005 539 1005 539 963 c 0,72,73
 539 889 539 889 539 820.5 c 128,-1,74
 539 752 539 752 539.5 681.5 c 128,-1,75
 540 611 540 611 540.5 535.5 c 128,-1,76
 541 460 541 460 542 372.5 c 128,-1,77
 543 285 543 285 544 181 c 128,-1,78
 545 77 545 77 547 -49 c 0,79,80
 547 -89 547 -89 550.5 -129.5 c 128,-1,81
 554 -170 554 -170 557 -217 c 1,82,83
 557 -255 557 -255 543 -287 c 128,-1,84
 529 -319 529 -319 494 -335 c 1,85,-1
 494 -334 l 1,86,87
 406 -378 406 -378 331 -415 c 128,-1,88
 256 -452 256 -452 183 -481 c 1,89,90
 151 -504 151 -504 127.5 -512.5 c 128,-1,91
 104 -521 104 -521 81 -521 c 0,92,93
 56 -521 56 -521 34.5 -515 c 128,-1,94
 13 -509 13 -509 -3 -495.5 c 128,-1,95
 -19 -482 -19 -482 -28 -459.5 c 128,-1,96
 -37 -437 -37 -437 -37 -405 c 0,97,98
 -37 -364 -37 -364 -14 -340.5 c 128,-1,99
 9 -317 9 -317 47 -304 c 0,32,33
EndSplineSet
EndChar

StartChar: v
Encoding: 118 118 45
Width: 1307
Flags: W
LayerCount: 2
Fore
SplineSet
389 350 m 0,0,1
 346 397 346 397 302.5 448.5 c 128,-1,2
 259 500 259 500 224.5 560 c 128,-1,3
 190 620 190 620 168.5 691 c 128,-1,4
 147 762 147 762 147 848 c 0,5,6
 147 895 147 895 151.5 928 c 128,-1,7
 156 961 156 961 162 996 c 1,8,-1
 141 996 l 2,9,10
 123 996 123 996 102 1002.5 c 128,-1,11
 81 1009 81 1009 63 1022.5 c 128,-1,12
 45 1036 45 1036 33 1057.5 c 128,-1,13
 21 1079 21 1079 21 1110 c 0,14,15
 21 1137 21 1137 30 1157.5 c 128,-1,16
 39 1178 39 1178 53.5 1191 c 128,-1,17
 68 1204 68 1204 87 1210.5 c 128,-1,18
 106 1217 106 1217 126 1217 c 0,19,20
 129 1217 129 1217 140 1217 c 128,-1,21
 151 1217 151 1217 165 1216 c 0,22,23
 172 1216 172 1216 182.5 1215.5 c 128,-1,24
 193 1215 193 1215 200 1215 c 0,25,26
 236 1213 236 1213 273 1213 c 128,-1,27
 310 1213 310 1213 353 1214 c 0,28,29
 387 1214 387 1214 407.5 1205.5 c 128,-1,30
 428 1197 428 1197 438.5 1184.5 c 128,-1,31
 449 1172 449 1172 452 1156 c 128,-1,32
 455 1140 455 1140 455 1125 c 0,33,34
 455 1104 455 1104 446 1088 c 128,-1,35
 437 1072 437 1072 425 1057 c 128,-1,36
 413 1042 413 1042 400.5 1027 c 128,-1,37
 388 1012 388 1012 382 993 c 0,38,39
 379 981 379 981 375.5 961 c 128,-1,40
 372 941 372 941 369.5 919.5 c 128,-1,41
 367 898 367 898 365.5 876.5 c 128,-1,42
 364 855 364 855 364 839 c 0,43,44
 364 783 364 783 377 739.5 c 128,-1,45
 390 696 390 696 412.5 659 c 128,-1,46
 435 622 435 622 464.5 589 c 128,-1,47
 494 556 494 556 526 522 c 0,48,49
 563 483 563 483 601 437.5 c 128,-1,50
 639 392 639 392 666 336 c 1,51,-1
 671 346 l 2,52,53
 696 398 696 398 730 441 c 128,-1,54
 764 484 764 484 807 527 c 1,55,56
 838 560 838 560 867.5 592 c 128,-1,57
 897 624 897 624 920 660.5 c 128,-1,58
 943 697 943 697 956.5 740.5 c 128,-1,59
 970 784 970 784 970 839 c 0,60,61
 970 882 970 882 965.5 911.5 c 128,-1,62
 961 941 961 941 953.5 962 c 128,-1,63
 946 983 946 983 937 997 c 128,-1,64
 928 1011 928 1011 920 1023 c 1,65,66
 906 1040 906 1040 896 1061 c 128,-1,67
 886 1082 886 1082 886 1116 c 0,68,69
 886 1136 886 1136 891.5 1153.5 c 128,-1,70
 897 1171 897 1171 910.5 1184 c 128,-1,71
 924 1197 924 1197 947.5 1204.5 c 128,-1,72
 971 1212 971 1212 1007 1212 c 0,73,74
 1042 1212 1042 1212 1079 1213.5 c 128,-1,75
 1116 1215 1116 1215 1169 1215 c 0,76,77
 1186 1215 1186 1215 1206 1209 c 128,-1,78
 1226 1203 1226 1203 1242.5 1191 c 128,-1,79
 1259 1179 1259 1179 1270 1161 c 128,-1,80
 1281 1143 1281 1143 1281 1118 c 0,81,82
 1281 1074 1281 1074 1255.5 1044 c 128,-1,83
 1230 1014 1230 1014 1165 1009 c 1,84,85
 1171 988 1171 988 1175.5 962 c 128,-1,86
 1180 936 1180 936 1183 911 c 128,-1,87
 1186 886 1186 886 1187.5 864.5 c 128,-1,88
 1189 843 1189 843 1189 831 c 0,89,90
 1189 764 1189 764 1168 702.5 c 128,-1,91
 1147 641 1147 641 1114 586 c 128,-1,92
 1081 531 1081 531 1040.5 482 c 128,-1,93
 1000 433 1000 433 961 391 c 1,94,95
 929 355 929 355 897.5 317.5 c 128,-1,96
 866 280 866 280 840.5 241 c 128,-1,97
 815 202 815 202 798 161.5 c 128,-1,98
 781 121 781 121 780 79 c 1,99,100
 778 40 778 40 766.5 18 c 128,-1,101
 755 -4 755 -4 738.5 -14.5 c 128,-1,102
 722 -25 722 -25 704 -27 c 128,-1,103
 686 -29 686 -29 672 -29 c 0,104,105
 651 -29 651 -29 630 -22 c 128,-1,106
 609 -15 609 -15 592 -2.5 c 128,-1,107
 575 10 575 10 564 27 c 128,-1,108
 553 44 553 44 553 64 c 0,109,110
 552 103 552 103 538.5 139.5 c 128,-1,111
 525 176 525 176 502.5 211 c 128,-1,112
 480 246 480 246 450.5 280.5 c 128,-1,113
 421 315 421 315 389 350 c 0,0,1
EndSplineSet
EndChar

StartChar: w
Encoding: 119 119 46
Width: 1770
Flags: W
LayerCount: 2
Fore
SplineSet
449 138 m 1,0,1
 304 509 304 509 216 722.5 c 128,-1,2
 128 936 128 936 91 1002 c 1,3,-1
 91 1001 l 1,4,5
 74 1030 74 1030 61 1065.5 c 128,-1,6
 48 1101 48 1101 48 1123 c 0,7,8
 48 1150 48 1150 59 1170.5 c 128,-1,9
 70 1191 70 1191 87.5 1204.5 c 128,-1,10
 105 1218 105 1218 126 1225 c 128,-1,11
 147 1232 147 1232 167 1232 c 0,12,13
 195 1232 195 1232 212.5 1225 c 128,-1,14
 230 1218 230 1218 241.5 1205 c 128,-1,15
 253 1192 253 1192 261 1173.5 c 128,-1,16
 269 1155 269 1155 278 1131 c 1,17,18
 363 937 363 937 440 738.5 c 128,-1,19
 517 540 517 540 603 329 c 1,20,21
 624 384 624 384 643 438 c 128,-1,22
 662 492 662 492 684 552 c 0,23,24
 709 621 709 621 732 686.5 c 128,-1,25
 755 752 755 752 780 816 c 1,26,27
 760 864 760 864 739 911.5 c 128,-1,28
 718 959 718 959 693 1006 c 0,29,30
 676 1036 676 1036 667.5 1065.5 c 128,-1,31
 659 1095 659 1095 659 1118 c 0,32,33
 659 1145 659 1145 668 1166 c 128,-1,34
 677 1187 677 1187 692.5 1202 c 128,-1,35
 708 1217 708 1217 727.5 1224.5 c 128,-1,36
 747 1232 747 1232 768 1232 c 0,37,38
 796 1232 796 1232 815 1222.5 c 128,-1,39
 834 1213 834 1213 847 1197.5 c 128,-1,40
 860 1182 860 1182 869 1162 c 128,-1,41
 878 1142 878 1142 886 1121 c 0,42,43
 888 1115 888 1115 889.5 1111 c 128,-1,44
 891 1107 891 1107 894 1100 c 1,45,-1
 899 1114 l 1,46,47
 908 1135 908 1135 919 1156.5 c 128,-1,48
 930 1178 930 1178 945.5 1194.5 c 128,-1,49
 961 1211 961 1211 981 1221.5 c 128,-1,50
 1001 1232 1001 1232 1028 1232 c 0,51,52
 1048 1232 1048 1232 1067.5 1225 c 128,-1,53
 1087 1218 1087 1218 1103 1204 c 128,-1,54
 1119 1190 1119 1190 1128.5 1170 c 128,-1,55
 1138 1150 1138 1150 1138 1125 c 0,56,57
 1138 1099 1138 1099 1128.5 1078 c 128,-1,58
 1119 1057 1119 1057 1108 1038 c 1,59,-1
 1009 813 l 1,60,-1
 1203 329 l 1,61,-1
 1464 1030 l 1,62,63
 1471 1060 1471 1060 1481 1095 c 128,-1,64
 1491 1130 1491 1130 1508 1160.5 c 128,-1,65
 1525 1191 1525 1191 1551.5 1211.5 c 128,-1,66
 1578 1232 1578 1232 1618 1232 c 0,67,68
 1645 1232 1645 1232 1667 1222.5 c 128,-1,69
 1689 1213 1689 1213 1705 1198 c 128,-1,70
 1721 1183 1721 1183 1729.5 1163.5 c 128,-1,71
 1738 1144 1738 1144 1738 1125 c 0,72,73
 1738 1102 1738 1102 1731 1083.5 c 128,-1,74
 1724 1065 1724 1065 1714.5 1047.5 c 128,-1,75
 1705 1030 1705 1030 1693.5 1013.5 c 128,-1,76
 1682 997 1682 997 1673 978 c 0,77,78
 1667 966 1667 966 1656.5 939 c 128,-1,79
 1646 912 1646 912 1631 874 c 128,-1,80
 1616 836 1616 836 1598.5 790 c 128,-1,81
 1581 744 1581 744 1562 695 c 0,82,83
 1539 634 1539 634 1513.5 569 c 128,-1,84
 1488 504 1488 504 1463 440 c 128,-1,85
 1438 376 1438 376 1413.5 316.5 c 128,-1,86
 1389 257 1389 257 1368 208 c 0,87,88
 1354 177 1354 177 1346 152.5 c 128,-1,89
 1338 128 1338 128 1332 105 c 1,90,91
 1322 74 1322 74 1313 49.5 c 128,-1,92
 1304 25 1304 25 1290.5 7.5 c 128,-1,93
 1277 -10 1277 -10 1255.5 -19.5 c 128,-1,94
 1234 -29 1234 -29 1200 -29 c 0,95,96
 1158 -29 1158 -29 1122 14 c 128,-1,97
 1086 57 1086 57 1050 144 c 1,98,99
 1011 242 1011 242 975 341 c 128,-1,100
 939 440 939 440 897 543 c 1,101,102
 855 435 855 435 810.5 329 c 128,-1,103
 766 223 766 223 731 106 c 0,104,105
 722 79 722 79 712.5 54.5 c 128,-1,106
 703 30 703 30 688.5 11.5 c 128,-1,107
 674 -7 674 -7 653.5 -18 c 128,-1,108
 633 -29 633 -29 603 -29 c 0,109,110
 579 -29 579 -29 559 -20 c 128,-1,111
 539 -11 539 -11 521 9.5 c 128,-1,112
 503 30 503 30 485.5 61.5 c 128,-1,113
 468 93 468 93 449 138 c 1,0,1
EndSplineSet
EndChar

StartChar: acute
Encoding: 180 180 55
Width: 675
Flags: W
LayerCount: 2
Fore
SplineSet
121 1413 m 0,0,1
 101 1413 101 1413 82 1422 c 128,-1,2
 63 1431 63 1431 48.5 1445.5 c 128,-1,3
 34 1460 34 1460 25.5 1477.5 c 128,-1,4
 17 1495 17 1495 17 1513 c 0,5,6
 17 1537 17 1537 31.5 1562.5 c 128,-1,7
 46 1588 46 1588 67.5 1612 c 128,-1,8
 89 1636 89 1636 113.5 1658 c 128,-1,9
 138 1680 138 1680 158 1697 c 1,10,-1
 266 1803 l 1,11,-1
 266 1802 l 1,12,13
 284 1821 284 1821 299.5 1835.5 c 128,-1,14
 315 1850 315 1850 330.5 1860 c 128,-1,15
 346 1870 346 1870 362.5 1875.5 c 128,-1,16
 379 1881 379 1881 400 1881 c 0,17,18
 425 1881 425 1881 447.5 1873 c 128,-1,19
 470 1865 470 1865 486.5 1849.5 c 128,-1,20
 503 1834 503 1834 512.5 1812 c 128,-1,21
 522 1790 522 1790 522 1762 c 0,22,23
 522 1744 522 1744 513 1727 c 128,-1,24
 504 1710 504 1710 491.5 1696.5 c 128,-1,25
 479 1683 479 1683 466 1673.5 c 128,-1,26
 453 1664 453 1664 445 1661 c 1,27,-1
 446 1662 l 1,28,29
 423 1642 423 1642 396 1618 c 128,-1,30
 369 1594 369 1594 340.5 1567.5 c 128,-1,31
 312 1541 312 1541 284.5 1515 c 128,-1,32
 257 1489 257 1489 233 1466 c 0,33,34
 196 1432 196 1432 170 1422.5 c 128,-1,35
 144 1413 144 1413 121 1413 c 0,0,1
EndSplineSet
EndChar

StartChar: grave
Encoding: 96 96 56
Width: 676
Flags: W
LayerCount: 2
Fore
SplineSet
431 1404 m 0,0,1
 408 1404 408 1404 392 1408.5 c 128,-1,2
 376 1413 376 1413 362 1422.5 c 128,-1,3
 348 1432 348 1432 334 1446 c 128,-1,4
 320 1460 320 1460 302 1480 c 1,5,-1
 302 1479 l 1,6,7
 254 1527 254 1527 206 1573.5 c 128,-1,8
 158 1620 158 1620 103 1667 c 0,9,10
 70 1694 70 1694 60 1717 c 128,-1,11
 50 1740 50 1740 50 1772 c 0,12,13
 50 1789 50 1789 58.5 1807.5 c 128,-1,14
 67 1826 67 1826 81.5 1841 c 128,-1,15
 96 1856 96 1856 114.5 1865.5 c 128,-1,16
 133 1875 133 1875 154 1875 c 256,17,18
 175 1875 175 1875 202 1862.5 c 128,-1,19
 229 1850 229 1850 263 1819 c 1,20,21
 315 1769 315 1769 350.5 1735 c 128,-1,22
 386 1701 386 1701 409.5 1679.5 c 128,-1,23
 433 1658 433 1658 447 1645.5 c 128,-1,24
 461 1633 461 1633 471 1625 c 1,25,26
 479 1622 479 1622 492 1612 c 128,-1,27
 505 1602 505 1602 517.5 1588 c 128,-1,28
 530 1574 530 1574 539 1557.5 c 128,-1,29
 548 1541 548 1541 548 1523 c 0,30,31
 548 1466 548 1466 514.5 1435 c 128,-1,32
 481 1404 481 1404 431 1404 c 0,0,1
EndSplineSet
EndChar

StartChar: s
Encoding: 115 115 57
Width: 1249
Flags: W
LayerCount: 2
Fore
SplineSet
122 259 m 0,0,1
 122 282 122 282 133 301 c 128,-1,2
 144 320 144 320 160.5 333.5 c 128,-1,3
 177 347 177 347 197 354.5 c 128,-1,4
 217 362 217 362 236 362 c 0,5,6
 259 362 259 362 275 357 c 128,-1,7
 291 352 291 352 303 343 c 128,-1,8
 315 334 315 334 324 322 c 128,-1,9
 333 310 333 310 343 296 c 0,10,11
 383 236 383 236 460 203.5 c 128,-1,12
 537 171 537 171 661 171 c 0,13,14
 712 171 712 171 757.5 180 c 128,-1,15
 803 189 803 189 837.5 207 c 128,-1,16
 872 225 872 225 892.5 251 c 128,-1,17
 913 277 913 277 913 311 c 0,18,19
 913 357 913 357 886.5 389 c 128,-1,20
 860 421 860 421 816.5 444 c 128,-1,21
 773 467 773 467 718 483 c 128,-1,22
 663 499 663 499 605 514 c 0,23,24
 552 527 552 527 498 542.5 c 128,-1,25
 444 558 444 558 393 578.5 c 128,-1,26
 342 599 342 599 297.5 627.5 c 128,-1,27
 253 656 253 656 220 695 c 128,-1,28
 187 734 187 734 167.5 785.5 c 128,-1,29
 148 837 148 837 148 904 c 0,30,31
 148 994 148 994 190.5 1056.5 c 128,-1,32
 233 1119 233 1119 300.5 1158 c 128,-1,33
 368 1197 368 1197 451 1214.5 c 128,-1,34
 534 1232 534 1232 614 1232 c 0,35,36
 660 1232 660 1232 698 1227 c 128,-1,37
 736 1222 736 1222 769 1214 c 128,-1,38
 802 1206 802 1206 832 1194.5 c 128,-1,39
 862 1183 862 1183 892 1171 c 1,40,41
 896 1186 896 1186 904.5 1201.5 c 128,-1,42
 913 1217 913 1217 925 1229.5 c 128,-1,43
 937 1242 937 1242 953 1250 c 128,-1,44
 969 1258 969 1258 989 1258 c 0,45,46
 1038 1258 1038 1258 1065 1239 c 128,-1,47
 1092 1220 1092 1220 1092 1172 c 0,48,49
 1092 1134 1092 1134 1089 1093 c 128,-1,50
 1086 1052 1086 1052 1086 1003 c 1,51,52
 1091 991 1091 991 1093 976.5 c 128,-1,53
 1095 962 1095 962 1095 951 c 0,54,55
 1095 927 1095 927 1087 910.5 c 128,-1,56
 1079 894 1079 894 1065 883.5 c 128,-1,57
 1051 873 1051 873 1032.5 868 c 128,-1,58
 1014 863 1014 863 992 863 c 0,59,60
 972 863 972 863 953.5 870 c 128,-1,61
 935 877 935 877 920 888.5 c 128,-1,62
 905 900 905 900 894 915 c 128,-1,63
 883 930 883 930 877 946 c 1,64,65
 861 959 861 959 836.5 975.5 c 128,-1,66
 812 992 812 992 778.5 1006 c 128,-1,67
 745 1020 745 1020 702 1029.5 c 128,-1,68
 659 1039 659 1039 607 1039 c 0,69,70
 556 1039 556 1039 512.5 1029.5 c 128,-1,71
 469 1020 469 1020 437.5 1002 c 128,-1,72
 406 984 406 984 388 959 c 128,-1,73
 370 934 370 934 370 903 c 0,74,75
 370 863 370 863 394.5 834.5 c 128,-1,76
 419 806 419 806 460 784.5 c 128,-1,77
 501 763 501 763 555.5 746 c 128,-1,78
 610 729 610 729 669 713 c 0,79,80
 750 691 750 691 832.5 664 c 128,-1,81
 915 637 915 637 981.5 594.5 c 128,-1,82
 1048 552 1048 552 1090 487.5 c 128,-1,83
 1132 423 1132 423 1132 326 c 0,84,85
 1132 251 1132 251 1109 196 c 128,-1,86
 1086 141 1086 141 1048 101.5 c 128,-1,87
 1010 62 1010 62 959.5 36.5 c 128,-1,88
 909 11 909 11 854.5 -3.5 c 128,-1,89
 800 -18 800 -18 744 -23.5 c 128,-1,90
 688 -29 688 -29 638 -29 c 0,91,92
 568 -29 568 -29 503 -16 c 128,-1,93
 438 -3 438 -3 380.5 19 c 128,-1,94
 323 41 323 41 275.5 70 c 128,-1,95
 228 99 228 99 194 131 c 128,-1,96
 160 163 160 163 141 196 c 128,-1,97
 122 229 122 229 122 259 c 0,0,1
EndSplineSet
EndChar

StartChar: x
Encoding: 120 120 58
Width: 1297
Flags: W
LayerCount: 2
Fore
SplineSet
141 87 m 0,0,1
 141 107 141 107 143 120.5 c 128,-1,2
 145 134 145 134 152 146 c 128,-1,3
 159 158 159 158 171 172 c 128,-1,4
 183 186 183 186 203 208 c 0,5,6
 222 229 222 229 249.5 259.5 c 128,-1,7
 277 290 277 290 314.5 335.5 c 128,-1,8
 352 381 352 381 401 445 c 128,-1,9
 450 509 450 509 513 596 c 1,10,11
 474 641 474 641 434.5 687.5 c 128,-1,12
 395 734 395 734 356 782 c 0,13,14
 314 835 314 835 271.5 887 c 128,-1,15
 229 939 229 939 186 988 c 0,16,17
 162 1014 162 1014 141.5 1049 c 128,-1,18
 121 1084 121 1084 121 1126 c 0,19,20
 121 1148 121 1148 131.5 1167.5 c 128,-1,21
 142 1187 142 1187 158.5 1201 c 128,-1,22
 175 1215 175 1215 196 1223.5 c 128,-1,23
 217 1232 217 1232 237 1232 c 0,24,25
 266 1232 266 1232 297 1209.5 c 128,-1,26
 328 1187 328 1187 348 1142 c 1,27,-1
 347 1143 l 1,28,-1
 637 772 l 1,29,-1
 887 1114 l 1,30,-1
 887 1113 l 1,31,32
 898 1132 898 1132 910 1153 c 128,-1,33
 922 1174 922 1174 938.5 1191.5 c 128,-1,34
 955 1209 955 1209 976.5 1220.5 c 128,-1,35
 998 1232 998 1232 1027 1232 c 0,36,37
 1046 1232 1046 1232 1066 1223 c 128,-1,38
 1086 1214 1086 1214 1103 1198.5 c 128,-1,39
 1120 1183 1120 1183 1131 1162 c 128,-1,40
 1142 1141 1142 1141 1142 1116 c 0,41,42
 1142 1096 1142 1096 1129 1069.5 c 128,-1,43
 1116 1043 1116 1043 1097.5 1015.5 c 128,-1,44
 1079 988 1079 988 1059 963 c 128,-1,45
 1039 938 1039 938 1026 922 c 0,46,47
 1011 902 1011 902 993 878.5 c 128,-1,48
 975 855 975 855 947.5 818.5 c 128,-1,49
 920 782 920 782 878.5 727.5 c 128,-1,50
 837 673 837 673 775 592 c 1,51,52
 844 506 844 506 894.5 446 c 128,-1,53
 945 386 945 386 985.5 341.5 c 128,-1,54
 1026 297 1026 297 1060.5 261 c 128,-1,55
 1095 225 1095 225 1132 187 c 1,56,57
 1145 172 1145 172 1153.5 153.5 c 128,-1,58
 1162 135 1162 135 1167 117.5 c 128,-1,59
 1172 100 1172 100 1174.5 85.5 c 128,-1,60
 1177 71 1177 71 1177 64 c 0,61,62
 1177 19 1177 19 1150 -5 c 128,-1,63
 1123 -29 1123 -29 1058 -29 c 0,64,65
 1051 -29 1051 -29 1038 -23 c 128,-1,66
 1025 -17 1025 -17 1011 -9.5 c 128,-1,67
 997 -2 997 -2 985 6 c 128,-1,68
 973 14 973 14 968 19 c 0,69,70
 938 54 938 54 916.5 81 c 128,-1,71
 895 108 895 108 876.5 132.5 c 128,-1,72
 858 157 858 157 839.5 183 c 128,-1,73
 821 209 821 209 796 242.5 c 128,-1,74
 771 276 771 276 736 320 c 128,-1,75
 701 364 701 364 650 425 c 1,76,77
 587 338 587 338 523 253.5 c 128,-1,78
 459 169 459 169 396 82 c 1,79,80
 391 67 391 67 381 47.5 c 128,-1,81
 371 28 371 28 356 11 c 128,-1,82
 341 -6 341 -6 319.5 -17.5 c 128,-1,83
 298 -29 298 -29 269 -29 c 0,84,85
 257 -29 257 -29 235.5 -24 c 128,-1,86
 214 -19 214 -19 193 -5.5 c 128,-1,87
 172 8 172 8 156.5 30 c 128,-1,88
 141 52 141 52 141 87 c 0,0,1
EndSplineSet
EndChar

StartChar: f
Encoding: 102 102 59
Width: 964
Flags: W
LayerCount: 2
Fore
SplineSet
280 89 m 0,0,1
 280 109 280 109 282 129 c 128,-1,2
 284 149 284 149 285 168 c 1,3,-1
 268 997 l 1,4,-1
 237 997 l 2,5,6
 219 997 219 997 200 1002 c 128,-1,7
 181 1007 181 1007 165.5 1019.5 c 128,-1,8
 150 1032 150 1032 140 1052.5 c 128,-1,9
 130 1073 130 1073 130 1104 c 0,10,11
 130 1155 130 1155 158.5 1182.5 c 128,-1,12
 187 1210 187 1210 225 1210 c 0,13,14
 235 1210 235 1210 243 1207 c 128,-1,15
 251 1204 251 1204 262 1203 c 1,16,17
 261 1221 261 1221 259.5 1243.5 c 128,-1,18
 258 1266 258 1266 257 1288.5 c 128,-1,19
 256 1311 256 1311 255.5 1331.5 c 128,-1,20
 255 1352 255 1352 255 1367 c 0,21,22
 255 1477 255 1477 283 1555.5 c 128,-1,23
 311 1634 311 1634 362.5 1684.5 c 128,-1,24
 414 1735 414 1735 486.5 1758.5 c 128,-1,25
 559 1782 559 1782 648 1782 c 0,26,27
 731 1782 731 1782 788 1760.5 c 128,-1,28
 845 1739 845 1739 880.5 1707.5 c 128,-1,29
 916 1676 916 1676 931.5 1640 c 128,-1,30
 947 1604 947 1604 947 1575 c 0,31,32
 947 1528 947 1528 916.5 1502 c 128,-1,33
 886 1476 886 1476 841 1476 c 0,34,35
 806 1476 806 1476 784 1491.5 c 128,-1,36
 762 1507 762 1507 737 1534 c 0,37,38
 723 1549 723 1549 698.5 1564.5 c 128,-1,39
 674 1580 674 1580 629 1580 c 0,40,41
 550 1580 550 1580 512.5 1513 c 128,-1,42
 475 1446 475 1446 475 1315 c 0,43,44
 475 1301 475 1301 477 1269.5 c 128,-1,45
 479 1238 479 1238 482 1208 c 1,46,47
 533 1209 533 1209 594.5 1209 c 128,-1,48
 656 1209 656 1209 731 1209 c 0,49,50
 780 1209 780 1209 805.5 1179 c 128,-1,51
 831 1149 831 1149 831 1110 c 0,52,53
 831 1089 831 1089 823 1069 c 128,-1,54
 815 1049 815 1049 800 1033 c 128,-1,55
 785 1017 785 1017 762.5 1007 c 128,-1,56
 740 997 740 997 711 997 c 2,57,-1
 492 997 l 1,58,-1
 501 203 l 1,59,60
 526 209 526 209 547 217 c 0,61,62
 577 227 577 227 602 234 c 128,-1,63
 627 241 627 241 652 241 c 0,64,65
 669 241 669 241 686 233.5 c 128,-1,66
 703 226 703 226 716.5 212 c 128,-1,67
 730 198 730 198 738.5 178.5 c 128,-1,68
 747 159 747 159 747 136 c 0,69,70
 747 98 747 98 721.5 68 c 128,-1,71
 696 38 696 38 645 27 c 0,72,73
 625 22 625 22 599.5 15.5 c 128,-1,74
 574 9 574 9 539 -1 c 0,75,76
 499 -12 499 -12 458.5 -20.5 c 128,-1,77
 418 -29 418 -29 396 -29 c 0,78,79
 376 -29 376 -29 355.5 -24 c 128,-1,80
 335 -19 335 -19 318.5 -5.5 c 128,-1,81
 302 8 302 8 291 30.5 c 128,-1,82
 280 53 280 53 280 89 c 0,0,1
EndSplineSet
EndChar

StartChar: c
Encoding: 99 99 60
Width: 1385
Flags: W
LayerCount: 2
Fore
SplineSet
114 604 m 0,0,1
 114 685 114 685 130.5 763 c 128,-1,2
 147 841 147 841 181.5 911 c 128,-1,3
 216 981 216 981 268.5 1039.5 c 128,-1,4
 321 1098 321 1098 393.5 1141 c 128,-1,5
 466 1184 466 1184 558.5 1208 c 128,-1,6
 651 1232 651 1232 766 1232 c 0,7,8
 838 1232 838 1232 900 1216 c 128,-1,9
 962 1200 962 1200 1004 1173 c 1,10,11
 1009 1203 1009 1203 1021.5 1222 c 128,-1,12
 1034 1241 1034 1241 1050.5 1251.5 c 128,-1,13
 1067 1262 1067 1262 1086 1266 c 128,-1,14
 1105 1270 1105 1270 1123 1270 c 0,15,16
 1171 1270 1171 1270 1198 1244 c 128,-1,17
 1225 1218 1225 1218 1225 1176 c 0,18,19
 1225 1154 1225 1154 1222 1131.5 c 128,-1,20
 1219 1109 1219 1109 1219 1083 c 0,21,22
 1219 1037 1219 1037 1229 993 c 128,-1,23
 1239 949 1239 949 1239 904 c 0,24,25
 1239 856 1239 856 1214 822.5 c 128,-1,26
 1189 789 1189 789 1137 789 c 0,27,28
 1110 789 1110 789 1092.5 795.5 c 128,-1,29
 1075 802 1075 802 1062.5 813.5 c 128,-1,30
 1050 825 1050 825 1041 840.5 c 128,-1,31
 1032 856 1032 856 1023 874 c 0,32,33
 1011 898 1011 898 994.5 923.5 c 128,-1,34
 978 949 978 949 947 969.5 c 128,-1,35
 916 990 916 990 865 1003 c 128,-1,36
 814 1016 814 1016 733 1016 c 0,37,38
 638 1016 638 1016 566.5 980.5 c 128,-1,39
 495 945 495 945 447.5 886 c 128,-1,40
 400 827 400 827 376 750 c 128,-1,41
 352 673 352 673 352 590 c 0,42,43
 352 526 352 526 374 455 c 128,-1,44
 396 384 396 384 443.5 324 c 128,-1,45
 491 264 491 264 564.5 225 c 128,-1,46
 638 186 638 186 740 186 c 0,47,48
 778 186 778 186 820 195 c 128,-1,49
 862 204 862 204 903 222 c 128,-1,50
 944 240 944 240 981 266.5 c 128,-1,51
 1018 293 1018 293 1045 328 c 0,52,53
 1062 349 1062 349 1090.5 367 c 128,-1,54
 1119 385 1119 385 1149 383 c 256,55,56
 1179 381 1179 381 1199 370.5 c 128,-1,57
 1219 360 1219 360 1231 344.5 c 128,-1,58
 1243 329 1243 329 1247 310.5 c 128,-1,59
 1251 292 1251 292 1250 275 c 0,60,61
 1247 232 1247 232 1226 196.5 c 128,-1,62
 1205 161 1205 161 1180 133 c 1,63,64
 1134 87 1134 87 1079 56 c 128,-1,65
 1024 25 1024 25 965 6 c 128,-1,66
 906 -13 906 -13 846 -21 c 128,-1,67
 786 -29 786 -29 730 -29 c 0,68,69
 595 -29 595 -29 481.5 21.5 c 128,-1,70
 368 72 368 72 286.5 158 c 128,-1,71
 205 244 205 244 159.5 359.5 c 128,-1,72
 114 475 114 475 114 604 c 0,0,1
EndSplineSet
EndChar

StartChar: y
Encoding: 121 121 61
Width: 1457
Flags: W
LayerCount: 2
Fore
SplineSet
208 -222 m 0,0,1
 208 -206 208 -206 214.5 -186 c 128,-1,2
 221 -166 221 -166 235.5 -148.5 c 128,-1,3
 250 -131 250 -131 273 -119 c 128,-1,4
 296 -107 296 -107 329 -107 c 0,5,6
 344 -107 344 -107 358 -113.5 c 128,-1,7
 372 -120 372 -120 384 -130.5 c 128,-1,8
 396 -141 396 -141 406.5 -153 c 128,-1,9
 417 -165 417 -165 426 -175 c 0,10,11
 456 -212 456 -212 488 -234 c 128,-1,12
 520 -256 520 -256 554.5 -267.5 c 128,-1,13
 589 -279 589 -279 627 -282.5 c 128,-1,14
 665 -286 665 -286 707 -286 c 0,15,16
 784 -286 784 -286 849.5 -268.5 c 128,-1,17
 915 -251 915 -251 963 -208.5 c 128,-1,18
 1011 -166 1011 -166 1039.5 -94.5 c 128,-1,19
 1068 -23 1068 -23 1071 84 c 0,20,21
 1071 86 1071 86 1070.5 88 c 128,-1,22
 1070 90 1070 90 1070 92 c 1,23,24
 1043 66 1043 66 1008.5 44 c 128,-1,25
 974 22 974 22 931.5 6 c 128,-1,26
 889 -10 889 -10 838 -19.5 c 128,-1,27
 787 -29 787 -29 726 -29 c 0,28,29
 607 -29 607 -29 499 3 c 128,-1,30
 391 35 391 35 309 108 c 128,-1,31
 227 181 227 181 178.5 297.5 c 128,-1,32
 130 414 130 414 130 584 c 0,33,34
 130 618 130 618 136 661.5 c 128,-1,35
 142 705 142 705 154 753 c 128,-1,36
 166 801 166 801 184.5 850 c 128,-1,37
 203 899 203 899 229 944 c 1,38,39
 224 943 224 943 219.5 943 c 128,-1,40
 215 943 215 943 210 943 c 0,41,42
 187 943 187 943 167.5 952 c 128,-1,43
 148 961 148 961 133.5 975 c 128,-1,44
 119 989 119 989 111 1006 c 128,-1,45
 103 1023 103 1023 103 1039 c 0,46,47
 103 1065 103 1065 111 1085.5 c 128,-1,48
 119 1106 119 1106 138.5 1122.5 c 128,-1,49
 158 1139 158 1139 190 1151.5 c 128,-1,50
 222 1164 222 1164 270 1174 c 0,51,52
 308 1182 308 1182 341.5 1191.5 c 128,-1,53
 375 1201 375 1201 400 1209 c 0,54,55
 433 1219 433 1219 458.5 1225.5 c 128,-1,56
 484 1232 484 1232 510 1232 c 0,57,58
 552 1232 552 1232 581.5 1204.5 c 128,-1,59
 611 1177 611 1177 611 1131 c 0,60,61
 611 1108 611 1108 602.5 1082.5 c 128,-1,62
 594 1057 594 1057 566 1037 c 1,63,64
 538 1026 538 1026 511 1000 c 128,-1,65
 484 974 484 974 460 938 c 128,-1,66
 436 902 436 902 416 859 c 128,-1,67
 396 816 396 816 381.5 770.5 c 128,-1,68
 367 725 367 725 359 679 c 128,-1,69
 351 633 351 633 351 592 c 0,70,71
 351 478 351 478 381.5 399.5 c 128,-1,72
 412 321 412 321 463 272.5 c 128,-1,73
 514 224 514 224 581 203 c 128,-1,74
 648 182 648 182 722 182 c 0,75,76
 852 182 852 182 935.5 222.5 c 128,-1,77
 1019 263 1019 263 1068 346 c 1,78,-1
 1068 369 l 1,79,-1
 1068 977 l 1,80,81
 1053 972 1053 972 1036 967 c 128,-1,82
 1019 962 1019 962 1002.5 958 c 128,-1,83
 986 954 986 954 972 951.5 c 128,-1,84
 958 949 958 949 949 949 c 0,85,86
 928 949 928 949 907.5 954 c 128,-1,87
 887 959 887 959 870.5 970.5 c 128,-1,88
 854 982 854 982 843.5 1001 c 128,-1,89
 833 1020 833 1020 833 1049 c 0,90,91
 833 1097 833 1097 858 1126.5 c 128,-1,92
 883 1156 883 1156 939 1165 c 1,93,-1
 1094 1209 l 1,94,-1
 1093 1208 l 1,95,96
 1114 1219 1114 1219 1141 1225.5 c 128,-1,97
 1168 1232 1168 1232 1183 1232 c 0,98,99
 1194 1232 1194 1232 1212.5 1230 c 128,-1,100
 1231 1228 1231 1228 1248.5 1217.5 c 128,-1,101
 1266 1207 1266 1207 1279 1183 c 128,-1,102
 1292 1159 1292 1159 1292 1116 c 0,103,104
 1292 1104 1292 1104 1291 1092 c 128,-1,105
 1290 1080 1290 1080 1288 1071 c 1,106,107
 1288 1071 1288 1071 1288 1067 c 128,-1,108
 1288 1063 1288 1063 1287.5 1040 c 128,-1,109
 1287 1017 1287 1017 1287 968 c 128,-1,110
 1287 919 1287 919 1286.5 829 c 128,-1,111
 1286 739 1286 739 1285 600.5 c 128,-1,112
 1284 462 1284 462 1283 260 c 0,113,114
 1283 216 1283 216 1286 171.5 c 128,-1,115
 1289 127 1289 127 1289 72 c 0,116,117
 1289 -95 1289 -95 1245.5 -205.5 c 128,-1,118
 1202 -316 1202 -316 1123.5 -381 c 128,-1,119
 1045 -446 1045 -446 936 -472.5 c 128,-1,120
 827 -499 827 -499 697 -499 c 0,121,122
 603 -499 603 -499 515 -478.5 c 128,-1,123
 427 -458 427 -458 358.5 -421 c 128,-1,124
 290 -384 290 -384 249 -333 c 128,-1,125
 208 -282 208 -282 208 -222 c 0,0,1
EndSplineSet
EndChar

StartChar: g
Encoding: 103 103 62
Width: 1507
Flags: W
LayerCount: 2
Fore
SplineSet
242 -255 m 0,0,1
 242 -232 242 -232 249.5 -209 c 128,-1,2
 257 -186 257 -186 270.5 -168 c 128,-1,3
 284 -150 284 -150 303.5 -138.5 c 128,-1,4
 323 -127 323 -127 346 -127 c 0,5,6
 363 -127 363 -127 387.5 -134 c 128,-1,7
 412 -141 412 -141 428 -154 c 1,8,9
 453 -177 453 -177 481.5 -200 c 128,-1,10
 510 -223 510 -223 546 -241 c 128,-1,11
 582 -259 582 -259 627.5 -270.5 c 128,-1,12
 673 -282 673 -282 734 -282 c 0,13,14
 794 -282 794 -282 858.5 -260 c 128,-1,15
 923 -238 923 -238 976.5 -195 c 128,-1,16
 1030 -152 1030 -152 1064.5 -88 c 128,-1,17
 1099 -24 1099 -24 1099 60 c 0,18,19
 1099 74 1099 74 1098 90.5 c 128,-1,20
 1097 107 1097 107 1097 123 c 1,21,22
 1071 91 1071 91 1036 63 c 128,-1,23
 1001 35 1001 35 954 14.5 c 128,-1,24
 907 -6 907 -6 845.5 -17.5 c 128,-1,25
 784 -29 784 -29 705 -29 c 0,26,27
 576 -29 576 -29 468 18.5 c 128,-1,28
 360 66 360 66 282 150.5 c 128,-1,29
 204 235 204 235 160 350 c 128,-1,30
 116 465 116 465 115 600 c 0,31,32
 113 744 113 744 158.5 860.5 c 128,-1,33
 204 977 204 977 285 1059.5 c 128,-1,34
 366 1142 366 1142 476 1187 c 128,-1,35
 586 1232 586 1232 715 1232 c 0,36,37
 852 1232 852 1232 952 1192 c 128,-1,38
 1052 1152 1052 1152 1122 1075 c 1,39,40
 1127 1091 1127 1091 1135 1106.5 c 128,-1,41
 1143 1122 1143 1122 1155.5 1134 c 128,-1,42
 1168 1146 1168 1146 1184.5 1153.5 c 128,-1,43
 1201 1161 1201 1161 1224 1161 c 0,44,45
 1258 1161 1258 1161 1279.5 1152.5 c 128,-1,46
 1301 1144 1301 1144 1313 1129 c 128,-1,47
 1325 1114 1325 1114 1329.5 1093.5 c 128,-1,48
 1334 1073 1334 1073 1334 1049 c 0,49,50
 1334 1027 1334 1027 1330 1005.5 c 128,-1,51
 1326 984 1326 984 1326 959 c 0,52,53
 1326 846 1326 846 1325.5 743.5 c 128,-1,54
 1325 641 1325 641 1323 540 c 0,55,56
 1321 440 1321 440 1320 328 c 128,-1,57
 1319 216 1319 216 1319 103 c 0,58,59
 1319 -28 1319 -28 1290 -122.5 c 128,-1,60
 1261 -217 1261 -217 1213.5 -283.5 c 128,-1,61
 1166 -350 1166 -350 1104.5 -391 c 128,-1,62
 1043 -432 1043 -432 977.5 -455 c 128,-1,63
 912 -478 912 -478 847 -486 c 128,-1,64
 782 -494 782 -494 728 -494 c 0,65,66
 678 -494 678 -494 623 -485.5 c 128,-1,67
 568 -477 568 -477 514 -461 c 128,-1,68
 460 -445 460 -445 410.5 -423 c 128,-1,69
 361 -401 361 -401 323.5 -374.5 c 128,-1,70
 286 -348 286 -348 264 -317.5 c 128,-1,71
 242 -287 242 -287 242 -255 c 0,0,1
338 600 m 0,72,73
 338 511 338 511 364.5 435 c 128,-1,74
 391 359 391 359 439.5 303.5 c 128,-1,75
 488 248 488 248 557 217 c 128,-1,76
 626 186 626 186 712 186 c 0,77,78
 809 186 809 186 883 217 c 128,-1,79
 957 248 957 248 1007 303.5 c 128,-1,80
 1057 359 1057 359 1083 435 c 128,-1,81
 1109 511 1109 511 1109 600 c 0,82,83
 1109 687 1109 687 1087 765.5 c 128,-1,84
 1065 844 1065 844 1018.5 902.5 c 128,-1,85
 972 961 972 961 899.5 995.5 c 128,-1,86
 827 1030 827 1030 727 1030 c 0,87,88
 638 1030 638 1030 566.5 996.5 c 128,-1,89
 495 963 495 963 444 905 c 128,-1,90
 393 847 393 847 365.5 768.5 c 128,-1,91
 338 690 338 690 338 600 c 0,72,73
EndSplineSet
EndChar

StartChar: dieresis
Encoding: 168 168 63
Width: 1009
Flags: W
LayerCount: 2
Fore
SplineSet
241 1395 m 0,0,1
 222 1395 222 1395 202.5 1402.5 c 128,-1,2
 183 1410 183 1410 167 1423.5 c 128,-1,3
 151 1437 151 1437 140.5 1457 c 128,-1,4
 130 1477 130 1477 130 1501 c 0,5,6
 130 1533 130 1533 146.5 1570.5 c 128,-1,7
 163 1608 163 1608 188.5 1640 c 128,-1,8
 214 1672 214 1672 244 1693.5 c 128,-1,9
 274 1715 274 1715 301 1715 c 0,10,11
 324 1715 324 1715 345 1704.5 c 128,-1,12
 366 1694 366 1694 382.5 1677.5 c 128,-1,13
 399 1661 399 1661 409 1640.5 c 128,-1,14
 419 1620 419 1620 419 1600 c 0,15,16
 419 1574 419 1574 401 1538.5 c 128,-1,17
 383 1503 383 1503 356 1471 c 128,-1,18
 329 1439 329 1439 298 1417 c 128,-1,19
 267 1395 267 1395 241 1395 c 0,0,1
664 1388 m 0,20,21
 646 1388 646 1388 626.5 1395.5 c 128,-1,22
 607 1403 607 1403 591 1417 c 128,-1,23
 575 1431 575 1431 565 1450.5 c 128,-1,24
 555 1470 555 1470 555 1494 c 0,25,26
 555 1525 555 1525 574.5 1562 c 128,-1,27
 594 1599 594 1599 623 1630 c 128,-1,28
 652 1661 652 1661 684.5 1682 c 128,-1,29
 717 1703 717 1703 744 1703 c 0,30,31
 767 1703 767 1703 786.5 1693 c 128,-1,32
 806 1683 806 1683 820.5 1666 c 128,-1,33
 835 1649 835 1649 843.5 1627.5 c 128,-1,34
 852 1606 852 1606 852 1582 c 2,35,-1
 852 1581 l 2,36,37
 852 1555 852 1555 832.5 1521.5 c 128,-1,38
 813 1488 813 1488 784.5 1458.5 c 128,-1,39
 756 1429 756 1429 723.5 1408.5 c 128,-1,40
 691 1388 691 1388 664 1388 c 0,20,21
EndSplineSet
EndChar

StartChar: z
Encoding: 122 122 65
Width: 1369
Flags: W
LayerCount: 2
Fore
SplineSet
179 111 m 0,0,1
 179 144 179 144 183.5 170 c 128,-1,2
 188 196 188 196 208 215 c 1,3,4
 299 325 299 325 396.5 433.5 c 128,-1,5
 494 542 494 542 585 643.5 c 128,-1,6
 676 745 676 745 753.5 836 c 128,-1,7
 831 927 831 927 882 1003 c 1,8,-1
 778 1000 l 2,9,10
 720 998 720 998 663.5 997 c 128,-1,11
 607 996 607 996 556 995 c 128,-1,12
 505 994 505 994 463 993.5 c 128,-1,13
 421 993 421 993 391 993 c 2,14,-1
 381 993 l 1,15,16
 381 965 381 965 385 932.5 c 128,-1,17
 389 900 389 900 389 867 c 0,18,19
 389 848 389 848 381 830.5 c 128,-1,20
 373 813 373 813 358.5 799.5 c 128,-1,21
 344 786 344 786 323 777.5 c 128,-1,22
 302 769 302 769 276 769 c 0,23,24
 256 769 256 769 236 777 c 128,-1,25
 216 785 216 785 199.5 799 c 128,-1,26
 183 813 183 813 172.5 831.5 c 128,-1,27
 162 850 162 850 162 871 c 0,28,29
 162 900 162 900 164.5 920 c 128,-1,30
 167 940 167 940 167 972 c 0,31,32
 167 998 167 998 165 1016.5 c 128,-1,33
 163 1035 163 1035 160 1052.5 c 128,-1,34
 157 1070 157 1070 155 1089.5 c 128,-1,35
 153 1109 153 1109 153 1138 c 0,36,37
 153 1154 153 1154 160 1172.5 c 128,-1,38
 167 1191 167 1191 182 1206.5 c 128,-1,39
 197 1222 197 1222 221 1232 c 128,-1,40
 245 1242 245 1242 280 1242 c 0,41,42
 303 1242 303 1242 324.5 1233.5 c 128,-1,43
 346 1225 346 1225 363 1210 c 1,44,45
 370 1211 370 1211 377.5 1211.5 c 128,-1,46
 385 1212 385 1212 393 1212 c 2,47,-1
 1056 1212 l 2,48,49
 1081 1212 1081 1212 1104.5 1205.5 c 128,-1,50
 1128 1199 1128 1199 1145.5 1185 c 128,-1,51
 1163 1171 1163 1171 1173.5 1148 c 128,-1,52
 1184 1125 1184 1125 1184 1091 c 256,53,54
 1184 1057 1184 1057 1156.5 1008.5 c 128,-1,55
 1129 960 1129 960 1093 906 c 1,56,57
 1030 819 1030 819 949 728 c 128,-1,58
 868 637 868 637 782 545.5 c 128,-1,59
 696 454 696 454 611.5 364.5 c 128,-1,60
 527 275 527 275 458 191 c 1,61,62
 550 191 550 191 634 192.5 c 128,-1,63
 718 194 718 194 787 196.5 c 128,-1,64
 856 199 856 199 905 202.5 c 128,-1,65
 954 206 954 206 975 210 c 0,66,67
 990 212 990 212 1008.5 219 c 128,-1,68
 1027 226 1027 226 1049 232 c 1,69,70
 1063 274 1063 274 1075.5 317 c 128,-1,71
 1088 360 1088 360 1107 404 c 0,72,73
 1121 435 1121 435 1156.5 447 c 128,-1,74
 1192 459 1192 459 1256 433 c 0,75,76
 1276 424 1276 424 1293.5 411.5 c 128,-1,77
 1311 399 1311 399 1322 383 c 128,-1,78
 1333 367 1333 367 1336 347.5 c 128,-1,79
 1339 328 1339 328 1330 306 c 0,80,81
 1319 282 1319 282 1309 264.5 c 128,-1,82
 1299 247 1299 247 1288.5 229.5 c 128,-1,83
 1278 212 1278 212 1267 192.5 c 128,-1,84
 1256 173 1256 173 1244 146 c 0,85,86
 1239 134 1239 134 1235 120 c 128,-1,87
 1231 106 1231 106 1226 92 c 1,88,89
 1222 72 1222 72 1214 55 c 1,90,-1
 1199 16 l 1,91,92
 1191 -2 1191 -2 1177 -15 c 128,-1,93
 1163 -28 1163 -28 1144.5 -35 c 128,-1,94
 1126 -42 1126 -42 1103.5 -41.5 c 128,-1,95
 1081 -41 1081 -41 1057 -31 c 0,96,97
 1035 -21 1035 -21 1017 -1 c 1,98,-1
 350 -10 l 2,99,100
 296 -10 296 -10 263 1.5 c 128,-1,101
 230 13 230 13 211 30.5 c 128,-1,102
 192 48 192 48 185.5 69.5 c 128,-1,103
 179 91 179 91 179 111 c 0,0,1
EndSplineSet
EndChar

StartChar: k
Encoding: 107 107 66
Width: 1488
Flags: W
LayerCount: 2
Fore
SplineSet
208 70 m 0,0,1
 208 121 208 121 215 170 c 128,-1,2
 222 219 222 219 222 274 c 0,3,4
 222 333 222 333 221.5 426.5 c 128,-1,5
 221 520 221 520 220 633 c 128,-1,6
 219 746 219 746 218 872.5 c 128,-1,7
 217 999 217 999 215.5 1123 c 128,-1,8
 214 1247 214 1247 212.5 1362.5 c 128,-1,9
 211 1478 211 1478 210 1570 c 1,10,11
 182 1565 182 1565 138 1565 c 0,12,13
 120 1565 120 1565 101.5 1571 c 128,-1,14
 83 1577 83 1577 67.5 1589.5 c 128,-1,15
 52 1602 52 1602 42.5 1623 c 128,-1,16
 33 1644 33 1644 33 1674 c 0,17,18
 33 1727 33 1727 61 1754.5 c 128,-1,19
 89 1782 89 1782 128 1782 c 0,20,21
 143 1782 143 1782 158.5 1778 c 128,-1,22
 174 1774 174 1774 191 1774 c 0,23,24
 231 1774 231 1774 270.5 1778 c 128,-1,25
 310 1782 310 1782 354 1782 c 0,26,27
 396 1782 396 1782 422.5 1754.5 c 128,-1,28
 449 1727 449 1727 449 1679 c 1,29,30
 447 1652 447 1652 445 1629 c 128,-1,31
 443 1606 443 1606 441 1579 c 128,-1,32
 439 1552 439 1552 437 1518 c 128,-1,33
 435 1484 435 1484 435 1435 c 0,34,35
 433 1299 433 1299 431.5 1180.5 c 128,-1,36
 430 1062 430 1062 429 965 c 1,37,38
 466 1016 466 1016 515.5 1064.5 c 128,-1,39
 565 1113 565 1113 625.5 1150 c 128,-1,40
 686 1187 686 1187 757 1209.5 c 128,-1,41
 828 1232 828 1232 908 1232 c 0,42,43
 1004 1232 1004 1232 1077 1206.5 c 128,-1,44
 1150 1181 1150 1181 1198.5 1134.5 c 128,-1,45
 1247 1088 1247 1088 1271.5 1021.5 c 128,-1,46
 1296 955 1296 955 1296 874 c 0,47,48
 1296 807 1296 807 1275.5 751 c 128,-1,49
 1255 695 1255 695 1221.5 650 c 128,-1,50
 1188 605 1188 605 1145 571 c 128,-1,51
 1102 537 1102 537 1057 515 c 1,52,53
 1100 479 1100 479 1123.5 432.5 c 128,-1,54
 1147 386 1147 386 1161 333 c 0,55,56
 1167 312 1167 312 1174 288 c 128,-1,57
 1181 264 1181 264 1191 243.5 c 128,-1,58
 1201 223 1201 223 1213.5 209.5 c 128,-1,59
 1226 196 1226 196 1241 196 c 0,60,61
 1268 196 1268 196 1294 205.5 c 128,-1,62
 1320 215 1320 215 1349 215 c 0,63,64
 1393 215 1393 215 1422.5 185.5 c 128,-1,65
 1452 156 1452 156 1452 102 c 0,66,67
 1452 59 1452 59 1429.5 33 c 128,-1,68
 1407 7 1407 7 1372.5 -7.5 c 128,-1,69
 1338 -22 1338 -22 1297 -26.5 c 128,-1,70
 1256 -31 1256 -31 1218 -31 c 0,71,72
 1148 -31 1148 -31 1103 -6 c 128,-1,73
 1058 19 1058 19 1028.5 59 c 128,-1,74
 999 99 999 99 982 148 c 128,-1,75
 965 197 965 197 951 245 c 0,76,77
 941 279 941 279 931.5 309.5 c 128,-1,78
 922 340 922 340 908.5 363 c 128,-1,79
 895 386 895 386 877 399.5 c 128,-1,80
 859 413 859 413 832 413 c 0,81,82
 757 413 757 413 719 436 c 128,-1,83
 681 459 681 459 681 519 c 0,84,85
 681 572 681 572 715.5 600 c 128,-1,86
 750 628 750 628 807 628 c 0,87,88
 821 628 821 628 831.5 626.5 c 128,-1,89
 842 625 842 625 853 623 c 1,90,91
 879 633 879 633 915 650.5 c 128,-1,92
 951 668 951 668 984 696 c 128,-1,93
 1017 724 1017 724 1040 763 c 128,-1,94
 1063 802 1063 802 1063 856 c 0,95,96
 1063 949 1063 949 1007.5 986 c 128,-1,97
 952 1023 952 1023 853 1023 c 0,98,99
 785 1023 785 1023 719 988 c 128,-1,100
 653 953 653 953 596.5 895 c 128,-1,101
 540 837 540 837 496.5 761.5 c 128,-1,102
 453 686 453 686 429 605 c 1,103,-1
 432 476 l 2,104,105
 432 467 432 467 432 455.5 c 128,-1,106
 432 444 432 444 432.5 417 c 128,-1,107
 433 390 433 390 434 340.5 c 128,-1,108
 435 291 435 291 436 207 c 1,109,110
 451 211 451 211 467.5 216.5 c 128,-1,111
 484 222 484 222 501 222 c 0,112,113
 556 222 556 222 584 195.5 c 128,-1,114
 612 169 612 169 612 118 c 0,115,116
 612 80 612 80 597 57.5 c 128,-1,117
 582 35 582 35 558.5 22.5 c 128,-1,118
 535 10 535 10 507 5 c 128,-1,119
 479 0 479 0 453 -3 c 0,120,121
 418 -7 418 -7 382.5 -18 c 128,-1,122
 347 -29 347 -29 310 -29 c 0,123,124
 251 -29 251 -29 229.5 -4 c 128,-1,125
 208 21 208 21 208 70 c 0,0,1
EndSplineSet
EndChar

StartChar: zero
Encoding: 48 48 67
Width: 1461
Flags: W
LayerCount: 2
Fore
SplineSet
707 -30 m 0,0,1
 561 -30 561 -30 450 36.5 c 128,-1,2
 339 103 339 103 264.5 217 c 128,-1,3
 190 331 190 331 152 483 c 128,-1,4
 114 635 114 635 114 807 c 0,5,6
 114 989 114 989 155.5 1141 c 128,-1,7
 197 1293 197 1293 274.5 1402.5 c 128,-1,8
 352 1512 352 1512 461.5 1572.5 c 128,-1,9
 571 1633 571 1633 707 1633 c 0,10,11
 848 1633 848 1633 957 1572.5 c 128,-1,12
 1066 1512 1066 1512 1140.5 1402.5 c 128,-1,13
 1215 1293 1215 1293 1253.5 1141 c 128,-1,14
 1292 989 1292 989 1292 807 c 0,15,16
 1292 635 1292 635 1254.5 483 c 128,-1,17
 1217 331 1217 331 1143.5 217 c 128,-1,18
 1070 103 1070 103 960.5 36.5 c 128,-1,19
 851 -30 851 -30 707 -30 c 0,0,1
712 176 m 0,20,21
 776 176 776 176 827 201 c 128,-1,22
 878 226 878 226 917.5 270.5 c 128,-1,23
 957 315 957 315 985 375.5 c 128,-1,24
 1013 436 1013 436 1031 506 c 128,-1,25
 1049 576 1049 576 1057.5 652.5 c 128,-1,26
 1066 729 1066 729 1066 807 c 0,27,28
 1066 931 1066 931 1045 1043.5 c 128,-1,29
 1024 1156 1024 1156 980.5 1241.5 c 128,-1,30
 937 1327 937 1327 870 1377.5 c 128,-1,31
 803 1428 803 1428 712 1428 c 0,32,33
 620 1428 620 1428 551 1383 c 128,-1,34
 482 1338 482 1338 435 1256 c 128,-1,35
 388 1174 388 1174 364.5 1059.5 c 128,-1,36
 341 945 341 945 341 807 c 0,37,38
 341 730 341 730 350.5 653 c 128,-1,39
 360 576 360 576 379.5 506 c 128,-1,40
 399 436 399 436 429 375.5 c 128,-1,41
 459 315 459 315 500 270.5 c 128,-1,42
 541 226 541 226 594 201 c 128,-1,43
 647 176 647 176 712 176 c 0,20,21
EndSplineSet
EndChar

StartChar: asterisk
Encoding: 42 42 68
Width: 1184
Flags: W
LayerCount: 2
Fore
SplineSet
352 1105 m 0,0,1
 299 1105 299 1105 269.5 1128.5 c 128,-1,2
 240 1152 240 1152 240 1214 c 0,3,4
 240 1249 240 1249 255.5 1278 c 128,-1,5
 271 1307 271 1307 294 1332.5 c 128,-1,6
 317 1358 317 1358 343 1382 c 128,-1,7
 369 1406 369 1406 391 1431 c 1,8,9
 367 1440 367 1440 342 1449.5 c 128,-1,10
 317 1459 317 1459 296 1466.5 c 128,-1,11
 275 1474 275 1474 260 1480 c 128,-1,12
 245 1486 245 1486 239 1488 c 0,13,14
 218 1495 218 1495 200 1504 c 128,-1,15
 182 1513 182 1513 168.5 1526.5 c 128,-1,16
 155 1540 155 1540 147 1559.5 c 128,-1,17
 139 1579 139 1579 139 1608 c 0,18,19
 139 1630 139 1630 149 1646.5 c 128,-1,20
 159 1663 159 1663 174.5 1674.5 c 128,-1,21
 190 1686 190 1686 209 1692 c 128,-1,22
 228 1698 228 1698 247 1698 c 0,23,24
 270 1698 270 1698 324 1678.5 c 128,-1,25
 378 1659 378 1659 459 1620 c 1,26,27
 459 1660 459 1660 455.5 1700.5 c 128,-1,28
 452 1741 452 1741 452 1785 c 0,29,30
 452 1813 452 1813 462 1836 c 128,-1,31
 472 1859 472 1859 488.5 1875 c 128,-1,32
 505 1891 505 1891 526.5 1899.5 c 128,-1,33
 548 1908 548 1908 571 1908 c 0,34,35
 626 1908 626 1908 650 1875 c 128,-1,36
 674 1842 674 1842 674 1785 c 0,37,38
 674 1765 674 1765 673.5 1748 c 128,-1,39
 673 1731 673 1731 672 1712 c 128,-1,40
 671 1693 671 1693 669.5 1670 c 128,-1,41
 668 1647 668 1647 665 1615 c 1,42,43
 691 1624 691 1624 708.5 1631 c 128,-1,44
 726 1638 726 1638 738 1643 c 128,-1,45
 750 1648 750 1648 758 1652 c 128,-1,46
 766 1656 766 1656 773 1659 c 0,47,48
 808 1675 808 1675 841.5 1688.5 c 128,-1,49
 875 1702 875 1702 908 1702 c 0,50,51
 952 1702 952 1702 982 1678.5 c 128,-1,52
 1012 1655 1012 1655 1012 1605 c 0,53,54
 1012 1580 1012 1580 1000 1559.5 c 128,-1,55
 988 1539 988 1539 971 1523.5 c 128,-1,56
 954 1508 954 1508 935 1497.5 c 128,-1,57
 916 1487 916 1487 903 1482 c 0,58,59
 841 1462 841 1462 806.5 1450.5 c 128,-1,60
 772 1439 772 1439 754 1433 c 128,-1,61
 736 1427 736 1427 729.5 1424.5 c 128,-1,62
 723 1422 723 1422 718 1420 c 1,63,64
 737 1392 737 1392 759 1366 c 128,-1,65
 781 1340 781 1340 800.5 1312.5 c 128,-1,66
 820 1285 820 1285 834 1253.5 c 128,-1,67
 848 1222 848 1222 850 1183 c 1,68,69
 850 1153 850 1153 838.5 1134 c 128,-1,70
 827 1115 827 1115 809.5 1103.5 c 128,-1,71
 792 1092 792 1092 773 1088 c 128,-1,72
 754 1084 754 1084 739 1084 c 0,73,74
 714 1084 714 1084 692.5 1099 c 128,-1,75
 671 1114 671 1114 652 1138.5 c 128,-1,76
 633 1163 633 1163 616 1193 c 128,-1,77
 599 1223 599 1223 583 1253 c 0,78,79
 575 1268 575 1268 568.5 1281.5 c 128,-1,80
 562 1295 562 1295 551 1311 c 1,81,82
 543 1297 543 1297 532.5 1277.5 c 128,-1,83
 522 1258 522 1258 508.5 1236 c 128,-1,84
 495 1214 495 1214 477.5 1191 c 128,-1,85
 460 1168 460 1168 439 1147 c 1,86,87
 433 1139 433 1139 422 1131.5 c 128,-1,88
 411 1124 411 1124 398.5 1118 c 128,-1,89
 386 1112 386 1112 373.5 1108.5 c 128,-1,90
 361 1105 361 1105 352 1105 c 0,0,1
EndSplineSet
EndChar

StartChar: eight
Encoding: 56 56 69
Width: 1522
Flags: W
LayerCount: 2
Fore
SplineSet
156 468 m 0,0,1
 156 539 156 539 181 599 c 128,-1,2
 206 659 206 659 249 707 c 128,-1,3
 292 755 292 755 350.5 791 c 128,-1,4
 409 827 409 827 476 851 c 1,5,6
 427 879 427 879 384.5 915.5 c 128,-1,7
 342 952 342 952 310.5 997.5 c 128,-1,8
 279 1043 279 1043 261 1098.5 c 128,-1,9
 243 1154 243 1154 243 1219 c 0,10,11
 243 1318 243 1318 280.5 1395.5 c 128,-1,12
 318 1473 318 1473 385 1525.5 c 128,-1,13
 452 1578 452 1578 544 1605.5 c 128,-1,14
 636 1633 636 1633 745 1633 c 256,15,16
 854 1633 854 1633 944.5 1606.5 c 128,-1,17
 1035 1580 1035 1580 1100.5 1527.5 c 128,-1,18
 1166 1475 1166 1475 1202 1397 c 128,-1,19
 1238 1319 1238 1319 1238 1216 c 0,20,21
 1238 1161 1238 1161 1221 1107 c 128,-1,22
 1204 1053 1204 1053 1174.5 1004.5 c 128,-1,23
 1145 956 1145 956 1104.5 914 c 128,-1,24
 1064 872 1064 872 1016 840 c 1,25,26
 1095 806 1095 806 1156.5 769.5 c 128,-1,27
 1218 733 1218 733 1259 689 c 128,-1,28
 1300 645 1300 645 1321.5 591 c 128,-1,29
 1343 537 1343 537 1343 468 c 0,30,31
 1343 349 1343 349 1294 256.5 c 128,-1,32
 1245 164 1245 164 1162.5 100 c 128,-1,33
 1080 36 1080 36 973 2.5 c 128,-1,34
 866 -31 866 -31 749 -31 c 0,35,36
 640 -31 640 -31 533.5 2.5 c 128,-1,37
 427 36 427 36 343 100 c 128,-1,38
 259 164 259 164 207.5 257 c 128,-1,39
 156 350 156 350 156 468 c 0,0,1
766 935 m 1,40,41
 817 948 817 948 862 975.5 c 128,-1,42
 907 1003 907 1003 940 1040.5 c 128,-1,43
 973 1078 973 1078 992 1123.5 c 128,-1,44
 1011 1169 1011 1169 1011 1217 c 0,45,46
 1011 1276 1011 1276 988 1316.5 c 128,-1,47
 965 1357 965 1357 928 1382.5 c 128,-1,48
 891 1408 891 1408 843 1419.5 c 128,-1,49
 795 1431 795 1431 746 1431 c 0,50,51
 698 1431 698 1431 648.5 1421 c 128,-1,52
 599 1411 599 1411 559.5 1387 c 128,-1,53
 520 1363 520 1363 495 1322 c 128,-1,54
 470 1281 470 1281 470 1218 c 0,55,56
 470 1169 470 1169 496 1126.5 c 128,-1,57
 522 1084 522 1084 564 1049 c 128,-1,58
 606 1014 606 1014 659 985.5 c 128,-1,59
 712 957 712 957 766 935 c 1,40,41
393 480 m 0,60,61
 393 410 393 410 422 354 c 128,-1,62
 451 298 451 298 499.5 259 c 128,-1,63
 548 220 548 220 611.5 199 c 128,-1,64
 675 178 675 178 744 178 c 0,65,66
 817 178 817 178 884.5 194.5 c 128,-1,67
 952 211 952 211 1004 246 c 128,-1,68
 1056 281 1056 281 1087.5 334.5 c 128,-1,69
 1119 388 1119 388 1119 462 c 0,70,71
 1119 497 1119 497 1100.5 527 c 128,-1,72
 1082 557 1082 557 1050.5 582.5 c 128,-1,73
 1019 608 1019 608 977.5 630 c 128,-1,74
 936 652 936 652 889.5 670.5 c 128,-1,75
 843 689 843 689 794.5 704.5 c 128,-1,76
 746 720 746 720 701 734 c 1,77,78
 641 722 641 722 585 701.5 c 128,-1,79
 529 681 529 681 486.5 650 c 128,-1,80
 444 619 444 619 418.5 577 c 128,-1,81
 393 535 393 535 393 480 c 0,60,61
EndSplineSet
EndChar

StartChar: three
Encoding: 51 51 70
Width: 1687
Flags: W
LayerCount: 2
Fore
SplineSet
204 472 m 0,0,1
 204 512 204 512 208 557.5 c 128,-1,2
 212 603 212 603 226.5 640.5 c 128,-1,3
 241 678 241 678 268 703 c 128,-1,4
 295 728 295 728 340 728 c 0,5,6
 359 728 359 728 380 723 c 128,-1,7
 401 718 401 718 419 705.5 c 128,-1,8
 437 693 437 693 448.5 671.5 c 128,-1,9
 460 650 460 650 460 617 c 0,10,11
 460 577 460 577 449.5 538 c 128,-1,12
 439 499 439 499 439 456 c 0,13,14
 439 399 439 399 471.5 347 c 128,-1,15
 504 295 504 295 560 256 c 128,-1,16
 616 217 616 217 692 194 c 128,-1,17
 768 171 768 171 854 171 c 0,18,19
 927 171 927 171 996 190.5 c 128,-1,20
 1065 210 1065 210 1118.5 249 c 128,-1,21
 1172 288 1172 288 1204.5 346.5 c 128,-1,22
 1237 405 1237 405 1237 482 c 0,23,24
 1237 560 1237 560 1211 615 c 128,-1,25
 1185 670 1185 670 1141.5 704 c 128,-1,26
 1098 738 1098 738 1041.5 753.5 c 128,-1,27
 985 769 985 769 924 769 c 0,28,29
 903 769 903 769 883 765 c 128,-1,30
 863 761 863 761 843 756.5 c 128,-1,31
 823 752 823 752 802.5 748 c 128,-1,32
 782 744 782 744 760 744 c 0,33,34
 732 744 732 744 712 753.5 c 128,-1,35
 692 763 692 763 679.5 778.5 c 128,-1,36
 667 794 667 794 661.5 814.5 c 128,-1,37
 656 835 656 835 656 857 c 0,38,39
 656 866 656 866 660.5 879.5 c 128,-1,40
 665 893 665 893 672 907.5 c 128,-1,41
 679 922 679 922 687.5 935.5 c 128,-1,42
 696 949 696 949 704 957 c 0,43,44
 730 983 730 983 761 1020 c 128,-1,45
 792 1057 792 1057 825 1100 c 128,-1,46
 858 1143 858 1143 891.5 1189 c 128,-1,47
 925 1235 925 1235 955 1277.5 c 128,-1,48
 985 1320 985 1320 1010.5 1357 c 128,-1,49
 1036 1394 1036 1394 1053 1419 c 1,50,-1
 435 1419 l 2,51,52
 405 1419 405 1419 381.5 1428 c 128,-1,53
 358 1437 358 1437 342.5 1451.5 c 128,-1,54
 327 1466 327 1466 319 1485 c 128,-1,55
 311 1504 311 1504 311 1525 c 0,56,57
 311 1543 311 1543 317.5 1562 c 128,-1,58
 324 1581 324 1581 338 1597 c 128,-1,59
 352 1613 352 1613 373 1623 c 128,-1,60
 394 1633 394 1633 423 1633 c 2,61,-1
 1272 1633 l 2,62,63
 1323 1633 1323 1633 1353.5 1609 c 128,-1,64
 1384 1585 1384 1585 1384 1538 c 256,65,66
 1384 1491 1384 1491 1356 1456 c 0,67,68
 1343 1440 1343 1440 1316.5 1404 c 128,-1,69
 1290 1368 1290 1368 1256 1322 c 128,-1,70
 1222 1276 1222 1276 1182 1223 c 128,-1,71
 1142 1170 1142 1170 1102 1119 c 128,-1,72
 1062 1068 1062 1068 1024.5 1024 c 128,-1,73
 987 980 987 980 957 951 c 1,74,75
 1065 959 1065 959 1160 930 c 128,-1,76
 1255 901 1255 901 1325.5 841 c 128,-1,77
 1396 781 1396 781 1437 692.5 c 128,-1,78
 1478 604 1478 604 1478 493 c 0,79,80
 1478 367 1478 367 1427.5 269.5 c 128,-1,81
 1377 172 1377 172 1290.5 105.5 c 128,-1,82
 1204 39 1204 39 1090.5 4 c 128,-1,83
 977 -31 977 -31 851 -31 c 0,84,85
 766 -31 766 -31 685 -15.5 c 128,-1,86
 604 0 604 0 532 29.5 c 128,-1,87
 460 59 460 59 400 102.5 c 128,-1,88
 340 146 340 146 296.5 201.5 c 128,-1,89
 253 257 253 257 228.5 325 c 128,-1,90
 204 393 204 393 204 472 c 0,0,1
EndSplineSet
EndChar

StartChar: six
Encoding: 54 54 71
Width: 1523
Flags: W
LayerCount: 2
Fore
SplineSet
125 702 m 0,0,1
 125 833 125 833 145.5 953.5 c 128,-1,2
 166 1074 166 1074 205.5 1179 c 128,-1,3
 245 1284 245 1284 304 1370.5 c 128,-1,4
 363 1457 363 1457 440.5 1518.5 c 128,-1,5
 518 1580 518 1580 613 1613.5 c 128,-1,6
 708 1647 708 1647 821 1647 c 0,7,8
 911 1647 911 1647 988 1634.5 c 128,-1,9
 1065 1622 1065 1622 1127 1589 c 0,10,11
 1159 1571 1159 1571 1174.5 1547.5 c 128,-1,12
 1190 1524 1190 1524 1190 1486 c 0,13,14
 1190 1460 1190 1460 1180.5 1440.5 c 128,-1,15
 1171 1421 1171 1421 1155.5 1408 c 128,-1,16
 1140 1395 1140 1395 1120.5 1389 c 128,-1,17
 1101 1383 1101 1383 1082 1383 c 0,18,19
 1059 1383 1059 1383 1043.5 1387 c 128,-1,20
 1028 1391 1028 1391 1016 1396.5 c 128,-1,21
 1004 1402 1004 1402 995 1408 c 128,-1,22
 986 1414 986 1414 977 1419 c 0,23,24
 960 1428 960 1428 921 1432.5 c 128,-1,25
 882 1437 882 1437 805 1437 c 0,26,27
 722 1437 722 1437 650.5 1402 c 128,-1,28
 579 1367 579 1367 523 1303 c 128,-1,29
 467 1239 467 1239 428 1150.5 c 128,-1,30
 389 1062 389 1062 370 954 c 1,31,32
 413 998 413 998 467.5 1030.5 c 128,-1,33
 522 1063 522 1063 579 1084.5 c 128,-1,34
 636 1106 636 1106 691.5 1116.5 c 128,-1,35
 747 1127 747 1127 791 1127 c 0,36,37
 921 1127 921 1127 1025.5 1090 c 128,-1,38
 1130 1053 1130 1053 1203 981 c 128,-1,39
 1276 909 1276 909 1315.5 802.5 c 128,-1,40
 1355 696 1355 696 1355 556 c 0,41,42
 1355 493 1355 493 1339.5 425 c 128,-1,43
 1324 357 1324 357 1292.5 291.5 c 128,-1,44
 1261 226 1261 226 1213 167.5 c 128,-1,45
 1165 109 1165 109 1099.5 65 c 128,-1,46
 1034 21 1034 21 950.5 -5 c 128,-1,47
 867 -31 867 -31 766 -31 c 0,48,49
 649 -31 649 -31 556 -2.5 c 128,-1,50
 463 26 463 26 391.5 77 c 128,-1,51
 320 128 320 128 269.5 197.5 c 128,-1,52
 219 267 219 267 187 348 c 128,-1,53
 155 429 155 429 140 519.5 c 128,-1,54
 125 610 125 610 125 702 c 0,0,1
361 588 m 2,55,56
 361 509 361 509 387.5 434 c 128,-1,57
 414 359 414 359 464.5 300.5 c 128,-1,58
 515 242 515 242 589 206.5 c 128,-1,59
 663 171 663 171 759 171 c 0,60,61
 820 171 820 171 886 193 c 128,-1,62
 952 215 952 215 1007 262 c 128,-1,63
 1062 309 1062 309 1098 382 c 128,-1,64
 1134 455 1134 455 1134 557 c 256,65,66
 1134 659 1134 659 1104.5 730.5 c 128,-1,67
 1075 802 1075 802 1026.5 847 c 128,-1,68
 978 892 978 892 916.5 912.5 c 128,-1,69
 855 933 855 933 791 933 c 0,70,71
 735 933 735 933 670.5 918 c 128,-1,72
 606 903 606 903 546 872 c 128,-1,73
 486 841 486 841 436.5 792.5 c 128,-1,74
 387 744 387 744 361 678 c 1,75,-1
 361 588 l 2,55,56
EndSplineSet
EndChar

StartChar: nine
Encoding: 57 57 72
Width: 1518
Flags: W
LayerCount: 2
Fore
SplineSet
314 141 m 0,0,1
 314 168 314 168 323.5 187.5 c 128,-1,2
 333 207 333 207 348.5 219.5 c 128,-1,3
 364 232 364 232 383 237.5 c 128,-1,4
 402 243 402 243 422 243 c 0,5,6
 465 243 465 243 490.5 231.5 c 128,-1,7
 516 220 516 220 537 207 c 0,8,9
 550 199 550 199 561 194 c 128,-1,10
 572 189 572 189 588.5 186 c 128,-1,11
 605 183 605 183 631.5 181.5 c 128,-1,12
 658 180 658 180 702 180 c 0,13,14
 787 180 787 180 858.5 216.5 c 128,-1,15
 930 253 930 253 984.5 317 c 128,-1,16
 1039 381 1039 381 1074.5 468.5 c 128,-1,17
 1110 556 1110 556 1124 657 c 1,18,19
 1081 609 1081 609 1027 577 c 128,-1,20
 973 545 973 545 916.5 526.5 c 128,-1,21
 860 508 860 508 805.5 500.5 c 128,-1,22
 751 493 751 493 707 493 c 0,23,24
 588 493 588 493 482 529.5 c 128,-1,25
 376 566 376 566 296.5 639 c 128,-1,26
 217 712 217 712 171 819.5 c 128,-1,27
 125 927 125 927 125 1070 c 0,28,29
 125 1176 125 1176 161.5 1277 c 128,-1,30
 198 1378 198 1378 272 1457 c 128,-1,31
 346 1536 346 1536 459 1584.5 c 128,-1,32
 572 1633 572 1633 724 1633 c 0,33,34
 841 1633 841 1633 934 1606.5 c 128,-1,35
 1027 1580 1027 1580 1098 1532 c 128,-1,36
 1169 1484 1169 1484 1220 1418 c 128,-1,37
 1271 1352 1271 1352 1303 1273 c 128,-1,38
 1335 1194 1335 1194 1350 1105.5 c 128,-1,39
 1365 1017 1365 1017 1365 925 c 0,40,41
 1365 812 1365 812 1349.5 697.5 c 128,-1,42
 1334 583 1334 583 1300 476.5 c 128,-1,43
 1266 370 1266 370 1213 278 c 128,-1,44
 1160 186 1160 186 1085.5 117.5 c 128,-1,45
 1011 49 1011 49 914 9.5 c 128,-1,46
 817 -30 817 -30 695 -30 c 0,47,48
 666 -30 666 -30 626.5 -27 c 128,-1,49
 587 -24 587 -24 545 -17 c 128,-1,50
 503 -10 503 -10 461.5 2.5 c 128,-1,51
 420 15 420 15 387 34 c 128,-1,52
 354 53 354 53 334 79.5 c 128,-1,53
 314 106 314 106 314 141 c 0,0,1
707 697 m 0,54,55
 763 697 763 697 826.5 714.5 c 128,-1,56
 890 732 890 732 948.5 766 c 128,-1,57
 1007 800 1007 800 1055 850.5 c 128,-1,58
 1103 901 1103 901 1129 967 c 1,59,-1
 1129 1039 l 2,60,61
 1129 1118 1129 1118 1102 1190 c 128,-1,62
 1075 1262 1075 1262 1023.5 1316.5 c 128,-1,63
 972 1371 972 1371 897.5 1403.5 c 128,-1,64
 823 1436 823 1436 728 1436 c 0,65,66
 660 1436 660 1436 591.5 1416 c 128,-1,67
 523 1396 523 1396 468.5 1354 c 128,-1,68
 414 1312 414 1312 380 1247 c 128,-1,69
 346 1182 346 1182 346 1092 c 0,70,71
 346 1012 346 1012 361 951.5 c 128,-1,72
 376 891 376 891 402 847 c 128,-1,73
 428 803 428 803 463 774 c 128,-1,74
 498 745 498 745 538 728 c 128,-1,75
 578 711 578 711 621 704 c 128,-1,76
 664 697 664 697 707 697 c 0,54,55
EndSplineSet
EndChar

StartChar: period
Encoding: 46 46 73
Width: 588
Flags: W
LayerCount: 2
Fore
SplineSet
169 98 m 0,0,1
 169 124 169 124 173.5 163 c 128,-1,2
 178 202 178 202 192 238 c 128,-1,3
 206 274 206 274 232 300 c 128,-1,4
 258 326 258 326 301 326 c 256,5,6
 344 326 344 326 367.5 307 c 128,-1,7
 391 288 391 288 402 262.5 c 128,-1,8
 413 237 413 237 415.5 211 c 128,-1,9
 418 185 418 185 418 170 c 2,10,-1
 418 164 l 2,11,12
 418 119 418 119 412 84 c 128,-1,13
 406 49 406 49 391.5 25 c 128,-1,14
 377 1 377 1 353 -12 c 128,-1,15
 329 -25 329 -25 293 -25 c 0,16,17
 259 -25 259 -25 235.5 -14.5 c 128,-1,18
 212 -4 212 -4 197 13 c 128,-1,19
 182 30 182 30 175.5 52 c 128,-1,20
 169 74 169 74 169 98 c 0,0,1
EndSplineSet
EndChar

StartChar: periodcentered
Encoding: 183 183 74
Width: 844
Flags: W
LayerCount: 2
Fore
SplineSet
416 633 m 0,0,1
 382 633 382 633 356 649.5 c 128,-1,2
 330 666 330 666 312 690 c 128,-1,3
 294 714 294 714 284.5 741 c 128,-1,4
 275 768 275 768 275 790 c 0,5,6
 275 828 275 828 284 860 c 128,-1,7
 293 892 293 892 311 915 c 128,-1,8
 329 938 329 938 357 951 c 128,-1,9
 385 964 385 964 423 964 c 0,10,11
 445 964 445 964 469 954 c 128,-1,12
 493 944 493 944 512.5 925 c 128,-1,13
 532 906 532 906 544.5 877.5 c 128,-1,14
 557 849 557 849 557 812 c 0,15,16
 557 791 557 791 550.5 760.5 c 128,-1,17
 544 730 544 730 528.5 701.5 c 128,-1,18
 513 673 513 673 485.5 653 c 128,-1,19
 458 633 458 633 416 633 c 0,0,1
EndSplineSet
EndChar

StartChar: exclam
Encoding: 33 33 76
Width: 624
Flags: W
LayerCount: 2
Fore
SplineSet
317 505 m 0,0,1
 296 505 296 505 277 511 c 128,-1,2
 258 517 258 517 243.5 530 c 128,-1,3
 229 543 229 543 220 561.5 c 128,-1,4
 211 580 211 580 211 606 c 0,5,6
 211 629 211 629 214 651.5 c 128,-1,7
 217 674 217 674 217 699 c 0,8,9
 217 834 217 834 213 969 c 128,-1,10
 209 1104 209 1104 204.5 1240.5 c 128,-1,11
 200 1377 200 1377 196.5 1515.5 c 128,-1,12
 193 1654 193 1654 193 1795 c 0,13,14
 193 1816 193 1816 200 1835 c 128,-1,15
 207 1854 207 1854 222 1868.5 c 128,-1,16
 237 1883 237 1883 261.5 1891.5 c 128,-1,17
 286 1900 286 1900 321 1900 c 0,18,19
 342 1900 342 1900 362.5 1894 c 128,-1,20
 383 1888 383 1888 399.5 1875 c 128,-1,21
 416 1862 416 1862 426.5 1841 c 128,-1,22
 437 1820 437 1820 437 1789 c 0,23,24
 437 1745 437 1745 436 1673.5 c 128,-1,25
 435 1602 435 1602 434 1512.5 c 128,-1,26
 433 1423 433 1423 431 1320 c 128,-1,27
 429 1217 429 1217 428 1110 c 128,-1,28
 427 1003 427 1003 426 897 c 128,-1,29
 425 791 425 791 425 696 c 0,30,31
 425 674 425 674 429 652 c 128,-1,32
 433 630 433 630 433 601 c 0,33,34
 433 554 433 554 401 529.5 c 128,-1,35
 369 505 369 505 317 505 c 0,0,1
188 86 m 0,36,37
 189 141 189 141 195 181.5 c 128,-1,38
 201 222 201 222 214.5 248.5 c 128,-1,39
 228 275 228 275 251 288 c 128,-1,40
 274 301 274 301 309 301 c 0,41,42
 360 301 360 301 396 272 c 128,-1,43
 432 243 432 243 432 186 c 0,44,45
 432 134 432 134 421.5 93.5 c 128,-1,46
 411 53 411 53 393 25.5 c 128,-1,47
 375 -2 375 -2 351 -16.5 c 128,-1,48
 327 -31 327 -31 299 -31 c 0,49,50
 272 -31 272 -31 251 -19 c 128,-1,51
 230 -7 230 -7 216 10.5 c 128,-1,52
 202 28 202 28 195 48.5 c 128,-1,53
 188 69 188 69 188 86 c 0,36,37
EndSplineSet
EndChar

StartChar: comma
Encoding: 44 44 78
Width: 588
Flags: W
LayerCount: 2
Fore
SplineSet
150 -98 m 1,0,1
 170 -68 170 -68 178.5 -40.5 c 128,-1,2
 187 -13 187 -13 194 13 c 1,3,4
 189 23 189 23 184.5 38.5 c 128,-1,5
 180 54 180 54 177 70 c 128,-1,6
 174 86 174 86 172.5 101 c 128,-1,7
 171 116 171 116 171 126 c 0,8,9
 171 156 171 156 177 187 c 128,-1,10
 183 218 183 218 199 243.5 c 128,-1,11
 215 269 215 269 241 285.5 c 128,-1,12
 267 302 267 302 308 302 c 256,13,14
 349 302 349 302 375 287.5 c 128,-1,15
 401 273 401 273 416 248.5 c 128,-1,16
 431 224 431 224 436.5 191.5 c 128,-1,17
 442 159 442 159 442 123 c 0,18,19
 442 94 442 94 434.5 57 c 128,-1,20
 427 20 427 20 414.5 -19 c 128,-1,21
 402 -58 402 -58 384 -97.5 c 128,-1,22
 366 -137 366 -137 345 -171 c 0,23,24
 337 -183 337 -183 324 -198.5 c 128,-1,25
 311 -214 311 -214 294 -227.5 c 128,-1,26
 277 -241 277 -241 257.5 -250.5 c 128,-1,27
 238 -260 238 -260 217 -260 c 0,28,29
 171 -260 171 -260 147 -232 c 128,-1,30
 123 -204 123 -204 123 -165 c 0,31,32
 123 -145 123 -145 132.5 -128.5 c 128,-1,33
 142 -112 142 -112 150 -98 c 1,0,1
EndSplineSet
EndChar

StartChar: question
Encoding: 63 63 80
Width: 1354
Flags: W
LayerCount: 2
Fore
SplineSet
645 420 m 0,0,1
 578 420 578 420 553.5 474.5 c 128,-1,2
 529 529 529 529 529 627 c 0,3,4
 529 684 529 684 548.5 736 c 128,-1,5
 568 788 568 788 599.5 835 c 128,-1,6
 631 882 631 882 670 923.5 c 128,-1,7
 709 965 709 965 749 1000 c 0,8,9
 790 1036 790 1036 836 1072.5 c 128,-1,10
 882 1109 882 1109 920.5 1148.5 c 128,-1,11
 959 1188 959 1188 984.5 1231.5 c 128,-1,12
 1010 1275 1010 1275 1010 1326 c 0,13,14
 1010 1389 1010 1389 983.5 1434.5 c 128,-1,15
 957 1480 957 1480 910.5 1509 c 128,-1,16
 864 1538 864 1538 800 1551.5 c 128,-1,17
 736 1565 736 1565 661 1565 c 256,18,19
 586 1565 586 1565 526 1555.5 c 128,-1,20
 466 1546 466 1546 424 1526 c 128,-1,21
 382 1506 382 1506 359.5 1475.5 c 128,-1,22
 337 1445 337 1445 337 1402 c 0,23,24
 337 1378 337 1378 345 1360 c 128,-1,25
 353 1342 353 1342 367 1319 c 1,26,27
 378 1299 378 1299 388.5 1279 c 128,-1,28
 399 1259 399 1259 399 1233 c 0,29,30
 399 1209 399 1209 390.5 1190 c 128,-1,31
 382 1171 382 1171 367 1158.5 c 128,-1,32
 352 1146 352 1146 332.5 1139 c 128,-1,33
 313 1132 313 1132 291 1132 c 0,34,35
 252 1132 252 1132 219 1159.5 c 128,-1,36
 186 1187 186 1187 162.5 1227.5 c 128,-1,37
 139 1268 139 1268 125.5 1314 c 128,-1,38
 112 1360 112 1360 112 1398 c 0,39,40
 112 1490 112 1490 153 1561 c 128,-1,41
 194 1632 194 1632 267 1680.5 c 128,-1,42
 340 1729 340 1729 440.5 1754 c 128,-1,43
 541 1779 541 1779 659 1779 c 0,44,45
 779 1779 779 1779 884 1750.5 c 128,-1,46
 989 1722 989 1722 1067 1665 c 128,-1,47
 1145 1608 1145 1608 1190 1523.5 c 128,-1,48
 1235 1439 1235 1439 1235 1328 c 0,49,50
 1235 1268 1235 1268 1216 1211.5 c 128,-1,51
 1197 1155 1197 1155 1163.5 1103.5 c 128,-1,52
 1130 1052 1130 1052 1085 1005.5 c 128,-1,53
 1040 959 1040 959 988 920 c 0,54,55
 952 892 952 892 910.5 862 c 128,-1,56
 869 832 869 832 833.5 797 c 128,-1,57
 798 762 798 762 774.5 721 c 128,-1,58
 751 680 751 680 751 629 c 0,59,60
 751 607 751 607 752.5 584.5 c 128,-1,61
 754 562 754 562 754 534 c 256,62,63
 754 506 754 506 745 484.5 c 128,-1,64
 736 463 736 463 721 449 c 128,-1,65
 706 435 706 435 686 427.5 c 128,-1,66
 666 420 666 420 645 420 c 0,0,1
501 85 m 0,67,68
 502 146 502 146 508.5 187.5 c 128,-1,69
 515 229 515 229 530.5 253.5 c 128,-1,70
 546 278 546 278 572 288.5 c 128,-1,71
 598 299 598 299 639 299 c 0,72,73
 673 299 673 299 694 287 c 128,-1,74
 715 275 715 275 725.5 257.5 c 128,-1,75
 736 240 736 240 739.5 220.5 c 128,-1,76
 743 201 743 201 743 187 c 0,77,78
 743 82 743 82 706 25 c 128,-1,79
 669 -32 669 -32 612 -32 c 0,80,81
 585 -32 585 -32 564 -20 c 128,-1,82
 543 -8 543 -8 529 9.5 c 128,-1,83
 515 27 515 27 508 47.5 c 128,-1,84
 501 68 501 68 501 85 c 0,67,68
EndSplineSet
EndChar

StartChar: guilsinglleft
Encoding: 8249 8249 82
Width: 1200
Flags: W
LayerCount: 2
Fore
SplineSet
263 513 m 0,0,1
 249 519 249 519 239.5 532.5 c 128,-1,2
 230 546 230 546 224 563.5 c 128,-1,3
 218 581 218 581 215 599.5 c 128,-1,4
 212 618 212 618 212 634 c 0,5,6
 212 659 212 659 217.5 676 c 128,-1,7
 223 693 223 693 233.5 704.5 c 128,-1,8
 244 716 244 716 260 724 c 128,-1,9
 276 732 276 732 298 738 c 1,10,11
 336 756 336 756 380.5 777.5 c 128,-1,12
 425 799 425 799 485 829 c 128,-1,13
 545 859 545 859 624 900 c 128,-1,14
 703 941 703 941 811 997 c 1,15,-1
 809 997 l 1,16,17
 815 1003 815 1003 825.5 1010 c 128,-1,18
 836 1017 836 1017 849.5 1024 c 128,-1,19
 863 1031 863 1031 879 1035.5 c 128,-1,20
 895 1040 895 1040 910 1040 c 0,21,22
 928 1040 928 1040 946.5 1032 c 128,-1,23
 965 1024 965 1024 979 1009.5 c 128,-1,24
 993 995 993 995 1002 976 c 128,-1,25
 1011 957 1011 957 1011 936 c 0,26,27
 1011 909 1011 909 1004 888.5 c 128,-1,28
 997 868 997 868 985 853 c 128,-1,29
 973 838 973 838 957 827.5 c 128,-1,30
 941 817 941 817 924 810 c 0,31,32
 880 792 880 792 837 771.5 c 128,-1,33
 794 751 794 751 747 726.5 c 128,-1,34
 700 702 700 702 647.5 673 c 128,-1,35
 595 644 595 644 532 610 c 1,36,-1
 909 397 l 1,37,38
 920 395 920 395 937.5 387 c 128,-1,39
 955 379 955 379 971.5 365 c 128,-1,40
 988 351 988 351 1000 330 c 128,-1,41
 1012 309 1012 309 1012 280 c 0,42,43
 1012 260 1012 260 1005.5 240 c 128,-1,44
 999 220 999 220 986.5 204 c 128,-1,45
 974 188 974 188 954.5 178.5 c 128,-1,46
 935 169 935 169 909 169 c 0,47,48
 875 169 875 169 853.5 179 c 128,-1,49
 832 189 832 189 812 202 c 1,50,-1
 813 202 l 1,51,52
 740 237 740 237 672 276.5 c 128,-1,53
 604 316 604 316 537 356.5 c 128,-1,54
 470 397 470 397 402.5 437 c 128,-1,55
 335 477 335 477 263 513 c 0,0,1
EndSplineSet
EndChar

StartChar: underscore
Encoding: 95 95 86
Width: 1348
Flags: W
LayerCount: 2
Fore
SplineSet
1348 -158 m 2,0,1
 1374 -158 1374 -158 1402.5 -159.5 c 128,-1,2
 1431 -161 1431 -161 1454.5 -170 c 128,-1,3
 1478 -179 1478 -179 1493.5 -198.5 c 128,-1,4
 1509 -218 1509 -218 1509 -253 c 0,5,6
 1509 -347 1509 -347 1348 -347 c 2,7,-1
 0 -347 l 2,8,9
 -78 -347 -78 -347 -123 -327 c 128,-1,10
 -168 -307 -168 -307 -168 -257 c 0,11,12
 -168 -229 -168 -229 -160.5 -209.5 c 128,-1,13
 -153 -190 -153 -190 -133.5 -179 c 128,-1,14
 -114 -168 -114 -168 -82 -163 c 128,-1,15
 -50 -158 -50 -158 0 -158 c 2,16,-1
 1348 -158 l 2,0,1
EndSplineSet
EndChar

StartChar: plus
Encoding: 43 43 87
Width: 1184
Flags: W
LayerCount: 2
Fore
SplineSet
461 358 m 0,0,1
 461 396 461 396 461 438.5 c 128,-1,2
 461 481 461 481 462 526 c 0,3,4
 462 542 462 542 462.5 561.5 c 128,-1,5
 463 581 463 581 463 613 c 1,6,-1
 204 616 l 2,7,8
 186 616 186 616 168.5 621 c 128,-1,9
 151 626 151 626 137 640 c 128,-1,10
 123 654 123 654 114 678.5 c 128,-1,11
 105 703 105 703 105 742 c 0,12,13
 105 773 105 773 115 790.5 c 128,-1,14
 125 808 125 808 144 817 c 128,-1,15
 163 826 163 826 189 828.5 c 128,-1,16
 215 831 215 831 247 831 c 2,17,-1
 465 830 l 1,18,-1
 468 1099 l 2,19,20
 468 1117 468 1117 471 1134.5 c 128,-1,21
 474 1152 474 1152 486 1166 c 128,-1,22
 498 1180 498 1180 521.5 1189 c 128,-1,23
 545 1198 545 1198 586 1198 c 0,24,25
 616 1198 616 1198 635 1187.5 c 128,-1,26
 654 1177 654 1177 665.5 1158 c 128,-1,27
 677 1139 677 1139 681 1112.5 c 128,-1,28
 685 1086 685 1086 685 1053 c 2,29,-1
 685 981 l 1,30,31
 684 939 684 939 684 901.5 c 128,-1,32
 684 864 684 864 684 830 c 1,33,-1
 868 830 l 1,34,-1
 939 841 l 1,35,36
 952 841 952 841 970 836 c 128,-1,37
 988 831 988 831 1004.5 818 c 128,-1,38
 1021 805 1021 805 1032 783 c 128,-1,39
 1043 761 1043 761 1043 727 c 0,40,41
 1043 673 1043 673 1016.5 641 c 128,-1,42
 990 609 990 609 945 609 c 0,43,44
 908 609 908 609 867 609 c 128,-1,45
 826 609 826 609 781 610 c 0,46,47
 764 610 764 610 742 610.5 c 128,-1,48
 720 611 720 611 683 611 c 1,49,50
 682 542 682 542 682.5 502 c 128,-1,51
 683 462 683 462 683 436 c 1,52,-1
 696 364 l 1,53,54
 696 350 696 350 690.5 332.5 c 128,-1,55
 685 315 685 315 672 299.5 c 128,-1,56
 659 284 659 284 636.5 273 c 128,-1,57
 614 262 614 262 580 262 c 0,58,59
 526 262 526 262 493.5 288 c 128,-1,60
 461 314 461 314 461 358 c 0,0,1
EndSplineSet
EndChar

StartChar: quotesingle
Encoding: 39 39 88
Width: 546
Flags: W
LayerCount: 2
Fore
SplineSet
275 1066 m 0,0,1
 255 1066 255 1066 235 1072 c 128,-1,2
 215 1078 215 1078 198.5 1091 c 128,-1,3
 182 1104 182 1104 171.5 1122.5 c 128,-1,4
 161 1141 161 1141 161 1167 c 0,5,6
 161 1203 161 1203 163.5 1239 c 128,-1,7
 166 1275 166 1275 166 1317 c 0,8,9
 166 1350 166 1350 164 1382 c 128,-1,10
 162 1414 162 1414 159 1446 c 0,11,12
 156 1479 156 1479 153.5 1512.5 c 128,-1,13
 151 1546 151 1546 151 1582 c 0,14,15
 151 1603 151 1603 158 1622 c 128,-1,16
 165 1641 165 1641 180 1655.5 c 128,-1,17
 195 1670 195 1670 219 1678.5 c 128,-1,18
 243 1687 243 1687 278 1687 c 0,19,20
 300 1687 300 1687 321 1681.5 c 128,-1,21
 342 1676 342 1676 358.5 1663 c 128,-1,22
 375 1650 375 1650 385 1629 c 128,-1,23
 395 1608 395 1608 395 1578 c 0,24,25
 395 1543 395 1543 392.5 1510 c 128,-1,26
 390 1477 390 1477 387 1444 c 0,27,28
 384 1412 384 1412 382 1379 c 128,-1,29
 380 1346 380 1346 380 1312 c 0,30,31
 380 1277 380 1277 384 1241 c 128,-1,32
 388 1205 388 1205 388 1162 c 0,33,34
 388 1115 388 1115 358 1090.5 c 128,-1,35
 328 1066 328 1066 275 1066 c 0,0,1
EndSplineSet
EndChar

StartChar: less
Encoding: 60 60 90
Width: 1184
Flags: W
LayerCount: 2
Fore
SplineSet
193 502 m 0,0,1
 179 508 179 508 169 521.5 c 128,-1,2
 159 535 159 535 153 552 c 128,-1,3
 147 569 147 569 144.5 587.5 c 128,-1,4
 142 606 142 606 142 622 c 0,5,6
 142 648 142 648 147.5 665.5 c 128,-1,7
 153 683 153 683 164 694.5 c 128,-1,8
 175 706 175 706 192 714 c 128,-1,9
 209 722 209 722 232 728 c 1,10,11
 358 780 358 780 483 841 c 128,-1,12
 608 902 608 902 747 963 c 1,13,14
 754 969 754 969 765.5 976 c 128,-1,15
 777 983 777 983 790 989 c 128,-1,16
 803 995 803 995 817 999.5 c 128,-1,17
 831 1004 831 1004 843 1004 c 0,18,19
 862 1004 862 1004 880 992.5 c 128,-1,20
 898 981 898 981 912 963 c 128,-1,21
 926 945 926 945 935 922.5 c 128,-1,22
 944 900 944 900 944 879 c 0,23,24
 944 853 944 853 937.5 837 c 128,-1,25
 931 821 931 821 920 810 c 128,-1,26
 909 799 909 799 894 791.5 c 128,-1,27
 879 784 879 784 863 777 c 1,28,-1
 863 778 l 1,29,-1
 475 597 l 1,30,-1
 845 421 l 1,31,32
 856 419 856 419 873.5 413 c 128,-1,33
 891 407 891 407 907.5 394.5 c 128,-1,34
 924 382 924 382 935.5 362.5 c 128,-1,35
 947 343 947 343 947 314 c 0,36,37
 947 294 947 294 940.5 272.5 c 128,-1,38
 934 251 934 251 921.5 233.5 c 128,-1,39
 909 216 909 216 889.5 205 c 128,-1,40
 870 194 870 194 844 194 c 0,41,42
 815 194 815 194 792.5 204 c 128,-1,43
 770 214 770 214 752 225 c 1,44,45
 730 237 730 237 687.5 258.5 c 128,-1,46
 645 280 645 280 592.5 307 c 128,-1,47
 540 334 540 334 481.5 363 c 128,-1,48
 423 392 423 392 368 419 c 128,-1,49
 313 446 313 446 267 468 c 128,-1,50
 221 490 221 490 193 502 c 0,0,1
EndSplineSet
EndChar

StartChar: hyphen
Encoding: 45 45 92
Width: 1184
Flags: W
LayerCount: 2
Fore
SplineSet
204 616 m 0,0,1
 186 616 186 616 168.5 621 c 128,-1,2
 151 626 151 626 137 640 c 128,-1,3
 123 654 123 654 114 678.5 c 128,-1,4
 105 703 105 703 105 742 c 0,5,6
 105 773 105 773 115 790.5 c 128,-1,7
 125 808 125 808 144 817 c 128,-1,8
 163 826 163 826 189 828.5 c 128,-1,9
 215 831 215 831 247 831 c 2,10,-1
 868 830 l 1,11,12
 882 835 882 835 899 838 c 128,-1,13
 916 841 916 841 939 841 c 0,14,15
 958 841 958 841 976.5 836 c 128,-1,16
 995 831 995 831 1010 818 c 128,-1,17
 1025 805 1025 805 1034 783 c 128,-1,18
 1043 761 1043 761 1043 727 c 0,19,20
 1043 673 1043 673 1016.5 641 c 128,-1,21
 990 609 990 609 945 609 c 0,22,23
 920 609 920 609 890 609.5 c 128,-1,24
 860 610 860 610 820 610 c 0,25,26
 800 610 800 610 779 610 c 128,-1,27
 758 610 758 610 728 610.5 c 128,-1,28
 698 611 698 611 655.5 611.5 c 128,-1,29
 613 612 613 612 551 612.5 c 128,-1,30
 489 613 489 613 404 614 c 128,-1,31
 319 615 319 615 204 616 c 0,0,1
EndSplineSet
EndChar

StartChar: plusminus
Encoding: 177 177 93
Width: 1184
Flags: W
LayerCount: 2
Fore
SplineSet
153 128 m 0,0,1
 153 159 153 159 163.5 176.5 c 128,-1,2
 174 194 174 194 193.5 203 c 128,-1,3
 213 212 213 212 240.5 214.5 c 128,-1,4
 268 217 268 217 301 217 c 2,5,-1
 497 217 l 1,6,7
 461 244 461 244 461 289 c 0,8,9
 461 327 461 327 461 369.5 c 128,-1,10
 461 412 461 412 462 457 c 0,11,12
 462 473 462 473 462.5 492.5 c 128,-1,13
 463 512 463 512 463 544 c 1,14,-1
 204 547 l 2,15,16
 186 547 186 547 168.5 552 c 128,-1,17
 151 557 151 557 137 571 c 128,-1,18
 123 585 123 585 114 609.5 c 128,-1,19
 105 634 105 634 105 673 c 0,20,21
 105 704 105 704 115 721.5 c 128,-1,22
 125 739 125 739 144 748 c 128,-1,23
 163 757 163 757 189 759.5 c 128,-1,24
 215 762 215 762 247 762 c 2,25,-1
 465 761 l 1,26,-1
 468 1030 l 2,27,28
 468 1048 468 1048 471 1065.5 c 128,-1,29
 474 1083 474 1083 486 1097 c 128,-1,30
 498 1111 498 1111 521.5 1120 c 128,-1,31
 545 1129 545 1129 586 1129 c 0,32,33
 616 1129 616 1129 635 1118.5 c 128,-1,34
 654 1108 654 1108 665.5 1089 c 128,-1,35
 677 1070 677 1070 681 1043.5 c 128,-1,36
 685 1017 685 1017 685 984 c 2,37,-1
 685 912 l 1,38,39
 684 870 684 870 684 832.5 c 128,-1,40
 684 795 684 795 684 761 c 1,41,-1
 868 761 l 1,42,-1
 939 772 l 1,43,44
 952 772 952 772 970 767 c 128,-1,45
 988 762 988 762 1004.5 749 c 128,-1,46
 1021 736 1021 736 1032 714 c 128,-1,47
 1043 692 1043 692 1043 658 c 0,48,49
 1043 604 1043 604 1016.5 572 c 128,-1,50
 990 540 990 540 945 540 c 0,51,52
 908 540 908 540 867 540 c 128,-1,53
 826 540 826 540 781 541 c 0,54,55
 764 541 764 541 742 541.5 c 128,-1,56
 720 542 720 542 683 542 c 1,57,58
 682 473 682 473 682.5 433 c 128,-1,59
 683 393 683 393 683 367 c 1,60,-1
 696 295 l 1,61,62
 696 278 696 278 687.5 255 c 128,-1,63
 679 232 679 232 656 215 c 1,64,65
 701 214 701 214 742.5 214.5 c 128,-1,66
 784 215 784 215 821 215 c 0,67,68
 828 215 828 215 835.5 217 c 128,-1,69
 843 219 843 219 851 221 c 0,70,71
 860 223 860 223 870 225 c 128,-1,72
 880 227 880 227 891 227 c 0,73,74
 905 227 905 227 923 222 c 128,-1,75
 941 217 941 217 957 204 c 128,-1,76
 973 191 973 191 984 168.5 c 128,-1,77
 995 146 995 146 995 112 c 0,78,79
 995 58 995 58 968.5 29 c 128,-1,80
 942 0 942 0 897 0 c 2,81,-1
 252 0 l 2,82,83
 234 0 234 0 216.5 5 c 128,-1,84
 199 10 199 10 185 24.5 c 128,-1,85
 171 39 171 39 162 64 c 128,-1,86
 153 89 153 89 153 128 c 0,0,1
EndSplineSet
EndChar

StartChar: equal
Encoding: 61 61 94
Width: 1184
Flags: W
LayerCount: 2
Fore
SplineSet
204 830 m 2,0,1
 186 830 186 830 168.5 835 c 128,-1,2
 151 840 151 840 137 853.5 c 128,-1,3
 123 867 123 867 114 892 c 128,-1,4
 105 917 105 917 105 956 c 0,5,6
 105 987 105 987 115 1004.5 c 128,-1,7
 125 1022 125 1022 144 1031 c 128,-1,8
 163 1040 163 1040 189 1042 c 128,-1,9
 215 1044 215 1044 247 1044 c 2,10,-1
 868 1043 l 2,11,12
 875 1043 875 1043 883 1045 c 128,-1,13
 891 1047 891 1047 899 1049 c 0,14,15
 908 1051 908 1051 918 1053 c 128,-1,16
 928 1055 928 1055 939 1055 c 0,17,18
 952 1055 952 1055 970 1050 c 128,-1,19
 988 1045 988 1045 1004.5 1032 c 128,-1,20
 1021 1019 1021 1019 1032 996.5 c 128,-1,21
 1043 974 1043 974 1043 940 c 0,22,23
 1043 886 1043 886 1016.5 854.5 c 128,-1,24
 990 823 990 823 945 823 c 0,25,26
 920 823 920 823 890 823.5 c 128,-1,27
 860 824 860 824 820 824 c 2,28,-1
 204 830 l 2,0,1
204 331 m 2,29,30
 186 331 186 331 168.5 336 c 128,-1,31
 151 341 151 341 137 354.5 c 128,-1,32
 123 368 123 368 114 393 c 128,-1,33
 105 418 105 418 105 457 c 0,34,35
 105 488 105 488 115 505.5 c 128,-1,36
 125 523 125 523 144 532 c 128,-1,37
 163 541 163 541 189 543 c 128,-1,38
 215 545 215 545 247 545 c 2,39,-1
 868 544 l 2,40,41
 875 544 875 544 883 546 c 128,-1,42
 891 548 891 548 899 550 c 0,43,44
 908 552 908 552 918 554 c 128,-1,45
 928 556 928 556 939 556 c 0,46,47
 952 556 952 556 970 551 c 128,-1,48
 988 546 988 546 1004.5 533 c 128,-1,49
 1021 520 1021 520 1032 498 c 128,-1,50
 1043 476 1043 476 1043 442 c 0,51,52
 1043 388 1043 388 1016.5 356 c 128,-1,53
 990 324 990 324 945 324 c 0,54,55
 920 324 920 324 890 324.5 c 128,-1,56
 860 325 860 325 820 325 c 2,57,-1
 204 331 l 2,29,30
EndSplineSet
EndChar

StartChar: thorn
Encoding: 254 254 95
Width: 1504
Flags: W
LayerCount: 2
Fore
SplineSet
202 -241 m 0,0,1
 202 -29 202 -29 202 174.5 c 128,-1,2
 202 378 202 378 201.5 584 c 128,-1,3
 201 790 201 790 200.5 1004.5 c 128,-1,4
 200 1219 200 1219 199 1454 c 1,5,6
 180 1454 180 1454 161 1450 c 128,-1,7
 142 1446 142 1446 122 1446 c 0,8,9
 104 1446 104 1446 84.5 1451.5 c 128,-1,10
 65 1457 65 1457 48.5 1470 c 128,-1,11
 32 1483 32 1483 21 1503.5 c 128,-1,12
 10 1524 10 1524 10 1554 c 0,13,14
 10 1608 10 1608 34.5 1635 c 128,-1,15
 59 1662 59 1662 98 1662 c 0,16,17
 116 1662 116 1662 133.5 1658 c 128,-1,18
 151 1654 151 1654 169 1654 c 0,19,20
 206 1654 206 1654 242.5 1657 c 128,-1,21
 279 1660 279 1660 321 1662 c 1,22,23
 365 1662 365 1662 390.5 1634.5 c 128,-1,24
 416 1607 416 1607 416 1557 c 0,25,26
 416 1543 416 1543 414 1531 c 128,-1,27
 412 1519 412 1519 407 1501 c 1,28,29
 407 1392 407 1392 405 1281.5 c 128,-1,30
 403 1171 403 1171 398 1053 c 1,31,32
 472 1143 472 1143 576 1187.5 c 128,-1,33
 680 1232 680 1232 803 1232 c 0,34,35
 932 1232 932 1232 1039 1188.5 c 128,-1,36
 1146 1145 1146 1145 1223 1064 c 128,-1,37
 1300 983 1300 983 1342.5 868 c 128,-1,38
 1385 753 1385 753 1385 610 c 0,39,40
 1385 475 1385 475 1342.5 357.5 c 128,-1,41
 1300 240 1300 240 1223.5 154 c 128,-1,42
 1147 68 1147 68 1040.5 18.5 c 128,-1,43
 934 -31 934 -31 805 -31 c 0,44,45
 752 -31 752 -31 696 -20 c 128,-1,46
 640 -9 640 -9 588 10 c 128,-1,47
 536 29 536 29 491 55.5 c 128,-1,48
 446 82 446 82 416 114 c 1,49,50
 416 98 416 98 416 81 c 128,-1,51
 416 64 416 64 416.5 33.5 c 128,-1,52
 417 3 417 3 417 -47.5 c 128,-1,53
 417 -98 417 -98 417 -180 c 0,54,55
 417 -222 417 -222 413.5 -253.5 c 128,-1,56
 410 -285 410 -285 398 -305.5 c 128,-1,57
 386 -326 386 -326 363.5 -336.5 c 128,-1,58
 341 -347 341 -347 304 -347 c 0,59,60
 261 -347 261 -347 231.5 -320.5 c 128,-1,61
 202 -294 202 -294 202 -241 c 0,0,1
412 600 m 0,62,63
 412 499 412 499 445.5 421 c 128,-1,64
 479 343 479 343 534 289.5 c 128,-1,65
 589 236 589 236 658 208 c 128,-1,66
 727 180 727 180 798 180 c 0,67,68
 881 180 881 180 945.5 212.5 c 128,-1,69
 1010 245 1010 245 1054 302 c 128,-1,70
 1098 359 1098 359 1120.5 438 c 128,-1,71
 1143 517 1143 517 1143 610 c 0,72,73
 1143 689 1143 689 1119.5 763 c 128,-1,74
 1096 837 1096 837 1051 893.5 c 128,-1,75
 1006 950 1006 950 939.5 984 c 128,-1,76
 873 1018 873 1018 787 1018 c 0,77,78
 712 1018 712 1018 644 987 c 128,-1,79
 576 956 576 956 524.5 900.5 c 128,-1,80
 473 845 473 845 442.5 768 c 128,-1,81
 412 691 412 691 412 600 c 0,62,63
EndSplineSet
EndChar

StartChar: Eth
Encoding: 208 208 96
Width: 1626
Flags: W
LayerCount: 2
Fore
SplineSet
224 117 m 0,0,1
 224 163 224 163 228 207 c 128,-1,2
 232 251 232 251 232 310 c 0,3,4
 232 404 232 404 232 498.5 c 128,-1,5
 232 593 232 593 231 689 c 1,6,-1
 189 689 l 2,7,8
 171 689 171 689 153.5 691.5 c 128,-1,9
 136 694 136 694 122 704.5 c 128,-1,10
 108 715 108 715 99 737.5 c 128,-1,11
 90 760 90 760 90 801 c 0,12,13
 90 832 90 832 100 850 c 128,-1,14
 110 868 110 868 128 877.5 c 128,-1,15
 146 887 146 887 172 890 c 128,-1,16
 198 893 198 893 230 893 c 1,17,18
 227 1138 227 1138 221 1383 c 1,19,20
 210 1404 210 1404 201.5 1429 c 128,-1,21
 193 1454 193 1454 193 1472 c 0,22,23
 193 1515 193 1515 216.5 1544.5 c 128,-1,24
 240 1574 240 1574 297 1574 c 0,25,26
 326 1574 326 1574 354 1566.5 c 128,-1,27
 382 1559 382 1559 414 1559 c 0,28,29
 484 1559 484 1559 553 1566.5 c 128,-1,30
 622 1574 622 1574 694 1574 c 0,31,32
 841 1574 841 1574 957.5 1545.5 c 128,-1,33
 1074 1517 1074 1517 1162 1466.5 c 128,-1,34
 1250 1416 1250 1416 1312 1346.5 c 128,-1,35
 1374 1277 1374 1277 1412.5 1194.5 c 128,-1,36
 1451 1112 1451 1112 1469 1019.5 c 128,-1,37
 1487 927 1487 927 1487 832 c 0,38,39
 1487 747 1487 747 1469.5 650.5 c 128,-1,40
 1452 554 1452 554 1412 459.5 c 128,-1,41
 1372 365 1372 365 1308 278.5 c 128,-1,42
 1244 192 1244 192 1150 126 c 128,-1,43
 1056 60 1056 60 930.5 20.5 c 128,-1,44
 805 -19 805 -19 643 -19 c 0,45,46
 605 -19 605 -19 567.5 -15.5 c 128,-1,47
 530 -12 530 -12 492 -7.5 c 128,-1,48
 454 -3 454 -3 415.5 0.5 c 128,-1,49
 377 4 377 4 337 4 c 0,50,51
 276 4 276 4 250 32 c 128,-1,52
 224 60 224 60 224 117 c 0,0,1
447 220 m 1,53,54
 468 214 468 214 497.5 210.5 c 128,-1,55
 527 207 527 207 557 205 c 128,-1,56
 587 203 587 203 613.5 202.5 c 128,-1,57
 640 202 640 202 655 202 c 0,58,59
 779 202 779 202 872 233 c 128,-1,60
 965 264 965 264 1031.5 314 c 128,-1,61
 1098 364 1098 364 1142 427 c 128,-1,62
 1186 490 1186 490 1211.5 554 c 128,-1,63
 1237 618 1237 618 1247 677 c 128,-1,64
 1257 736 1257 736 1257 778 c 0,65,66
 1257 944 1257 944 1217.5 1054.5 c 128,-1,67
 1178 1165 1178 1165 1101.5 1231 c 128,-1,68
 1025 1297 1025 1297 913.5 1324 c 128,-1,69
 802 1351 802 1351 657 1351 c 0,70,71
 638 1351 638 1351 610.5 1350 c 128,-1,72
 583 1349 583 1349 553 1348 c 128,-1,73
 523 1347 523 1347 493.5 1345 c 128,-1,74
 464 1343 464 1343 441 1342 c 1,75,-1
 443 893 l 1,76,77
 517 893 517 893 563 892.5 c 128,-1,78
 609 892 609 892 635.5 892 c 128,-1,79
 662 892 662 892 673 892 c 128,-1,80
 684 892 684 892 689 892 c 0,81,82
 706 892 706 892 723.5 897.5 c 128,-1,83
 741 903 741 903 760 903 c 0,84,85
 774 903 774 903 792 897.5 c 128,-1,86
 810 892 810 892 826.5 879 c 128,-1,87
 843 866 843 866 854 843 c 128,-1,88
 865 820 865 820 865 786 c 0,89,90
 865 729 865 729 838.5 705 c 128,-1,91
 812 681 812 681 767 681 c 0,92,93
 686 681 686 681 606 682 c 128,-1,94
 526 683 526 683 444 685 c 1,95,-1
 447 220 l 1,53,54
EndSplineSet
EndChar

StartChar: Thorn
Encoding: 222 222 97
Width: 1488
Flags: W
LayerCount: 2
Fore
SplineSet
204 89 m 0,0,1
 204 140 204 140 211.5 190.5 c 128,-1,2
 219 241 219 241 219 295 c 0,3,4
 219 552 219 552 214.5 812 c 128,-1,5
 210 1072 210 1072 210 1346 c 0,6,7
 210 1375 210 1375 204 1404.5 c 128,-1,8
 198 1434 198 1434 198 1464 c 0,9,10
 198 1490 198 1490 205 1510 c 128,-1,11
 212 1530 212 1530 229.5 1543.5 c 128,-1,12
 247 1557 247 1557 276 1564 c 128,-1,13
 305 1571 305 1571 350 1571 c 0,14,15
 396 1571 396 1571 421.5 1542 c 128,-1,16
 447 1513 447 1513 447 1466 c 0,17,18
 447 1439 447 1439 443.5 1411 c 128,-1,19
 440 1383 440 1383 438 1354 c 0,20,21
 438 1349 438 1349 437.5 1343 c 128,-1,22
 437 1337 437 1337 437 1332 c 1,23,-1
 458 1332 l 2,24,25
 502 1332 502 1332 546 1333.5 c 128,-1,26
 590 1335 590 1335 642 1335 c 0,27,28
 798 1335 798 1335 926 1305.5 c 128,-1,29
 1054 1276 1054 1276 1145.5 1211.5 c 128,-1,30
 1237 1147 1237 1147 1287.5 1046 c 128,-1,31
 1338 945 1338 945 1338 803 c 0,32,33
 1338 675 1338 675 1304 582.5 c 128,-1,34
 1270 490 1270 490 1212 427 c 128,-1,35
 1154 364 1154 364 1075.5 326 c 128,-1,36
 997 288 997 288 908 268 c 128,-1,37
 819 248 819 248 723.5 241.5 c 128,-1,38
 628 235 628 235 536 235 c 2,39,-1
 449 235 l 1,40,41
 451 210 451 210 452 191 c 128,-1,42
 453 172 453 172 455 157 c 1,43,44
 458 143 458 143 458.5 126 c 128,-1,45
 459 109 459 109 459 89 c 0,46,47
 459 66 459 66 454 47 c 128,-1,48
 449 28 449 28 435.5 14 c 128,-1,49
 422 0 422 0 399 -8 c 128,-1,50
 376 -16 376 -16 341 -16 c 0,51,52
 302 -16 302 -16 275.5 -9.5 c 128,-1,53
 249 -3 249 -3 233 10 c 128,-1,54
 217 23 217 23 210.5 43 c 128,-1,55
 204 63 204 63 204 89 c 0,0,1
441 444 m 1,56,57
 485 442 485 442 524.5 441 c 128,-1,58
 564 440 564 440 575 440 c 0,59,60
 742 440 742 440 846 462.5 c 128,-1,61
 950 485 950 485 1008.5 531 c 128,-1,62
 1067 577 1067 577 1087.5 647 c 128,-1,63
 1108 717 1108 717 1108 812 c 0,64,65
 1108 889 1108 889 1084.5 943.5 c 128,-1,66
 1061 998 1061 998 1022.5 1033.5 c 128,-1,67
 984 1069 984 1069 935 1089.5 c 128,-1,68
 886 1110 886 1110 834.5 1120 c 128,-1,69
 783 1130 783 1130 733.5 1132.5 c 128,-1,70
 684 1135 684 1135 646 1135 c 0,71,72
 595 1135 595 1135 543.5 1134 c 128,-1,73
 492 1133 492 1133 436 1132 c 1,74,-1
 436 947 l 2,75,76
 436 777 436 777 437.5 654 c 128,-1,77
 439 531 439 531 441 444 c 1,56,57
EndSplineSet
EndChar

StartChar: yen
Encoding: 165 165 98
Width: 1525
Flags: W
LayerCount: 2
Fore
SplineSet
290 337 m 0,0,1
 290 360 290 360 299 377 c 128,-1,2
 308 394 308 394 322.5 405.5 c 128,-1,3
 337 417 337 417 353.5 422 c 128,-1,4
 370 427 370 427 385 426 c 0,5,6
 416 424 416 424 488.5 423 c 128,-1,7
 561 422 561 422 658 422 c 1,8,9
 658 458 658 458 657.5 501 c 128,-1,10
 657 544 657 544 657 597 c 1,11,12
 615 597 615 597 574.5 597 c 128,-1,13
 534 597 534 597 498.5 597 c 128,-1,14
 463 597 463 597 434 597.5 c 128,-1,15
 405 598 405 598 386 598 c 0,16,17
 368 598 368 598 350.5 602.5 c 128,-1,18
 333 607 333 607 319 618.5 c 128,-1,19
 305 630 305 630 296 649.5 c 128,-1,20
 287 669 287 669 287 698 c 0,21,22
 287 721 287 721 296 738 c 128,-1,23
 305 755 305 755 319 766 c 128,-1,24
 333 777 333 777 349.5 782.5 c 128,-1,25
 366 788 366 788 381 788 c 0,26,27
 410 788 410 788 464.5 787.5 c 128,-1,28
 519 787 519 787 588 788 c 1,29,30
 493 939 493 939 420.5 1039 c 128,-1,31
 348 1139 348 1139 296 1209 c 1,32,33
 270 1242 270 1242 250.5 1270 c 128,-1,34
 231 1298 231 1298 214 1321 c 0,35,36
 194 1349 194 1349 183 1369 c 128,-1,37
 172 1389 172 1389 172 1412 c 0,38,39
 172 1466 172 1466 206.5 1494.5 c 128,-1,40
 241 1523 241 1523 296 1523 c 0,41,42
 312 1523 312 1523 329 1513 c 128,-1,43
 346 1503 346 1503 362.5 1487.5 c 128,-1,44
 379 1472 379 1472 394 1453 c 128,-1,45
 409 1434 409 1434 421 1415 c 0,46,47
 503 1288 503 1288 560 1199.5 c 128,-1,48
 617 1111 617 1111 654.5 1053 c 128,-1,49
 692 995 692 995 713.5 961.5 c 128,-1,50
 735 928 735 928 745.5 911 c 128,-1,51
 756 894 756 894 759.5 888.5 c 128,-1,52
 763 883 763 883 765 880 c 1,53,-1
 1120 1428 l 2,54,55
 1133 1449 1133 1449 1144.5 1467 c 128,-1,56
 1156 1485 1156 1485 1168 1497.5 c 128,-1,57
 1180 1510 1180 1510 1194.5 1517 c 128,-1,58
 1209 1524 1209 1524 1227 1524 c 0,59,60
 1247 1524 1247 1524 1269 1517 c 128,-1,61
 1291 1510 1291 1510 1309.5 1496.5 c 128,-1,62
 1328 1483 1328 1483 1340 1463 c 128,-1,63
 1352 1443 1352 1443 1352 1416 c 0,64,65
 1352 1386 1352 1386 1336 1362.5 c 128,-1,66
 1320 1339 1320 1339 1300 1315 c 1,67,-1
 1294 1310 l 1,68,69
 1277 1287 1277 1287 1252.5 1253 c 128,-1,70
 1228 1219 1228 1219 1198.5 1177 c 128,-1,71
 1169 1135 1169 1135 1136 1088 c 128,-1,72
 1103 1041 1103 1041 1069.5 991 c 128,-1,73
 1036 941 1036 941 1003.5 890 c 128,-1,74
 971 839 971 839 942 791 c 1,75,-1
 1064 794 l 2,76,77
 1082 794 1082 794 1099 800 c 128,-1,78
 1116 806 1116 806 1136 806 c 0,79,80
 1149 806 1149 806 1167 802 c 128,-1,81
 1185 798 1185 798 1200.5 787 c 128,-1,82
 1216 776 1216 776 1227 754.5 c 128,-1,83
 1238 733 1238 733 1238 699 c 0,84,85
 1238 642 1238 642 1212 619.5 c 128,-1,86
 1186 597 1186 597 1141 597 c 2,87,-1
 873 597 l 1,88,89
 872 554 872 554 871.5 511 c 128,-1,90
 871 468 871 468 871 424 c 1,91,92
 921 426 921 426 970.5 427 c 128,-1,93
 1020 428 1020 428 1068 431 c 1,94,95
 1085 431 1085 431 1101.5 437.5 c 128,-1,96
 1118 444 1118 444 1138 444 c 0,97,98
 1152 444 1152 444 1170 440 c 128,-1,99
 1188 436 1188 436 1204 425 c 128,-1,100
 1220 414 1220 414 1231 392.5 c 128,-1,101
 1242 371 1242 371 1242 337 c 0,102,103
 1242 280 1242 280 1216 258 c 128,-1,104
 1190 236 1190 236 1144 236 c 2,105,-1
 873 236 l 1,106,107
 873 218 873 218 873.5 200 c 128,-1,108
 874 182 874 182 875 164 c 1,109,-1
 875 165 l 1,110,111
 878 140 878 140 879.5 125 c 128,-1,112
 881 110 881 110 882 100 c 128,-1,113
 883 90 883 90 883 83 c 128,-1,114
 883 76 883 76 883 67 c 0,115,116
 883 48 883 48 878 28 c 128,-1,117
 873 8 873 8 859.5 -8.5 c 128,-1,118
 846 -25 846 -25 823.5 -35.5 c 128,-1,119
 801 -46 801 -46 767 -46 c 0,120,121
 741 -46 741 -46 719.5 -36 c 128,-1,122
 698 -26 698 -26 682.5 -10.5 c 128,-1,123
 667 5 667 5 658.5 24.5 c 128,-1,124
 650 44 650 44 650 63 c 0,125,126
 650 75 650 75 650.5 83.5 c 128,-1,127
 651 92 651 92 651.5 101.5 c 128,-1,128
 652 111 652 111 653.5 123.5 c 128,-1,129
 655 136 655 136 658 156 c 1,130,-1
 658 155 l 2,131,132
 658 170 658 170 658.5 188.5 c 128,-1,133
 659 207 659 207 659 236 c 1,134,135
 617 236 617 236 577 236 c 128,-1,136
 537 236 537 236 502 236 c 128,-1,137
 467 236 467 236 438 236.5 c 128,-1,138
 409 237 409 237 390 237 c 0,139,140
 372 237 372 237 354 240.5 c 128,-1,141
 336 244 336 244 322 254.5 c 128,-1,142
 308 265 308 265 299 285 c 128,-1,143
 290 305 290 305 290 337 c 0,0,1
EndSplineSet
EndChar

StartChar: slash
Encoding: 47 47 99
Width: 1015
Flags: W
LayerCount: 2
Fore
SplineSet
113 15 m 1,0,1
 130 65 130 65 154 133.5 c 128,-1,2
 178 202 178 202 211.5 297.5 c 128,-1,3
 245 393 245 393 290.5 520 c 128,-1,4
 336 647 336 647 395.5 813.5 c 128,-1,5
 455 980 455 980 530 1191 c 128,-1,6
 605 1402 605 1402 699 1665 c 0,7,8
 703 1676 703 1676 710 1688 c 128,-1,9
 717 1700 717 1700 728.5 1709.5 c 128,-1,10
 740 1719 740 1719 755.5 1725.5 c 128,-1,11
 771 1732 771 1732 791 1732 c 0,12,13
 846 1732 846 1732 877 1703 c 128,-1,14
 908 1674 908 1674 908 1633 c 0,15,16
 908 1626 908 1626 907 1616.5 c 128,-1,17
 906 1607 906 1607 904 1601 c 0,18,19
 904 1600 904 1600 903.5 1599 c 128,-1,20
 903 1598 903 1598 903 1597 c 0,21,22
 897 1576 897 1576 872.5 1505.5 c 128,-1,23
 848 1435 848 1435 809 1323 c 128,-1,24
 770 1211 770 1211 717 1061.5 c 128,-1,25
 664 912 664 912 601 735 c 128,-1,26
 538 558 538 558 466 357 c 128,-1,27
 394 156 394 156 317 -59 c 0,28,29
 315 -67 315 -67 314 -74 c 128,-1,30
 313 -81 313 -81 312 -87 c 0,31,32
 311 -97 311 -97 307 -116 c 128,-1,33
 303 -135 303 -135 292 -153.5 c 128,-1,34
 281 -172 281 -172 260.5 -186 c 128,-1,35
 240 -200 240 -200 206 -200 c 0,36,37
 176 -200 176 -200 151.5 -189.5 c 128,-1,38
 127 -179 127 -179 110 -162.5 c 128,-1,39
 93 -146 93 -146 84 -127 c 128,-1,40
 75 -108 75 -108 75 -90 c 0,41,42
 75 -88 75 -88 76.5 -76.5 c 128,-1,43
 78 -65 78 -65 82.5 -49.5 c 128,-1,44
 87 -34 87 -34 94.5 -16.5 c 128,-1,45
 102 1 102 1 114 16 c 1,46,-1
 113 15 l 1,47,-1
 113 15 l 1,0,1
EndSplineSet
EndChar

StartChar: bar
Encoding: 124 124 101
Width: 845
Flags: W
LayerCount: 2
Fore
SplineSet
296 -257 m 0,0,1
 296 -228 296 -228 296 -165 c 128,-1,2
 296 -102 296 -102 296.5 -14.5 c 128,-1,3
 297 73 297 73 297 180.5 c 128,-1,4
 297 288 297 288 297.5 406 c 128,-1,5
 298 524 298 524 298.5 648.5 c 128,-1,6
 299 773 299 773 299.5 894 c 128,-1,7
 300 1015 300 1015 300.5 1128.5 c 128,-1,8
 301 1242 301 1242 301.5 1338 c 128,-1,9
 302 1434 302 1434 302.5 1508.5 c 128,-1,10
 303 1583 303 1583 303 1627 c 0,11,12
 303 1645 303 1645 308 1663 c 128,-1,13
 313 1681 313 1681 327 1696 c 128,-1,14
 341 1711 341 1711 365.5 1720 c 128,-1,15
 390 1729 390 1729 430 1729 c 0,16,17
 454 1729 454 1729 470 1719 c 128,-1,18
 486 1709 486 1709 496.5 1694.5 c 128,-1,19
 507 1680 507 1680 512 1662.5 c 128,-1,20
 517 1645 517 1645 518 1630 c 0,21,22
 519 1595 519 1595 519 1540 c 128,-1,23
 519 1485 519 1485 519 1394.5 c 128,-1,24
 519 1304 519 1304 519 1171.5 c 128,-1,25
 519 1039 519 1039 519 849.5 c 128,-1,26
 519 660 519 660 518.5 406.5 c 128,-1,27
 518 153 518 153 518 -179 c 0,28,29
 518 -197 518 -197 524.5 -214 c 128,-1,30
 531 -231 531 -231 531 -250 c 0,31,32
 531 -264 531 -264 526 -282.5 c 128,-1,33
 521 -301 521 -301 507.5 -317 c 128,-1,34
 494 -333 494 -333 471.5 -344 c 128,-1,35
 449 -355 449 -355 415 -355 c 0,36,37
 361 -355 361 -355 328.5 -328.5 c 128,-1,38
 296 -302 296 -302 296 -257 c 0,0,1
EndSplineSet
EndChar

StartChar: brokenbar
Encoding: 166 166 102
Width: 850
Flags: W
LayerCount: 2
Fore
SplineSet
415 779 m 0,0,1
 361 779 361 779 328.5 805.5 c 128,-1,2
 296 832 296 832 296 877 c 0,3,4
 296 917 296 917 296 967.5 c 128,-1,5
 296 1018 296 1018 296.5 1072 c 128,-1,6
 297 1126 297 1126 297.5 1181 c 128,-1,7
 298 1236 298 1236 299 1284 c 1,8,-1
 299 1571 l 2,9,10
 299 1605 299 1605 304.5 1633 c 128,-1,11
 310 1661 310 1661 324 1680.5 c 128,-1,12
 338 1700 338 1700 363.5 1711 c 128,-1,13
 389 1722 389 1722 428 1722 c 0,14,15
 458 1722 458 1722 477 1715 c 128,-1,16
 496 1708 496 1708 506.5 1692.5 c 128,-1,17
 517 1677 517 1677 521 1652.5 c 128,-1,18
 525 1628 525 1628 525 1593 c 0,19,20
 525 1576 525 1576 524.5 1543 c 128,-1,21
 524 1510 524 1510 523 1445.5 c 128,-1,22
 522 1381 522 1381 520 1277.5 c 128,-1,23
 518 1174 518 1174 514 1016 c 0,24,25
 514 991 514 991 517 962.5 c 128,-1,26
 520 934 520 934 531 883 c 1,27,28
 531 869 531 869 526 851 c 128,-1,29
 521 833 521 833 507.5 817 c 128,-1,30
 494 801 494 801 471.5 790 c 128,-1,31
 449 779 449 779 415 779 c 0,0,1
301 488 m 2,32,33
 301 506 301 506 306 524.5 c 128,-1,34
 311 543 311 543 325.5 557 c 128,-1,35
 340 571 340 571 365 580 c 128,-1,36
 390 589 390 589 430 589 c 0,37,38
 460 589 460 589 479 578.5 c 128,-1,39
 498 568 498 568 508 548.5 c 128,-1,40
 518 529 518 529 521.5 500 c 128,-1,41
 525 471 525 471 525 435 c 0,42,43
 525 371 525 371 524 292 c 128,-1,44
 523 213 523 213 521.5 129 c 128,-1,45
 520 45 520 45 519 -39 c 128,-1,46
 518 -123 518 -123 518 -198 c 0,47,48
 518 -216 518 -216 524.5 -233 c 128,-1,49
 531 -250 531 -250 531 -269 c 0,50,51
 531 -283 531 -283 526 -301.5 c 128,-1,52
 521 -320 521 -320 507.5 -336 c 128,-1,53
 494 -352 494 -352 471.5 -363 c 128,-1,54
 449 -374 449 -374 415 -374 c 0,55,56
 361 -374 361 -374 328.5 -347.5 c 128,-1,57
 296 -321 296 -321 296 -276 c 0,58,59
 296 -250 296 -250 296 -212 c 128,-1,60
 296 -174 296 -174 296 -129.5 c 128,-1,61
 296 -85 296 -85 296.5 -38 c 128,-1,62
 297 9 297 9 297 54.5 c 128,-1,63
 297 100 297 100 297.5 140 c 128,-1,64
 298 180 298 180 299 209 c 2,65,-1
 301 488 l 2,32,33
EndSplineSet
EndChar

